<?xml version="1.0" encoding="utf-8"?>
<!-- Generator: Adobe Illustrator 22.1.0, SVG Export Plug-In . SVG Version: 6.00 Build 0)  -->
<svg version="1.1" id="Layer_1" xmlns="http://www.w3.org/2000/svg" xmlns:xlink="http://www.w3.org/1999/xlink" x="0px" y="0px"
	 viewBox="0 0 842.6 248" style="enable-background:new 0 0 842.6 248;" xml:space="preserve">
<style type="text/css">
	.st0{fill:#FFFFFF;}
</style>
<g>
	<path class="st0" d="M270,214v-93h25v16h1.2c1.7-5.7,4.4-10.1,8.4-13c3.9-2.9,8.4-4.4,13.5-4.4c2.8,0,5.5,0.3,7.9,0.9v22.7
		c-1.2-0.4-2.8-0.7-4.9-1c-2.1-0.3-4-0.4-5.8-0.4c-5.6,0-10.2,1.8-13.8,5.3c-3.7,3.5-5.5,8.2-5.5,13.8v53H270z"/>
	<path class="st0" d="M399,174v-53h25v92h-25v-16h-1c-2.1,5.4-5.5,9.8-10.3,13.1c-4.8,3.3-10.7,5-17.6,5c-9.3,0-16.8-3.1-22.5-9.3
		c-5.7-6.2-8.6-14.8-8.7-25.6V121h26v54.2c0,5.4,1.5,9.8,4.4,12.9c2.9,3.2,6.8,4.7,11.7,4.7c4.7,0,8.8-1.6,12.4-4.8
		C397.2,184.8,399,180.2,399,174z"/>
	<path class="st0" d="M505,248v-49h-0.8c-1.2,2.6-2.9,5.1-5.1,7.6c-2.2,2.5-5,4.6-8.5,6.2c-3.5,1.6-7.7,2.5-12.6,2.5
		c-7,0-13.3-1.8-19-5.4c-5.6-3.6-10.1-9-13.5-16c-3.3-7.1-5-15.8-5-26c0-10.6,1.7-19.4,5.1-26.4c3.4-7,8-12.3,13.6-15.8
		c5.6-3.5,11.9-5.3,18.6-5.3c5.1,0,9.4,0.9,12.9,2.6c3.5,1.7,6.3,3.9,8.4,6.5s3.8,5.1,4.9,7.6h1.8v-16h25v127H505z M501,147.8
		c-3.4-4.9-8.2-7.3-14.4-7.3c-6.3,0-11.1,2.5-14.4,7.5c-3.3,5-5,11.5-5,19.5c0,8,1.7,14.6,5,19.7c3.3,5.1,8.1,7.6,14.4,7.6
		c6.2,0,10.9-2.5,14.3-7.5c3.4-5,5.1-11.6,5.1-19.8C506,159.2,504.3,152.7,501,147.8z"/>
	<path class="st0" d="M612,248v-49h-0.8c-1.2,2.6-2.9,5.1-5.1,7.6c-2.2,2.5-5,4.6-8.5,6.2c-3.5,1.6-7.7,2.5-12.6,2.5
		c-7,0-13.3-1.8-19-5.4c-5.6-3.6-10.1-9-13.5-16c-3.3-7.1-5-15.8-5-26c0-10.6,1.7-19.4,5.1-26.4c3.4-7,8-12.3,13.6-15.8
		c5.6-3.5,11.9-5.3,18.6-5.3c5.1,0,9.4,0.9,12.9,2.6c3.5,1.7,6.3,3.9,8.4,6.5s3.8,5.1,4.9,7.6h1.8v-16h25v127H612z M608,147.8
		c-3.4-4.9-8.2-7.3-14.4-7.3c-6.3,0-11.1,2.5-14.4,7.5c-3.3,5-5,11.5-5,19.5c0,8,1.7,14.6,5,19.7c3.3,5.1,8.1,7.6,14.4,7.6
		c6.2,0,10.9-2.5,14.3-7.5c3.4-5,5.1-11.6,5.1-19.8C613,159.2,611.3,152.7,608,147.8z"/>
	<path class="st0" d="M718,174v-53h25v92h-25v-16h-1c-2.1,5.4-5.5,9.8-10.3,13.1c-4.8,3.3-10.7,5-17.6,5c-9.3,0-16.8-3.1-22.5-9.3
		c-5.7-6.2-8.6-14.8-8.7-25.6V121h26v54.2c0,5.4,1.5,9.8,4.4,12.9c2.9,3.2,6.8,4.7,11.7,4.7c4.7,0,8.8-1.6,12.4-4.8
		C716.2,184.8,718,180.2,718,174z"/>
	<path class="st0" d="M840.5,147.6l-23.4,1.4c-0.6-3-2.3-5.5-4.9-7.6c-2.6-2.1-6.1-3.2-10.6-3.2c-4,0-7.3,0.8-10.1,2.5
		c-2.7,1.7-4.1,3.9-4.1,6.6c0,2.2,0.8,4.1,2.6,5.6c1.8,1.5,4.8,2.7,9.1,3.7l16.7,3.4c17.7,3.6,26.6,12,26.7,25
		c0,6-1.8,11.4-5.3,15.9c-3.5,4.6-8.4,8.1-14.6,10.7c-6.2,2.5-13.2,3.8-21.2,3.8c-12.2,0-22-2.6-29.2-7.7
		c-7.2-5.1-11.5-12.1-12.7-20.9l25.2-1.3c0.8,3.8,2.7,6.6,5.6,8.5s6.6,2.9,11.2,2.9c4.5,0,8.1-0.9,10.8-2.6s4.1-4,4.2-6.7
		c-0.1-4.6-4.1-7.6-11.8-9.2l-16-3.2c-17.9-3.6-26.8-12.4-26.7-26.4c0-8.9,3.5-15.9,10.7-21c7.1-5.1,16.6-7.7,28.4-7.7
		c11.7,0,20.8,2.5,27.5,7.4C835.4,132.4,839.3,139.1,840.5,147.6z"/>
</g>
<g>
	<path class="st0" d="M0,0v214h214V0H0z M158,107v50.5L107.5,107H107H56V56h51h51V107z"/>
</g>
</svg>
