<svg viewBox="0 0 132 101" xmlns="http://www.w3.org/2000/svg"><path d="m90 38.93v.14a7.08 7.08 0 0 0 -7.07-7.07h-35.86a7.08 7.08 0 0 0 -7.07 7.07v10.86a7.08 7.08 0 0 1 -7.07 7.07h-25.86a7.08 7.08 0 0 0 -7.07 7.07v36.93h132v-47.93a7.08 7.08 0 0 0 -7.07-7.07h-27.86a7.08 7.08 0 0 1 -7.07-7.07z" fill="#cbd5e0"/><path d="m66 0h6v101h-6z" fill="#4a5568"/><path d="m17 80h49v21h-49z" fill="#a0aec0"/><path d="m54 80h12v21h-12z" fill="#718096"/><path d="m113 3h2v89h-2z" fill="#a0aec0"/><path d="m84.26 6-12.26 12.26v8.48l20.74-20.74z" fill="#4a5568"/><path d="m126.31 30.54v-.32a.26.26 0 0 0 -.52 0v.32a2.61 2.61 0 0 1 -2.15 2.15l-.32.05a.26.26 0 0 0 0 .52l.32.05a2.61 2.61 0 0 1 2.15 2.15v.32a.26.26 0 0 0 .52 0v-.32a2.61 2.61 0 0 1 2.15-2.15l.32-.05a.26.26 0 0 0 0-.52l-.32-.05a2.61 2.61 0 0 1 -2.15-2.15z" fill="#a0aec0"/><path d="m58.79 6.36v-.21a.17.17 0 0 1 .34 0v.21a1.72 1.72 0 0 0 1.43 1.43h.21a.17.17 0 0 1 0 .34h-.21a1.72 1.72 0 0 0 -1.43 1.43v.21a.17.17 0 0 1 -.34 0v-.21a1.72 1.72 0 0 0 -1.43-1.43h-.21a.17.17 0 0 1 0-.34h.21a1.72 1.72 0 0 0 1.43-1.43z" fill="#a0aec0"/><path d="m8.69 70.54.05-.32a.26.26 0 0 1 .52 0l.05.32a2.61 2.61 0 0 0 2.15 2.15h.32a.26.26 0 0 1 0 .52h-.32a2.61 2.61 0 0 0 -2.15 2.15l-.05.32a.26.26 0 0 1 -.52 0l-.05-.32a2.61 2.61 0 0 0 -2.15-2.15h-.32a.26.26 0 0 1 0-.52h.32a2.61 2.61 0 0 0 2.15-2.15z" fill="#fff"/><circle cx="123" cy="27" fill="#a0aec0" r="1"/><g fill="#fff"><circle cx="126" cy="64" r="1"/><circle cx="84.5" cy="50.5" r="1.5"/><circle cx="48.5" cy="40.5" r="1.5"/></g><path d="m87.5-21.5h6v49h-6z" fill="#4a5568" transform="matrix(0 -1 1 0 87.5 93.5)"/><path d="m92.5-16.5h1v44h-1z" fill="#2d3748" transform="matrix(0 -1 1 0 87.5 98.5)"/><path d="m71 5.51h1v93.65h-1z" fill="#2d3748"/><path d="m66 80h49v21h-49z" fill="#a0aec0"/><path d="m103 80h12v21h-12z" fill="#718096"/><path d="m41 59h49v21h-49z" fill="#a0aec0"/><path d="m78 59h12v21h-12z" fill="#718096"/><path d="m18 25 2 2h-2v13h11v-15z" fill="#718096"/><path d="m20 42h-19l8-7.5-8-7.5h19z" fill="#a0aec0"/><path d="m30 22.09a1.64 1.64 0 0 0 -.5-.09 1.5 1.5 0 0 0 -1.5 1.5v77.5h3v-77.5a1.51 1.51 0 0 0 -1-1.41z" fill="#4a5568"/><path d="m30 22.09v78.91h1v-77.5a1.51 1.51 0 0 0 -1-1.41z" fill="#2d3748"/></svg>