<svg viewBox="0 0 149 110" xmlns="http://www.w3.org/2000/svg"><path d="m101.94 40a8 8 0 0 0 -8-8h-39.94a8 8 0 0 0 -8 8v12a8 8 0 0 1 -8 8h-30a8 8 0 0 0 -8 8v42h149v-54a8 8 0 0 0 -8-8h-31.07a8 8 0 0 1 -7.99-8z" fill="#cbd5e0"/><path d="m75 0h6v110h-6z" fill="#4a5568"/><path d="m26 89h49v21h-49z" fill="#a0aec0"/><path d="m63 89h12v21h-12z" fill="#718096"/><path d="m122 3h2v89h-2z" fill="#a0aec0"/><path d="m93.26 6-12.26 12.26v8.48l20.74-20.74z" fill="#4a5568"/><path d="m133.59 32.72.07-.43a.34.34 0 0 1 .68 0l.07.43a3.51 3.51 0 0 0 2.87 2.87l.43.07a.34.34 0 0 1 0 .68l-.43.07a3.51 3.51 0 0 0 -2.87 2.87l-.07.43a.34.34 0 0 1 -.68 0l-.07-.43a3.51 3.51 0 0 0 -2.87-2.87l-.43-.07a.34.34 0 0 1 0-.68l.43-.07a3.51 3.51 0 0 0 2.87-2.87z" fill="#a0aec0"/><path d="m63.69 15.54.05-.32a.26.26 0 0 1 .52 0v.32a2.61 2.61 0 0 0 2.15 2.15h.32a.26.26 0 0 1 0 .52h-.32a2.61 2.61 0 0 0 -2.15 2.15v.32a.26.26 0 0 1 -.52 0l-.05-.32a2.61 2.61 0 0 0 -2.15-2.15h-.32a.26.26 0 0 1 0-.52h.32a2.61 2.61 0 0 0 2.15-2.15z" fill="#a0aec0"/><path d="m27.69 70.54v-.32a.26.26 0 0 1 .52 0v.32a2.61 2.61 0 0 0 2.15 2.15h.32a.26.26 0 0 1 0 .52h-.32a2.61 2.61 0 0 0 -2.15 2.15v.32a.26.26 0 0 1 -.52 0v-.32a2.61 2.61 0 0 0 -2.15-2.15h-.32a.26.26 0 0 1 0-.52h.32a2.61 2.61 0 0 0 2.15-2.15z" fill="#fff"/><circle cx="141.5" cy="28.5" fill="#a0aec0" r="1.5"/><g fill="#fff"><circle cx="136" cy="57" r="1"/><circle cx="90.5" cy="57.5" r="1.5"/><circle cx="53.5" cy="39.5" r="1.5"/><circle cx="11.5" cy="100.5" r="1.5"/></g><path d="m96.5-21.5h6v49h-6z" fill="#4a5568" transform="matrix(0 -1 1 0 96.5 102.5)"/><path d="m101.5-16.5h1v44h-1z" fill="#2d3748" transform="matrix(0 -1 1 0 96.5 107.5)"/><path d="m80 6h1v102h-1z" fill="#2d3748"/><path d="m75 89h49v21h-49z" fill="#a0aec0"/><path d="m112 89h12v21h-12z" fill="#718096"/><path d="m50 68h49v21h-49z" fill="#a0aec0"/><path d="m87 68h12v21h-12z" fill="#718096"/><path d="m27 34 2 2h-2v13h11v-15z" fill="#718096"/><path d="m29 51h-19l8-7.5-8-7.5h19z" fill="#a0aec0"/><path d="m38.5 31a1.5 1.5 0 0 0 -1.5 1.5v77.5h2v-78.91a1.64 1.64 0 0 0 -.5-.09z" fill="#4a5568"/><path d="m39 31.09v78.91h1v-77.5a1.51 1.51 0 0 0 -1-1.41z" fill="#2d3748"/></svg>