<svg height="81" viewBox="0 0 264 81" width="264" xmlns="http://www.w3.org/2000/svg" xmlns:xlink="http://www.w3.org/1999/xlink"><mask id="a" fill="#fff"><path d="m6.20236025 2.25445342 4.73888195 4.73888198c.3275404.32754038.3275404.85718013 0 1.18123603l-.7874906.78749068c-.32754042.32754037-.85718017.32754037-1.18123607 0l-3.36251553-3.35554658-3.35903106 3.35903105c-.32754037.32754038-.85718012.32754038-1.18123602 0l-.79097516-.78749068c-.32754037-.32754037-.32754037-.85718012 0-1.18123602l4.73888199-4.73888199c.32754037-.33102485.85718013-.33102485 1.1847205-.00348447z" fill="#fff" fill-rule="evenodd"/></mask><mask id="b" fill="#fff"><path d="m5.03327103 8.976-4.75364486-4.75364486c-.32856075-.32856075-.32856075-.85985047 0-1.18491589l.78994392-.78994392c.32856075-.32856075.85985047-.32856075 1.18491589 0l3.36949533 3.36949532 3.36949533-3.36949532c.32856074-.32856075.85985046-.32856075 1.18491586 0l.7899439.78994392c.3285608.32856075.3285608.85985047 0 1.18491589l-4.75364481 4.75364486c-.32157009.32856075-.85285981.32856075-1.18142056 0z" fill="#fff" fill-rule="evenodd"/></mask><g fill="none" fill-rule="evenodd"><g><rect fill="#fff" height="81" rx="6" width="264"/><g fill="#e0e4e9"><rect height="10.5" rx="5.25" width="149.25" x="63.75" y="18"/><rect height="10.5" rx="5.25" width="90.75" x="63.75" y="33.75"/></g></g><g fill="#e0e4e9" fill-rule="evenodd"><g mask="url(#a)" transform="translate(13.5 63)"><path d="m0 0h10.96709v10.96709h-10.96709z"/></g><g mask="url(#b)" transform="translate(30.076389 63)"><path d="m0 0h11.03948v11.03948h-11.03948z"/></g></g><rect fill="#363254" height="30" rx="6" width="30" x="13.5" y="14.25"/></g></svg>