<?xml version="1.0" standalone="no"?>
<!DOCTYPE svg PUBLIC "-//W3C//DTD SVG 20010904//EN"
 "http://www.w3.org/TR/2001/REC-SVG-20010904/DTD/svg10.dtd">
<svg version="1.0" xmlns="http://www.w3.org/2000/svg"
 width="500.000000pt" height="500.000000pt" viewBox="0 0 500.000000 500.000000"
 preserveAspectRatio="xMidYMid meet">
<metadata>
Created by potrace 1.11, written by Peter Selinger 2001-2013
</metadata>
<g transform="translate(0.000000,500.000000) scale(0.100000,-0.100000)"
fill="#000000" stroke="none">
<path d="M0 2500 l0 -2500 2500 0 2500 0 0 2500 0 2500 -2500 0 -2500 0 0
-2500z m2770 1339 c0 -5 18 -49 41 -97 158 -336 199 -424 199 -427 0 -1 -21
-10 -47 -20 -302 -113 -462 -306 -463 -557 0 -122 31 -234 118 -418 22 -47 56
-119 75 -160 19 -41 69 -149 112 -240 42 -91 86 -185 97 -210 11 -25 49 -105
84 -179 36 -74 63 -135 62 -136 -2 0 -43 -20 -93 -43 -49 -22 -182 -84 -294
-136 -113 -53 -209 -96 -214 -96 -4 0 -24 35 -44 78 -19 42 -58 124 -85 181
-27 58 -61 130 -75 160 -14 31 -46 99 -70 151 -25 52 -58 122 -73 155 -15 33
-51 109 -79 169 -28 59 -51 110 -51 111 0 2 -26 59 -59 127 -32 68 -84 179
-116 248 -32 69 -72 157 -90 195 -18 39 -46 99 -63 135 -27 58 -61 132 -153
326 -16 34 -29 65 -29 68 0 6 53 32 275 136 39 18 116 55 173 81 56 27 109 49
116 49 8 0 23 -19 34 -42 81 -173 104 -219 109 -215 2 3 17 42 33 86 73 212
253 403 495 525 36 18 53 22 62 14 7 -6 13 -14 13 -19z"/>
</g>
</svg>
