<svg xmlns="http://www.w3.org/2000/svg" viewBox="0 0 842.57 248"><defs><style>.a{fill:#6d3eb7;}.b{fill:#fff;}</style></defs><title>ruqqus_logo</title><path class="a" d="M270,214V121h25v16h1.18q2.49-8.59,8.36-13a21.9,21.9,0,0,1,13.52-4.41,33.83,33.83,0,0,1,7.94.9v22.71a26.83,26.83,0,0,0-4.92-1,46.91,46.91,0,0,0-5.75-.39,19.09,19.09,0,0,0-13.84,5.32Q296,152.45,296,161v53Z"/><path class="a" d="M399,174V121h25v92H399V197h-1a27.45,27.45,0,0,1-10.33,13.12q-7.21,5-17.57,5-13.89,0-22.49-9.34T339,180.13V121h26v54.19q.06,8.17,4.44,12.92t11.74,4.74a18.29,18.29,0,0,0,12.44-4.8Q399.07,183.24,399,174Z"/><path class="a" d="M505,248V199h-.78a33.06,33.06,0,0,1-5.08,7.6,25.61,25.61,0,0,1-8.47,6.22A29.42,29.42,0,0,1,478,215.28a34.4,34.4,0,0,1-19-5.43q-8.48-5.44-13.46-16t-5-26.05q0-15.85,5.14-26.41t13.61-15.8A34.66,34.66,0,0,1,478,120.3a28.76,28.76,0,0,1,12.92,2.61,25.59,25.59,0,0,1,8.41,6.46,35.13,35.13,0,0,1,4.93,7.63H506V121h25V248Zm-4-100.22q-5.06-7.29-14.36-7.29-9.5,0-14.45,7.47t-4.95,19.5q0,12.07,5,19.67t14.42,7.6a16.31,16.31,0,0,0,14.32-7.48q5.08-7.47,5.08-19.79T501,147.78Z"/><path class="a" d="M612,248V199h-.78a33.06,33.06,0,0,1-5.08,7.6,25.61,25.61,0,0,1-8.47,6.22A29.42,29.42,0,0,1,585,215.28a34.4,34.4,0,0,1-19-5.43q-8.47-5.44-13.46-16t-5-26.05q0-15.85,5.14-26.41t13.61-15.8A34.66,34.66,0,0,1,585,120.3a28.76,28.76,0,0,1,12.92,2.61,25.59,25.59,0,0,1,8.41,6.46,35.13,35.13,0,0,1,4.93,7.63H613V121h25V248Zm-4-100.22q-5-7.29-14.36-7.29-9.5,0-14.44,7.47t-5,19.5q0,12.07,5,19.67t14.42,7.6a16.31,16.31,0,0,0,14.33-7.48q5.09-7.47,5.08-19.79T608,147.78Z"/><path class="a" d="M718,174V121h25v92H718V197h-1a27.45,27.45,0,0,1-10.33,13.12q-7.22,5-17.57,5-13.89,0-22.49-9.34T658,180.13V121h26v54.19q.06,8.17,4.44,12.92t11.74,4.74a18.29,18.29,0,0,0,12.44-4.8Q718.07,183.24,718,174Z"/><path class="a" d="M840.47,147.63,817,149.08a13.44,13.44,0,0,0-4.87-7.64q-3.92-3.18-10.58-3.18a19.22,19.22,0,0,0-10.06,2.49q-4.11,2.5-4,6.64a6.91,6.91,0,0,0,2.61,5.59c1.78,1.52,4.81,2.75,9.1,3.66l16.7,3.37q26.61,5.46,26.68,25a25.24,25.24,0,0,1-5.32,15.92,34.78,34.78,0,0,1-14.57,10.67,55.29,55.29,0,0,1-21.2,3.81q-18.33,0-29.2-7.66a29.38,29.38,0,0,1-12.68-20.88l25.17-1.32a13,13,0,0,0,5.56,8.53q4.36,2.9,11.2,2.89t10.85-2.65q4.11-2.64,4.17-6.72-.18-6.85-11.83-9.2l-16-3.18q-26.81-5.36-26.68-26.38,0-13.34,10.67-21t28.44-7.69q17.49,0,27.55,7.39A28.58,28.58,0,0,1,840.47,147.63Z"/><rect class="a" width="214" height="214"/><polygon class="b" points="107 56 56 56 56 107 107 107 107.48 107 158 157.52 158 107 158 56 107 56"/></svg>