<svg enable-background="new 0 0 1920 800" viewBox="0 0 1920 800" xmlns="http://www.w3.org/2000/svg" xmlns:xlink="http://www.w3.org/1999/xlink"><clipPath id="a"><path d="m0-280h1919v1079h-1919z"/></clipPath><path d="m2659 33h263v440h-263z" fill="#7e8c9b"/><path d="m0 0h1920v800h-1920z" fill="#bee3f8"/><path clip-path="url(#a)" d="m1713 210.2-65.3 33.2-169.7-86.1-266.4 135.1-122.5-62.1-127.4 64.6-223.5-113.4-122.6 62.2-280.8-142.5-169.7 86.1-104.3-52.9-280.8 142.4v194.5h834.2l-149.6 75.9h1523.4v-197.4z" fill="#fffaf0" opacity=".5"/><g opacity=".8"><path d="m420.7 208.2c-.1-.1-.4.2-.6.6s-.4.8-.3.8c.1 0 .4-.2.6-.6s.4-.8.3-.8z" fill="#ef8f30"/><path d="m425.5 209.5-3.6 2.4c-.2.1-.4.1-.5-.1l-1.6-2.4c-.1-.2-.1-.4.1-.5l3.6-2.4c.2-.1.4-.1.5.1l1.6 2.4c.1.1.1.3-.1.5z" fill="#805ad5"/><g style="fill:none;stroke:#805ad5;stroke-width:.2378;stroke-linecap:round;stroke-linejoin:round;stroke-miterlimit:10"><path d="m424.3 209s.9-.6.8-2.2"/><path d="m420.1 212.5s-.1-1.1 1.3-1.9"/><path d="m422.1 210.7s.7.3 1 1.3"/><path d="m424.2 209.4s.7.3 1 1.3"/></g><path d="m422 210.5c-.1 0-.2 0-.2 0l-.2-.4c0-.1 0-.2 0-.2h.2l.2.4c.1 0 .1.1 0 .2z" fill="#3d356d"/><path d="m424.2 209c-.1 0-.2 0-.2 0l-.2-.4c0-.1 0-.2 0-.2h.2l.2.4c.1.1.1.2 0 .2z" fill="#3d356d"/><path d="m423.5 210.3c-.4.2-.8.3-1 .1 0 0 0 0-.1-.1-.2-.2.3-.3.7-.6.4-.3.7-.6.8-.4.2.4 0 .8-.4 1z" fill="#3d356d"/><path d="m419.3 209.2c-.1-.1-.1-.1-.1-.1h.1l-.2-.4h.3z" fill="#ef8f30"/><path d="m420.1 207.8c-.1 0-.1 0-.1 0v.1h-.4l.1.3.4-.4c0 .1 0 .1 0 0z" fill="#ef8f30"/><path d="m420.1 208.8c.2-.4.5-.7.6-.6l-.6-.5.1.2-.4-.1.1.3-.5.1.2.5-.3.1.2.3h-.2l.7.3c-.3.2-.2-.2.1-.6z" fill="#fcd61f"/></g><path d="m1523.7 262c-.1-.2-1.1 0-2.1.5-1.1.5-1.8 1.1-1.7 1.3.1.2 1.1 0 2.1-.5s1.8-1.1 1.7-1.3z" fill="#ef8f30"/><path d="m1532 271.3h-10.8c-.5 0-1-.4-1-1v-7.2c0-.5.4-1 1-1h10.8c.5 0 1 .4 1 1v7.2c0 .5-.5 1-1 1z" fill="#805ad5"/><path d="m1530.2 268.7s2.8 0 4.7-3.5" style="fill:none;stroke:#805ad5;stroke-width:.5944;stroke-linecap:round;stroke-linejoin:round;stroke-miterlimit:10"/><path d="m1522.9 268.7s-2.8 0-4.7-3.5" style="fill:none;stroke:#805ad5;stroke-width:.5944;stroke-linecap:round;stroke-linejoin:round;stroke-miterlimit:10"/><path d="m1523.3 269.3s1.1 1.7.2 4.1" style="fill:none;stroke:#805ad5;stroke-width:.5944;stroke-linecap:round;stroke-linejoin:round;stroke-miterlimit:10"/><path d="m1529.3 269.3s1.1 1.7.2 4.1" style="fill:none;stroke:#805ad5;stroke-width:.5944;stroke-linecap:round;stroke-linejoin:round;stroke-miterlimit:10"/><path d="m1523.3 268.6c-.2 0-.4-.2-.4-.4v-1.1c0-.2.2-.4.4-.4.2 0 .4.2.4.4v1.1c-.1.3-.2.4-.4.4z" fill="#3d356d"/><path d="m1529.9 268.6c-.2 0-.4-.2-.4-.4v-1.1c0-.2.2-.4.4-.4.2 0 .4.2.4.4v1.1c0 .3-.2.4-.4.4z" fill="#3d356d"/><path d="m1526.6 270.4c-1.1 0-2-.5-2.2-1.1 0-.1 0-.1 0-.2 0-.7 1-.3 2.2-.3 1.2 0 2.2-.4 2.2.3s-1 1.3-2.2 1.3z" fill="#3d356d"/><path d="m1519.3 262.3v-.2s0-.1.1-.1l.2.1h.1l.2-1s.1-.1.1 0l.8.4v.1z" fill="#ef8f30"/><path d="m1523 260.6-.2-.2h-.1l-.1.3s-.1.1-.1 0l-.9-.5h-.1l-.2.8s0 .1.1.1z" fill="#ef8f30"/><path d="m1521.6 262.5c1.1-.5 2-.7 2.1-.5l-.6-1.8c0-.1-.1-.1-.1 0l-.1.4s-.1.1-.1 0l-.6-.7h-.1l-.3.7h-.1l-1.2-.6h-.1l-.3 1.3s0 .1-.1 0l-.7-.2s-.1 0-.1.1l.1.9s0 .1-.1.1l-.4-.2c-.1 0-.1 0-.1.1l1 1.6c.1-.1.9-.7 1.9-1.2z" fill="#fcd61f"/><path d="m1694.3 237.2h2.5v37.3h-2.5z" fill="#975a16"/><g opacity=".8"><path d="m715.5 324.3c0-.1-.4 0-.7.2-.4.2-.6.4-.6.4 0 .1.4 0 .7-.2s.6-.4.6-.4z" fill="#ef8f30"/><path d="m718.3 327.5h-3.7c-.2 0-.3-.2-.3-.3v-2.5c0-.2.2-.3.3-.3h3.7c.2 0 .3.2.3.3v2.5c0 .1-.1.3-.3.3z" fill="#805ad5"/><g style="fill:none;stroke:#805ad5;stroke-width:.204;stroke-linecap:round;stroke-linejoin:round;stroke-miterlimit:10"><path d="m717.7 326.6s1 0 1.6-1.2"/><path d="m715.2 326.6s-1 0-1.6-1.2"/><path d="m715.3 326.8s.4.6.1 1.4"/><path d="m717.4 326.8s.4.6.1 1.4"/></g><path d="m715.3 326.5c-.1 0-.1-.1 0 0l-.1-.5c0-.1.1-.1.1-.1.1 0 .1.1.1.1l-.1.5c.1 0 .1 0 0 0z" fill="#3d356d"/><path d="m717.6 326.5c-.1 0-.1-.1 0 0l-.1-.5c0-.1.1-.1.1-.1.1 0 .1.1.1.1l-.1.5c.1 0 .1 0 0 0z" fill="#3d356d"/><path d="m716.5 327.1c-.4 0-.7-.2-.8-.4 0 0 0 0 0-.1 0-.2.3-.1.8-.1.4 0 .8-.1.8.1-.1.3-.4.5-.8.5z" fill="#3d356d"/><path d="m713.9 324.4c0-.1 0-.1 0 0l.2-.5.3.1z" fill="#ef8f30"/><path d="m715.2 323.8c-.1-.1-.1-.1 0 0l-.4-.2-.1.3z" fill="#ef8f30"/><path d="m714.7 324.4c.4-.2.7-.2.7-.2l-.2-.6v.1l-.2-.2-.1.2-.4-.2-.1.4-.4.1v.3l-.1-.1.3.6c-.1 0 .2-.2.5-.4z" fill="#fcd61f"/></g><g opacity=".9"><path d="m724.2 315.4h.9v12.8h-.9z" fill="#975a16" opacity=".8"/><path d="m657.9 315.4h.9v12.8h-.9z" fill="#975a16" opacity=".8"/><path d="m658.6 315.4h.2v12.8h-.2z" fill="#744210" opacity=".8"/><path d="m724.9 315.4h.2v12.8h-.2z" fill="#744210" opacity=".8"/><g opacity=".8"><path d="m734.2 353.6-4.7 14.9c-.3 1 .4 1.9 1.4 1.9h6.6c1 0 1.7-1 1.4-1.9z" fill="#2f855a"/><path d="m737.4 357.8-3.5 11.1c-.2.7.3 1.4 1 1.4h4.9c.7 0 1.3-.7 1-1.4z" fill="#2f855a"/><path d="m730 363.4v-2.9c0-1.5 1.2-2.7 2.7-2.7 1.5 0 2.7 1.2 2.7 2.7v2.9c0 1.5-1.2 2.7-2.7 2.7-1.6-.1-2.7-1.2-2.7-2.7z" fill="#2f855a"/><path d="m730.2 361.8v-2.9c0-1.5 1.2-2.7 2.7-2.7 1.5 0 2.7 1.2 2.7 2.7v2.9c0 1.5-1.2 2.7-2.7 2.7-1.5-.1-2.7-1.3-2.7-2.7z" fill="#2f855a"/><path d="m666.3 346h50.6v24.4h-50.6z" fill="#718096"/><path d="m666.3 343.1h4.7v4.3h-4.7z" fill="#718096"/><path d="m675.5 343.1h4.7v4.3h-4.7z" fill="#718096"/><path d="m684.7 343.1h4.7v4.3h-4.7z" fill="#718096"/><path d="m693.8 343.1h4.7v4.3h-4.7z" fill="#718096"/><path d="m703 343.1h4.7v4.3h-4.7z" fill="#718096"/><path d="m712.2 343.1h4.7v4.3h-4.7z" fill="#718096"/><path d="m716.9 341.3h15.8v29.1h-15.8z" fill="#7e8c9b"/><path d="m716.9 341.3h2.7v29.1h-2.7z" fill="#fff" opacity=".15"/><path d="m650.5 341.3h15.8v29.1h-15.8z" fill="#7e8c9b"/><path d="m647.9 328.1h4.7v3.9h-4.7z" fill="#7e8c9b"/><path d="m656.1 328.1h4.7v3.9h-4.7z" fill="#7e8c9b"/><path d="m664.3 328.1h4.7v3.9h-4.7z" fill="#7e8c9b"/><path d="m650.5 341.3h2.7v29.1h-2.7z" fill="#fff" opacity=".15"/><path d="m666.3 337.6h-7.8-.2-7.8-2.6l2.6 4.7h15.8l2.7-4.7z" fill="#627184"/><path d="m647.9 331h21.1v6.6h-21.1z" fill="#7e8c9b"/><path d="m732.7 337.6h-7.8-.2-7.8-2.7l2.7 4.7h15.8l2.6-4.7z" fill="#627184"/><path d="m714.2 331h21.1v6.6h-21.1z" fill="#7e8c9b"/><path d="m691 354.6c2.9 0 5.2 2.3 5.2 5.2v10.6h-10.4v-10.6c.1-2.9 2.4-5.2 5.2-5.2z" fill="#3a4751"/><path d="m650.2 368.2c.1-.3.2-.5.4-.8v-7.7c-2.3.8-4 2.8-4.5 5.2-.1 0-.1 0-.2 0-2.7 0-4.9 2.2-4.9 4.9v.5h7.1c0-1.1.9-2.1 2.1-2.1z" fill="#38a169"/><path d="m656.7 367.6c0-2.7-2.1-4.7-4.6-4.7-.5 0-1 .1-1.5.3v5.3c.3-.3.7-.5 1.1-.5.7 0 1.2.4 1.4 1 .8 0 1.4.6 1.4 1.4h4.7c0-1.5-1.1-2.6-2.5-2.8z" fill="#38a169"/><path d="m650.2 368.2c-1.2 0-2.1.9-2.1 2.1h2.5v-2.9c-.2.3-.4.6-.4.8z" fill="#2f855a"/><path d="m654.2 368.2c-.3-.9-1.1-1.5-2-1.5-.7 0-1.2.3-1.6.8v2.9h5.7c0-1.2-.9-2.2-2.1-2.2z" fill="#2f855a"/><path d="m731.2 370.3c.1-.3.2-.7.2-1 0-1.6-1.3-3-3-3s-3 1.3-3 3c0 .4.1.7.2 1z" fill="#38a169"/><circle cx="731.7" cy="367.4" fill="#38a169" r="3"/><path d="m732.1 366.9c-.1 0-.2 0-.3 0v3.5h3.8c0-2-1.5-3.5-3.5-3.5z" fill="#2f855a"/><path d="m729.4 368.2c-.2-.1-.5-.1-.7-.1-1.2 0-2.3 1-2.3 2.3h5.4v-3.5c-1 .1-1.8.6-2.4 1.3z" fill="#2f855a"/><path d="m710.6 391.7c-.2-.6-.7-1.1-1.4-1.1 0 .8.6 1.4 1.4 1.5.8-.1 1.4-.7 1.4-1.5-.6-.1-1.2.4-1.4 1.1z" fill="#2f855a"/><path d="m666.4 370.1c-.2-.6-.7-1-1.3-1 0 .7.6 1.3 1.3 1.4.7 0 1.3-.6 1.3-1.4-.6-.1-1.1.4-1.3 1z" fill="#38a169"/><path d="m714.2 328.1h4.7v3.9h-4.7z" fill="#7e8c9b"/><path d="m722.4 328.1h4.7v3.9h-4.7z" fill="#7e8c9b"/><path d="m730.6 328.1h4.7v3.9h-4.7z" fill="#7e8c9b"/><g fill="#fff"><path d="m674.5 358.3h3.9v1.4h-3.9z" opacity=".2"/><path d="m659.7 345.6h3.9v1.4h-3.9z" opacity=".2"/><path d="m655.4 359.3h3.9v1.4h-3.9z" opacity=".2"/><path d="m699 349h3.9v1.4h-3.9z" opacity=".2"/><path d="m709.3 355.4h3.9v1.4h-3.9z" opacity=".2"/><path d="m725.3 351.5h3.9v1.4h-3.9z" opacity=".2"/><path d="m731.2 348h1.4v1.4h-1.4z" opacity=".2"/><path d="m664.9 352.2h1.4v1.4h-1.4z" opacity=".2"/><path d="m667.5 331.2h1.4v1.4h-1.4z" opacity=".2"/><path d="m647.9 328h2.7v9.6h-2.7z" opacity=".15"/><path d="m714.2 328h2.7v9.6h-2.7z" opacity=".15"/></g><path d="m696.2 355.8h7.8v14.5h-7.8z" fill="#718096"/></g><g fill="#ed8936"><path d="m665.6 317.7c-2.3-.1-4.6 2.2-6.8 2.2 0-1.5 0-3 0-4.4 2.3 1.4 4.6.6 6.8 2.2z" opacity=".8"/><path d="m731.9 317.7c-2.3-.1-4.6 2.2-6.8 2.2 0-1.5 0-3 0-4.4 2.3 1.4 4.5.6 6.8 2.2z" opacity=".8"/></g></g><path d="m0 208.1h289.1c21.1 0 41.3 8.4 56.2 23.3l114.9 114.9c14.9 14.9 35.1 23.3 56.2 23.3h220.7c21.1 0 41.3 8.4 56.2 23.3l135.7 135.7h-929z" fill="#38a169"/><path d="m1501.1 237.2h2.5v37.3h-2.5z" fill="#975a16"/><path d="m1503 237.2h.6v37.3h-.6z" fill="#744210"/><g opacity=".9"><path d="m900.4 466h2.6v38.8h-2.6z" fill="#b7791f"/><path d="m902.5 466h.5v38.8h-.5z" fill="#975a16"/><path d="m918 466.1h2.6v38.8h-2.6z" fill="#b7791f"/><path d="m919.8 466.1h.7v38.8h-.7z" fill="#975a16"/><path d="m913.1 468.3h1.6v36.2h-1.6z" fill="#b7791f"/><g fill="#975a16"><path d="m914.2 468.3h.4v36.2h-.4z"/><path d="m907.4 501.4h5.7v1h-5.7z"/><path d="m907.4 497h5.7v1h-5.7z"/><path d="m907.4 492.6h5.7v1h-5.7z"/><path d="m907.4 488.1h5.7v1h-5.7z"/><path d="m907.4 483.7h5.7v1h-5.7z"/><path d="m907.4 479.3h5.7v1h-5.7z"/><path d="m907.4 474.8h5.7v1h-5.7z"/><path d="m907.4 470.4h5.7v1h-5.7z"/></g><path d="m906.4 468.3h1.6v36.2h-1.6z" fill="#b7791f"/><path d="m907.5 468.3h.4v36.2h-.4z" fill="#975a16"/><path d="m895.5 451.5h30v17.1h-30z" fill="#975a16"/><path d="m910.5 458.2c-2.3 0-4.1 1.9-4.1 4.1v6.2h8.3v-6.2c-.1-2.2-1.9-4.1-4.2-4.1z" opacity=".5"/><path d="m921.4 447.3h4.1v5.2h-4.1z" fill="#975a16"/><path d="m912.7 447.3h4.1v5.2h-4.1z" fill="#975a16"/><path d="m904.1 447.3h4.1v5.2h-4.1z" fill="#975a16"/><path d="m895.5 447.3h4.1v5.2h-4.1z" fill="#975a16"/></g><path d="m1524.4 331.2h150v69.1h-150z" fill="#7e8c9b"/><path d="m1696.1 237.2h.6v37.3h-.6z" fill="#744210"/><path d="m499.7 211.9h1v14.9h-1z" fill="#975a16" opacity=".8"/><path d="m422.5 211.9h1v14.9h-1z" fill="#975a16" opacity=".8"/><path d="m423.2 211.9h.2v14.9h-.2z" fill="#744210" opacity=".8"/><path d="m500.5 211.9h.2v14.9h-.2z" fill="#744210" opacity=".8"/><g opacity=".8"><path d="m511.4 256.7-5.5 17.3c-.4 1.1.5 2.2 1.6 2.2h7.7c1.2 0 2-1.1 1.6-2.2z" fill="#2f855a"/><path d="m506.4 268.1v-3.3c0-1.7 1.4-3.1 3.1-3.1 1.7 0 3.1 1.4 3.1 3.1v3.3c0 1.7-1.4 3.1-3.1 3.1-1.7 0-3.1-1.3-3.1-3.1z" fill="#2f855a"/><path d="m406.8 270.7v-2.2c0-1.1.9-2 2-2 1.1 0 2 .9 2 2v2.2c0 1.1-.9 2-2 2-1.1 0-2-.9-2-2z" fill="#2f855a"/><path d="m408.8 268.2v-3.2c0-1.7 1.3-3 3-3 1.7 0 3 1.3 3 3v3.2c0 1.7-1.3 3-3 3-1.6 0-3-1.4-3-3z" fill="#2f855a"/><path d="m432.2 247.9h58.9v28.4h-58.9z" fill="#718096"/><path d="m432.2 244.3h5.5v5h-5.5z" fill="#718096"/><path d="m443 244.3h5.5v5h-5.5z" fill="#718096"/><path d="m453.7 244.3h5.5v5h-5.5z" fill="#718096"/><path d="m464.2 244.3h5.5v5h-5.5z" fill="#718096"/><path d="m474.9 244.3h5.5v5h-5.5z" fill="#718096"/><path d="m485.7 244.3h5.5v5h-5.5z" fill="#718096"/><path d="m491.2 242.4h18.4v33.9h-18.4z" fill="#7e8c9b"/><path d="m491.2 242.4h3.1v33.9h-3.1z" fill="#fff" opacity=".15"/><path d="m413.9 242.4h18.4v33.9h-18.4z" fill="#7e8c9b"/><path d="m410.8 226.7h5.5v4.5h-5.5z" fill="#7e8c9b"/><path d="m420.3 226.7h5.5v4.5h-5.5z" fill="#7e8c9b"/><path d="m429.9 226.7h5.5v4.5h-5.5z" fill="#7e8c9b"/><path d="m413.9 242.4h3.1v33.9h-3.1z" fill="#fff" opacity=".15"/><path d="m432.2 237.9h-9-.3-9-3.1l3.1 5.5h18.3l3.1-5.5z" fill="#627184"/><path d="m410.8 230.3h24.6v7.6h-24.6z" fill="#7e8c9b"/><path d="m509.5 237.9h-9-.3-9-3.1l3.1 5.5h18.3l3.1-5.5z" fill="#627184"/><path d="m488.1 230.3h24.6v7.6h-24.6z" fill="#7e8c9b"/><path d="m461 257.9c3.3 0 6 2.7 6 6v12.3h-12v-12.3c0-3.3 2.7-6 6-6z" fill="#3a4751"/><path d="m413.4 274c.1-.3.2-.6.4-.8v-8.2c-2.4.8-4.3 2.9-4.8 5.5-.1 0-.1 0-.2 0-2.9 0-5.2 2.3-5.2 5.2v.5h7.5c.1-1.2 1.1-2.2 2.3-2.2z" fill="#38a169"/><path d="m421 273.1c0-.1 0-.1 0 0 0-3.1-2.4-5.5-5.4-5.5-.6 0-1.2.1-1.8.3v6.1c.3-.4.8-.6 1.3-.6.8 0 1.4.5 1.6 1.2.9 0 1.7.8 1.7 1.7h5.5c0-1.7-1.2-3-2.9-3.2z" fill="#38a169"/><path d="m413.4 273.8c-1.3 0-2.4 1.1-2.4 2.5h2.9v-3.3c-.2.2-.4.5-.5.8z" fill="#2f855a"/><path d="m418.1 273.8c-.3-1-1.2-1.8-2.4-1.8-.8 0-1.4.4-1.9.9v3.3h6.7c.1-1.3-1-2.4-2.4-2.4z" fill="#2f855a"/><path d="m507.9 276.3c.1-.4.2-.8.2-1.2 0-1.9-1.5-3.4-3.4-3.4s-3.4 1.5-3.4 3.4c0 .4.1.8.2 1.2z" fill="#38a169"/><circle cx="508.4" cy="272.8" fill="#38a169" r="3.5"/><path d="m515.9 275.3c.1-.4.2-.8.2-1.2 0-1.9-1.5-3.4-3.4-3.4s-3.4 1.5-3.4 3.4c0 .4.1.8.2 1.2z" fill="#38a169"/><circle cx="515.4" cy="272.8" fill="#38a169" r="3.5"/><path d="m511.3 272.2h.4v4h-4.5c.1-2.2 1.9-4 4.1-4z" fill="#2f855a"/><path d="m514.5 273.8c.3-.1.6-.1.9-.1 1.5 0 2.6 1.2 2.6 2.6h-6.3v-4c1.1 0 2.1.6 2.8 1.5z" fill="#2f855a"/><path d="m483.9 301.1c-.2-.7-.9-1.3-1.7-1.3 0 .9.7 1.7 1.6 1.7h.1.1c.9-.1 1.6-.8 1.6-1.7-.8 0-1.5.5-1.7 1.3z" fill="#2f855a"/><path d="m432.4 275.9c-.2-.7-.8-1.2-1.6-1.2 0 .9.7 1.5 1.5 1.6h.1.1c.8-.1 1.5-.7 1.5-1.6-.8 0-1.5.5-1.6 1.2z" fill="#38a169"/><path d="m488.1 226.7h5.5v4.5h-5.5z" fill="#7e8c9b"/><path d="m497.6 226.7h5.5v4.5h-5.5z" fill="#7e8c9b"/><path d="m507.2 226.7h5.5v4.5h-5.5z" fill="#7e8c9b"/><g fill="#fff"><path d="m439.8 267.2h4.5v1.7h-4.5z" opacity=".2"/><path d="m419.5 247.4h4.5v1.7h-4.5z" opacity=".2"/><path d="m422.5 265.4h4.5v1.7h-4.5z" opacity=".2"/><path d="m444.3 254.4h4.5v1.7h-4.5z" opacity=".2"/><path d="m478.3 253.8h4.5v1.7h-4.5z" opacity=".2"/><path d="m499 260.2h4.5v1.7h-4.5z" opacity=".2"/><path d="m507.9 249.2h1.7v1.7h-1.7z" opacity=".2"/><path d="m430.6 257.1h1.7v1.7h-1.7z" opacity=".2"/><path d="m433.7 231.7h1.7v1.7h-1.7z" opacity=".2"/><path d="m410.8 227h3.1v10.9h-3.1z" opacity=".15"/><path d="m488.1 227h3.1v10.9h-3.1z" opacity=".15"/></g><path d="m467.1 259.3h9.1v16.9h-9.1z" fill="#718096"/></g><path d="m431.4 214.5c-2.7-.1-5.3 2.5-8 2.6 0-1.7 0-3.5 0-5.2 2.7 1.7 5.4.8 8 2.6z" fill="#7f9cf5" opacity=".8"/><path d="m508.7 214.5c-2.7-.1-5.3 2.5-8 2.6 0-1.7 0-3.5 0-5.2 2.7 1.7 5.3.8 8 2.6z" fill="#7f9cf5" opacity=".8"/><path d="m0 401h151.3c40.1 0 78.6-15.9 107-44.3l36.4-36.4c28.4-28.4 66.9-44.3 107-44.3h131.6c40.1 0 78.6 15.9 107 44.3l137.4 137.4c28.4 28.4 66.9 44.3 107 44.3h207.6c40.1 0 78.6-15.9 107-44.3l42.9-42.9c28.4-28.4 66.9-44.3 107-44.3h570.8v429.5h-1920z" fill="#68d391"/><path d="m1920 509h-95.1c-19.1 0-37.5 7.6-51 21.1l-104.2 104.2c-13.5 13.5-31.9 21.1-51 21.1h-200.1c-19.1 0-37.5 7.6-51 21.1l-123.1 123.1h674.7z" fill="#38a169"/><path d="m1475.9 351.1-13.7 43.3c-.9 2.8 1.2 5.6 4.1 5.6h19.3c2.9 0 5-2.8 4.1-5.6z" fill="#2f855a"/><path d="m1465.1 363.6-10.2 32.3c-.7 2.1.9 4.2 3.1 4.2h14.4c2.2 0 3.7-2.1 3.1-4.2z" fill="#2f855a"/><path d="m1713.4 379.8v-8.4c0-4.3 3.5-7.8 7.8-7.8 4.3 0 7.8 3.5 7.8 7.8v8.4c0 4.3-3.5 7.8-7.8 7.8-4.3-.1-7.8-3.5-7.8-7.8z" fill="#2f855a"/><path d="m1721.8 387.5v-8.4c0-4.3 3.5-7.8 7.8-7.8 4.3 0 7.8 3.5 7.8 7.8v8.4c0 4.3-3.5 7.8-7.8 7.8-4.4 0-7.8-3.5-7.8-7.8z" fill="#2f855a"/><path d="m1525.5 329.1h147.3v71h-147.3z" fill="#718096"/><path d="m1525.5 318.7h13.7v12.5h-13.7z" fill="#718096"/><path d="m1552.4 318.7h13.7v12.5h-13.7z" fill="#718096"/><path d="m1579.2 318.7h13.7v12.5h-13.7z" fill="#718096"/><path d="m1605.5 318.7h13.7v12.5h-13.7z" fill="#718096"/><path d="m1632.3 318.7h13.7v12.5h-13.7z" fill="#718096"/><path d="m1659.1 318.7h13.7v12.5h-13.7z" fill="#718096"/><path d="m1672.9 315.4h45.9v84.7h-45.9z" fill="#7e8c9b"/><path d="m1672.9 315.4h7.8v84.7h-7.8z" fill="#fff" opacity=".15"/><path d="m1479.6 315.4h45.9v84.7h-45.9z" fill="#7e8c9b"/><path d="m1471.9 274.2h13.7v11.3h-13.7z" fill="#7e8c9b"/><path d="m1495.7 274.2h13.7v11.3h-13.7z" fill="#7e8c9b"/><path d="m1519.6 274.2h13.7v11.3h-13.7z" fill="#7e8c9b"/><path d="m1479.6 315.4h7.8v84.7h-7.8z" fill="#fff" opacity=".15"/><path d="m1525.5 302.6h-22.6-.6-22.7-7.7l7.7 13.8h45.9l7.8-13.8z" fill="#627184"/><path d="m1471.9 284.5h61.4v19.1h-61.4z" fill="#7e8c9b"/><path d="m1718.8 302.6h-22.7-.6-22.6-7.8l7.8 13.8h45.9l7.7-13.8z" fill="#627184"/><path d="m1665.1 284.5h61.4v19.1h-61.4z" fill="#7e8c9b"/><path d="m1597.5 354.1c8.3 0 15.1 6.8 15.1 15.1v30.8h-30.2v-30.8c.1-8.3 6.8-15.1 15.1-15.1z" fill="#3a4751"/><path d="m1478.4 393.9c.2-.8.6-1.6 1.2-2.2v-22.4c-6.7 2.3-11.8 8-13.1 15.1-.2 0-.4 0-.6 0-7.9 0-14.2 6.4-14.2 14.2 0 .5 0 .9.1 1.4h20.6c0-3.3 2.7-6.1 6-6.1z" fill="#38a169"/><path d="m1497.5 392.1c0-.1 0-.2 0-.2 0-7.5-6.1-13.6-13.6-13.6-1.5 0-3 .3-4.4.7v15.3c.8-.9 1.9-1.5 3.2-1.5 1.9 0 3.5 1.3 4 3.1 2.3 0 4.2 1.9 4.2 4.2h13.7c.1-4.2-3-7.5-7.1-8z" fill="#38a169"/><path d="m1478.4 393.9c-3.4 0-6.1 2.8-6.1 6.1h7.3v-8.4c-.5.7-.9 1.5-1.2 2.3z" fill="#2f855a"/><path d="m1490.3 393.9c-.7-2.6-3.1-4.5-5.9-4.5-1.9 0-3.6.9-4.7 2.3v8.4h16.7c-.1-3.4-2.8-6.2-6.1-6.2z" fill="#2f855a"/><path d="m1714.6 400.1c.4-.9.6-2 .6-3 0-4.8-3.9-8.6-8.6-8.6s-8.6 3.9-8.6 8.6c0 1.1.2 2.1.6 3z" fill="#38a169"/><circle cx="1718.5" cy="390.2" fill="#38a169" r="8.6"/><path d="m1735 383.3c-.6 0-1.2 0-1.8.1-2-6.3-7.6-11.1-14.4-11.7v18.3c.3 0 .7-.1 1-.1 5.6 0 10.1 4.5 10.1 10.1h21.8c0-9.2-7.5-16.7-16.7-16.7z" fill="#38a169"/><path d="m1719.8 389.9c-.3 0-.7 0-1 .1v10.1h11.1c0-5.6-4.5-10.2-10.1-10.2z" fill="#2f855a"/><path d="m1711.8 393.8c-.7-.2-1.4-.4-2.1-.4-3.6 0-6.6 2.9-6.6 6.6h15.7v-10c-2.8.3-5.3 1.7-7 3.8z" fill="#2f855a"/><path d="m1525.8 399.3c-.4-1.7-2-3-3.9-3 0 2.1 1.7 3.9 3.7 4h.1.1c2.1-.1 3.7-1.9 3.7-4-1.7 0-3.2 1.2-3.7 3z" fill="#38a169"/><path d="m1665.1 274.2h13.7v11.3h-13.7z" fill="#7e8c9b"/><path d="m1689 274.2h13.7v11.3h-13.7z" fill="#7e8c9b"/><path d="m1712.8 274.2h13.7v11.3h-13.7z" fill="#7e8c9b"/><path d="m1547 352.3h11.3v4.2h-11.3z" fill="#fff" opacity=".2"/><path d="m1498.7 338h11.3v4.2h-11.3z" fill="#fff" opacity=".2"/><path d="m1628.1 338h11.3v4.2h-11.3z" fill="#fff" opacity=".2"/><path d="m1639.5 345.2h11.3v4.2h-11.3z" fill="#fff" opacity=".2"/><path d="m1697.3 335h11.3v4.2h-11.3z" fill="#fff" opacity=".2"/><path d="m1714.6 324.9h4.2v4.2h-4.2z" fill="#fff" opacity=".2"/><path d="m1521.4 354.7h4.2v4.2h-4.2z" fill="#fff" opacity=".2"/><path d="m1529.1 286.1h4.2v4.2h-4.2z" fill="#fff" opacity=".2"/><path d="m1471.9 274h7.8v29.6h-7.8z" fill="#fff" opacity=".15"/><path d="m1665.1 274h7.8v29.6h-7.8z" fill="#fff" opacity=".15"/><path d="m1615.3 397.9c-.7-1.4-1.6-2.2-2.4-2.7v-5c0-.5-.4-.9-.9-.9h-10c-.5 0-.9.4-.9.9v5.1c-.8.5-1.6 1.3-2.4 2.7-.1.1 0 .3.1.4h.1c.1 0 .2-.1.2-.1.6-1.1 1.2-1.8 1.9-2.3v.9c0 .5.4.9.9.9h1.7c0 .6.1 1.2.3 2 0 .1.1.2.3.2h.1c.1-.1.2-.2.2-.4-.3-.7-.3-1.3-.3-1.8h5c0 .6.1 1.2.3 2 0 .1.1.2.3.2h.1c.1-.1.2-.2.2-.4-.3-.7-.3-1.3-.3-1.8h2.2c.5 0 .9-.4.9-.9v-1c.6.5 1.3 1.2 1.9 2.3 0 .1.1.1.2.1h.1c.2-.1.2-.2.2-.4z" fill="#45525b"/><path d="m1612.6 357.7h22.7v42.3h-22.7z" fill="#718096"/><path d="m1538.1 575c-.6-2.2-2.6-3.9-5-3.9 0 2.7 2.1 5 4.8 5.2h.2s.1 0 .2 0c2.7-.2 4.8-2.4 4.8-5.2-2.4.1-4.4 1.7-5 3.9z" fill="#38a169"/><path d="m1772.1 473c-.6-2.2-2.6-3.9-5-3.9 0 2.7 2.1 5 4.8 5.2h.2s.1 0 .2 0c2.7-.2 4.8-2.4 4.8-5.2-2.4.1-4.4 1.7-5 3.9z" fill="#38a169"/><path d="m1432.7 622.8c-.7-2.7-3.1-4.6-6-4.6 0 3.3 2.6 6 5.8 6.2h.2s.1 0 .2 0c3.2-.2 5.8-2.9 5.8-6.2-2.9-.1-5.3 1.9-6 4.6z" fill="#38a169"/><path d="m1432.7 561.8c-.6-2.2-2.6-3.9-5-3.9 0 2.7 2.1 5 4.8 5.2h.2s.1 0 .2 0c2.7-.2 4.8-2.4 4.8-5.2-2.4 0-4.4 1.7-5 3.9z" fill="#38a169"/><path d="m683.4 517c-.6-2.2-2.6-3.9-5-3.9 0 2.7 2.1 5 4.8 5.2h.2.2c2.7-.2 4.8-2.4 4.8-5.2-2.4.1-4.4 1.7-5 3.9z" fill="#38a169"/><path d="m311.4 356.8c-.5-1.8-2.1-3.1-4-3.1 0 2.2 1.7 4 3.9 4.1h.1.1c2.2-.1 3.9-1.9 3.9-4.1-1.9 0-3.5 1.3-4 3.1z" fill="#38a169"/><path d="m25.4 417.8c-.5-1.8-2.1-3.1-4-3.1 0 2.2 1.7 4 3.9 4.1h.1.1c2.2-.1 3.9-1.9 3.9-4.1-1.9 0-3.5 1.3-4 3.1z" fill="#38a169"/><path d="m1219.7 698c-.7-2.7-3.1-4.6-6-4.6 0 3.3 2.6 6 5.8 6.2h.2s.1 0 .2 0c3.2-.2 5.8-2.9 5.8-6.2-2.9 0-5.3 1.9-6 4.6z" fill="#38a169"/><path d="m1103.7 533.8c-.6-2.2-2.6-3.9-5-3.9 0 2.7 2.1 5 4.8 5.2h.2s.1 0 .2 0c2.7-.2 4.8-2.4 4.8-5.2-2.4 0-4.4 1.6-5 3.9z" fill="#38a169"/><path d="m839.7 564.8c-.6-2.2-2.6-3.9-5-3.9 0 2.7 2.1 5 4.8 5.2h.2.2c2.7-.2 4.8-2.4 4.8-5.2-2.4 0-4.4 1.6-5 3.9z" fill="#38a169"/><path d="m511.7 603.8c-.6-2.2-2.6-3.9-5-3.9 0 2.7 2.1 5 4.8 5.2h.2s.1 0 .2 0c2.7-.2 4.8-2.4 4.8-5.2-2.4 0-4.4 1.6-5 3.9z" fill="#38a169"/><path d="m725.7 599.8c-.6-2.2-2.6-3.9-5-3.9 0 2.7 2.1 5 4.8 5.2h.2.2c2.7-.2 4.8-2.4 4.8-5.2-2.4 0-4.4 1.6-5 3.9z" fill="#38a169"/><path d="m975.9 655-22-22h-16l-15-15h-38l-36 37z" fill="#edf2f7"/><path d="m958.7 655-16-16.1h-11.7l-11-10.9h-27.7l-26.3 27z" fill="#e2e8f0"/><path d="m945 655-11.3-11.3h-8.2l-7.7-7.7h-19.5l-18.5 19z" fill="#cbd5e0" opacity=".5"/><path d="m555 404h5v75h-5z" fill="#b7791f"/><path d="m559 404h1v75h-1z" fill="#975a16"/><path d="m589 404.3h5v75h-5z" fill="#b7791f"/><path d="m592.5 404.3h1.4v75h-1.4z" fill="#975a16"/><path d="m579.5 408.5h3v70h-3z" fill="#b7791f"/><path d="m581.6 408.5h.9v70h-.9z" fill="#975a16"/><path d="m568.5 472.5h11v2h-11z" fill="#975a16"/><path d="m568.5 463.9h11v2h-11z" fill="#975a16"/><path d="m568.5 455.4h11v2h-11z" fill="#975a16"/><path d="m568.5 446.8h11v2h-11z" fill="#975a16"/><path d="m568.5 438.2h11v2h-11z" fill="#975a16"/><path d="m568.5 429.6h11v2h-11z" fill="#975a16"/><path d="m568.5 421.1h11v2h-11z" fill="#975a16"/><path d="m568.5 412.5h11v2h-11z" fill="#975a16"/><path d="m566.5 408.5h3v70h-3z" fill="#b7791f"/><path d="m568.6 408.5h.9v70h-.9z" fill="#975a16"/><path d="m545.5 376h58v33h-58z" fill="#975a16"/><path d="m574.5 389c-4.4 0-8 3.6-8 8v12h16v-12c0-4.4-3.6-8-8-8z" opacity=".5"/><path d="m1752.5 53.5c.1-.8.2-1.5.2-2.2 0-11-8.9-19.9-19.9-19.9-2.8 0-5.5.5-7.8 1.6-4.4-8.5-13.2-14.2-23.3-14.2-11.6 0-21.5 7.6-24.9 18.1-1.9-.7-4-1.2-6.2-1.2-9.8 0-17.8 7.9-17.8 17.8v.1z" fill="#fff"/><path d="m129.8 47.6c-.1-.7-.1-1.3-.1-2 0-9.9 8-17.9 17.9-17.9 2.5 0 4.9.5 7 1.5 3.9-7.6 11.9-12.8 21-12.8 10.5 0 19.4 6.8 22.4 16.3 1.7-.7 3.6-1 5.6-1 8.8 0 16 7.2 16 16v.1z" fill="#fff"/><path d="m553.1 115.7c-.1-.7-.1-1.5-.1-2.3 0-11 8.9-19.9 19.9-19.9 2.8 0 5.4.6 7.8 1.6 4.4-8.4 13.2-14.2 23.3-14.2 11.6 0 21.5 7.6 24.9 18.1 1.9-.7 4-1.1 6.2-1.1 9.8 0 17.8 8 17.8 17.8v.1h-99.8z" fill="#fff"/><circle cx="960" cy="55.6" fill="#ecc94b" r="50"/><path d="m1061.7 91.7c-2.7 0-5.1.5-7.5 1.4-4.1-12.6-15.9-21.7-29.9-21.7-2.5 0-4.9.3-7.2.9-3.7-3.8-8.8-6.2-14.6-6.2-11.2 0-20.3 9.1-20.3 20.3v.6c-11 2.1-19.3 11.8-19.3 23.5 0 .9.1 1.8.2 2.7h119.9v-.1c.1-11.8-9.4-21.4-21.3-21.4z" fill="#fff"/><ellipse cx="1543.1" cy="494.1" fill="#7e8c9b" opacity=".25" rx="9.8" ry="1"/><path d="m1555.3 488.8h-24.6c-1.2 0-2.3-1-2.3-2.3v-16.4c0-1.2 1-2.3 2.3-2.3h24.6c1.2 0 2.3 1 2.3 2.3v16.4c0 1.3-1 2.3-2.3 2.3z" fill="#805ad5"/><path d="m1551.3 482.9s6.3.1 10.7-8" style="fill:none;stroke:#805ad5;stroke-width:1.3553;stroke-linecap:round;stroke-linejoin:round;stroke-miterlimit:10"/><path d="m1534.7 482.9s-6.3.1-10.7-8" style="fill:none;stroke:#805ad5;stroke-width:1.3553;stroke-linecap:round;stroke-linejoin:round;stroke-miterlimit:10"/><path d="m1535.5 484.2s2.5 3.8.5 9.3" style="fill:none;stroke:#805ad5;stroke-width:1.3553;stroke-linecap:round;stroke-linejoin:round;stroke-miterlimit:10"/><path d="m1549.3 484.2s2.5 3.8.5 9.3" style="fill:none;stroke:#805ad5;stroke-width:1.3553;stroke-linecap:round;stroke-linejoin:round;stroke-miterlimit:10"/><path d="m1535.5 482.8c-.5 0-.8-.4-.8-.8v-2.4c0-.5.4-.8.8-.8.5 0 .8.4.8.8v2.4c0 .4-.4.8-.8.8z" fill="#3d356d"/><path d="m1550.6 482.8c-.5 0-.8-.4-.8-.8v-2.4c0-.5.4-.8.8-.8.5 0 .8.4.8.8v2.4c.1.4-.3.8-.8.8z" fill="#3d356d"/><path d="m1543.1 486.7c-2.5 0-4.6-1.1-5-2.5 0-.1-.1-.3-.1-.5 0-1.6 2.3-.8 5.1-.8h.1c2.8 0 5-.8 5 .8-.1 1.7-2.3 3-5.1 3z" fill="#3d356d"/><ellipse cx="1620" cy="456.1" fill="#7e8c9b" opacity=".25" rx="8.2" ry=".9"/><path d="m1609.6 451.7h20.7c1 0 1.9-.9 1.9-1.9v-13.8c0-1-.9-1.9-1.9-1.9h-20.7c-1 0-1.9.9-1.9 1.9v13.8c0 1 .9 1.9 1.9 1.9z" fill="#805ad5"/><path d="m1613 446.7s-5.3.1-9-6.8" style="fill:none;stroke:#805ad5;stroke-width:1.1413;stroke-linecap:round;stroke-linejoin:round;stroke-miterlimit:10"/><path d="m1627 444.9s5.3-.1 9 6.8" style="fill:none;stroke:#805ad5;stroke-width:1.1413;stroke-linecap:round;stroke-linejoin:round;stroke-miterlimit:10"/><path d="m1626.3 447.8s-2.1 3.2-.4 7.8" style="fill:none;stroke:#805ad5;stroke-width:1.1413;stroke-linecap:round;stroke-linejoin:round;stroke-miterlimit:10"/><path d="m1614.7 447.8s-2.1 3.2-.4 7.8" style="fill:none;stroke:#805ad5;stroke-width:1.1413;stroke-linecap:round;stroke-linejoin:round;stroke-miterlimit:10"/><path d="m1626.3 446.6c.4 0 .7-.3.7-.7v-2c0-.4-.3-.7-.7-.7-.4 0-.7.3-.7.7v2c.1.3.4.7.7.7z" fill="#3d356d"/><path d="m1613.6 446.6c.4 0 .7-.3.7-.7v-2c0-.4-.3-.7-.7-.7-.4 0-.7.3-.7.7v2c0 .3.3.7.7.7z" fill="#3d356d"/><path d="m1620 449.9c2.1 0 3.9-.9 4.2-2.1 0-.1 0-.3 0-.4 0-1.4-1.9-.7-4.3-.7-2.3 0-4.2-.7-4.2.7s1.9 2.5 4.3 2.5z" fill="#3d356d"/><path d="m1523.5 243.7c-6.6-.2-13.3 6.4-19.9 6.5 0-4.3 0-8.6 0-13 6.7 4.3 13.3 2 19.9 6.5z" fill="#e53e3e"/><path d="m1716.7 243.7c-6.6-.2-13.3 6.4-19.9 6.5 0-4.3 0-8.6 0-13 6.6 4.3 13.2 2 19.9 6.5z" fill="#e53e3e"/><path d="m461.9 447-14.8-14.8h-19.5l-10.1-10.1h-11.4l-24.2 24.9z" fill="#edf2f7"/><path d="m438.7 447.2-6.2-6.2h-8.2l-4.3-4.3h-4.8l-10.1 10.5z" fill="#cbd5e0" opacity=".5"/><path d="m997 502-58.5 58.5c-11.8 11.8-3.4 32 13.2 32h89.1c16.7 0 25 20.2 13.2 32l-91.9 92-82.4 82.5h131.3l83.2-83.3 117.2-117.3c11.8-11.8 3.4-32-13.2-32h-132.3c-16.5 0-24.9-19.8-13.5-31.7l31.3-32.7z" fill="#63b3ed"/><path d="m0 479.1h289.1c21.1 0 41.3 8.4 56.2 23.3l114.9 114.9c14.9 14.9 35.1 23.3 56.2 23.3h220.7c21.1 0 41.3 8.4 56.2 23.3l135.7 135.7h-929z" fill="#38a169"/><path d="m1166.6 597h-19.2c-2.2 0-4-1.8-4-4 0-2.2 1.8-4 4-4h19.2c2.2 0 4 1.8 4 4 0 2.2-1.8 4-4 4z" fill="#4299e1" opacity=".8"/><path d="m1082.6 643h-19.2c-2.2 0-4-1.8-4-4 0-2.2 1.8-4 4-4h19.2c2.2 0 4 1.8 4 4 0 2.2-1.8 4-4 4z" fill="#4299e1" opacity=".8"/><path d="m1085.8 701.5h-21.6c-2.5 0-4.5-2-4.5-4.5 0-2.5 2-4.5 4.5-4.5h21.6c2.5 0 4.5 2 4.5 4.5 0 2.5-2 4.5-4.5 4.5z" fill="#4299e1" opacity=".8"/><path d="m990.8 747.5h-21.6c-2.5 0-4.5-2-4.5-4.5 0-2.5 2-4.5 4.5-4.5h21.6c2.5 0 4.5 2 4.5 4.5 0 2.5-2 4.5-4.5 4.5z" fill="#4299e1" opacity=".8"/><path d="m1002.7 575.8h-14.4c-1.7 0-3-1.3-3-3 0-1.7 1.3-3 3-3h14.4c1.7 0 3 1.3 3 3 0 1.7-1.3 3-3 3z" fill="#4299e1" opacity=".8"/><path d="m1038.5 522.7h-12c-1.4 0-2.5-1.1-2.5-2.5 0-1.4 1.1-2.5 2.5-2.5h12c1.4 0 2.5 1.1 2.5 2.5 0 1.4-1.2 2.5-2.5 2.5z" fill="#4299e1" opacity=".8"/><ellipse cx="1216.9" cy="622.1" fill="#7e8c9b" opacity=".25" rx="9.8" ry="1"/><path d="m1204.7 616.8h24.6c1.2 0 2.3-1 2.3-2.3v-16.4c0-1.2-1-2.3-2.3-2.3h-24.6c-1.2 0-2.3 1-2.3 2.3v16.4c0 1.3 1 2.3 2.3 2.3z" fill="#805ad5"/><path d="m1208.7 608.9s-6.3-.1-10.7 8" style="fill:none;stroke:#805ad5;stroke-width:1.3553;stroke-linecap:round;stroke-linejoin:round;stroke-miterlimit:10"/><path d="m1225.3 610.9s6.3.1 10.7-8" style="fill:none;stroke:#805ad5;stroke-width:1.3553;stroke-linecap:round;stroke-linejoin:round;stroke-miterlimit:10"/><path d="m1224.5 612.2s-2.5 3.8-.5 9.3" style="fill:none;stroke:#805ad5;stroke-width:1.3553;stroke-linecap:round;stroke-linejoin:round;stroke-miterlimit:10"/><path d="m1210.7 612.2s-2.5 3.8-.5 9.3" style="fill:none;stroke:#805ad5;stroke-width:1.3553;stroke-linecap:round;stroke-linejoin:round;stroke-miterlimit:10"/><path d="m1224.5 610.8c.5 0 .8-.4.8-.8v-2.4c0-.5-.4-.8-.8-.8-.5 0-.8.4-.8.8v2.4c0 .4.4.8.8.8z" fill="#3d356d"/><path d="m1209.4 610.8c.5 0 .8-.4.8-.8v-2.4c0-.5-.4-.8-.8-.8-.5 0-.8.4-.8.8v2.4c-.1.4.3.8.8.8z" fill="#3d356d"/><path d="m1216.9 614.7c2.5 0 4.6-1.1 5-2.5 0-.1.1-.3.1-.5 0-1.6-2.3-.8-5.1-.8 0 0 0 0-.1 0-2.8 0-5-.8-5 .8.1 1.7 2.3 3 5.1 3z" fill="#3d356d"/><path d="m332.9 411.3c-3.9 4-1.6 7.3 5.1 7.3 6.7 0 15.3-3.3 19.1-7.3 5.9-.9 12.3-3.7 15.4-7 3.9-4 1.5-7.3-5.1-7.3h-6.3l13.4-14h-3.9-1l-13.4 14h-6.2c-6.7 0-15.3 3.3-19.1 7.3-3.2 3.3-2.2 6.1 2 7z" opacity=".1"/><path d="m369.7 347h5v36h-5z" fill="#b7791f"/><path d="m373.7 347h1v36h-1z" fill="#975a16"/><path d="m381.2 359h-18c-6.9 0-12.5-5.6-12.5-12.5 0-6.9 5.6-12.5 12.5-12.5h18c6.9 0 12.5 5.6 12.5 12.5 0 6.9-5.7 12.5-12.5 12.5z" fill="#2f855a"/><path d="m384.7 334.5v12c0 6.9-5.6 12.5-12.5 12.5-6.9 0-12.5-5.6-12.5-12.5v-12c0-6.9 5.6-12.5 12.5-12.5 6.8 0 12.5 5.6 12.5 12.5z" fill="#2f855a"/><circle cx="362.9" cy="348.9" fill="#e53e3e" r="1.9"/><circle cx="370.3" cy="333.1" fill="#e53e3e" r="1.9"/><circle cx="386.1" cy="342.7" fill="#e53e3e" r="1.9"/><path d="m361 339h3c1.7 0 3 1.3 3 3h-3c-1.7 0-3-1.3-3-3z" fill="#68d391" opacity=".8"/><path d="m382 348h-3c-1.7 0-3 1.3-3 3h3c1.7 0 3-1.3 3-3z" fill="#68d391" opacity=".8"/><path d="m405.5 728.1c-6.7 6-2.7 10.9 8.9 10.9 11.6 0 26.6-4.9 33.2-10.9 10.2-1.3 21.3-5.5 26.8-10.5 6.7-6 2.7-10.9-8.9-10.9h-11l23.4-21h-6.7-1.7l-23.4 21h-11c-11.6 0-26.6 4.9-33.2 10.9-5.4 4.9-3.7 9.1 3.6 10.5z" opacity=".1"/><path d="m469.4 623.1h8.7v62.6h-8.7z" fill="#b7791f"/><path d="m476.4 623.1h1.7v62.6h-1.7z" fill="#975a16"/><path d="m489.4 644h-31.3c-11.9 0-21.7-9.8-21.7-21.7 0-11.9 9.8-21.7 21.7-21.7h31.3c11.9 0 21.7 9.8 21.7 21.7 0 11.9-9.8 21.7-21.7 21.7z" fill="#2f855a"/><path d="m495.5 601.4v20.9c0 11.9-9.8 21.7-21.7 21.7-11.9 0-21.7-9.8-21.7-21.7v-20.9c0-11.9 9.8-21.7 21.7-21.7 11.9 0 21.7 9.7 21.7 21.7z" fill="#2f855a"/><circle cx="457.7" cy="626.4" fill="#e53e3e" r="3.3"/><circle cx="470.5" cy="599" fill="#e53e3e" r="3.3"/><circle cx="497.9" cy="615.7" fill="#e53e3e" r="3.3"/><path d="m454.4 609.2h5.2c2.9 0 5.2 2.3 5.2 5.2h-5.2c-2.9 0-5.2-2.3-5.2-5.2z" fill="#68d391" opacity=".8"/><path d="m490.8 624.8h-5.2c-2.9 0-5.2 2.3-5.2 5.2h5.2c2.9.1 5.2-2.3 5.2-5.2z" fill="#68d391" opacity=".8"/><path d="m440.3 343.3-12.9 22.7 44.5-22.7c2.8-1.5 2.3-2.9-1-2.9h-8.8l9.8-7.7h-3.3-1.3l-9.8 7.7h-8.8c-3.3 0-7.6 1.5-8.4 2.9z" opacity=".1"/><path d="m467.2 296.8h4.6v35.9h-4.6z" fill="#b7791f"/><path d="m470.4 296.8h1.3v35.9h-1.3z" fill="#975a16"/><path d="m469.5 259.7-15.8 49.7c-1 3.2 1.4 6.4 4.7 6.4h22.1c3.3 0 5.7-3.2 4.7-6.4z" fill="#2f855a"/><path d="m172.8 450.3-13.4 23.4 45.9-23.4c2.9-1.5 2.4-3-1-3h-9.1l10.1-8h-3.3-1.3l-10.1 8h-9.1c-3.5 0-7.9 1.5-8.7 3z" opacity=".1"/><path d="m200.5 402.3h4.7v37.1h-4.7z" fill="#b7791f"/><path d="m203.9 402.3h1.3v37.1h-1.3z" fill="#975a16"/><path d="m202.9 363.9-16.3 51.3c-1 3.3 1.4 6.6 4.9 6.6h22.9c3.4 0 5.9-3.4 4.9-6.6z" fill="#2f855a"/><path d="m516.9 290.4-10 17.6 34.4-17.6c2.2-1.1 1.8-2.3-.8-2.3h-6.8l7.6-6h-2.5-1l-7.6 6h-6.8c-2.5.1-5.8 1.2-6.5 2.3z" opacity=".1"/><path d="m537.8 254.4h3.5v27.8h-3.5z" fill="#b7791f"/><path d="m540.3 254.4h1v27.8h-1z" fill="#975a16"/><path d="m539.5 225.6-12.2 38.5c-.8 2.5 1.1 5 3.6 5h17.1c2.6 0 4.4-2.5 3.6-5z" fill="#2f855a"/><path d="m1888.3 404c3 3.1 1.2 5.6-4 5.6-5.2 0-11.8-2.5-14.8-5.6-4.5-.7-9.5-2.9-11.9-5.4-3-3.1-1.2-5.6 4-5.6h4.9l-10.4-10.8h3 .8l10.4 10.8h4.9c5.2 0 11.8 2.5 14.8 5.6 2.3 2.5 1.6 4.7-1.7 5.4z" opacity=".1"/><path d="m1856 354.3h3.9v27.8h-3.9z" fill="#b7791f"/><path d="m1856 354.3h.8v27.8h-.8z" fill="#975a16"/><path d="m1851 363.6h13.9c5.3 0 9.7-4.3 9.7-9.7 0-5.3-4.3-9.7-9.7-9.7h-13.9c-5.3 0-9.7 4.3-9.7 9.7 0 5.3 4.4 9.7 9.7 9.7z" fill="#2f855a"/><path d="m1848.3 344.6v9.3c0 5.3 4.3 9.7 9.7 9.7 5.3 0 9.7-4.3 9.7-9.7v-9.3c0-5.3-4.3-9.7-9.7-9.7-5.4.1-9.7 4.4-9.7 9.7z" fill="#2f855a"/><circle cx="1858.3" cy="342.7" fill="#e53e3e" r="1.2"/><circle cx="1866.2" cy="357.4" fill="#e53e3e" r="1.2"/><circle cx="1850.5" cy="349.4" fill="#e53e3e" r="1.2"/><path d="m1868.5 348.5h-2c-1.1 0-2 .9-2 2h2c1.1.1 2-.8 2-2z" fill="#68d391" opacity=".8"/><path d="m1848.5 355.9h2c1.1 0 2 .9 2 2h-2c-1.1 0-2-.9-2-2z" fill="#68d391" opacity=".8"/><path d="m1579.9 556.1 15.6-15.6h14.8l15.4-15.3h13.6l20.6 20.6v10.3z" fill="#edf2f7"/><path d="m1616.8 556.1v-7.3l5.1-5.1h8.7v-6.3h7.9l10.3 10.2v8.5z" fill="#e2e8f0"/><path d="m1579.9 556.2 27.6 9.5h14.8l19.4 8.3h13.6l4.6-12.2v-5.6z" opacity=".1"/><path d="m1471 742.1v-10.4l7.3-7.3h19.6v-9.1h11.2l14.7 14.7v12.1z" fill="#edf2f7"/><path d="m975.9 655-41 10h-16l-15 8h-38l-17-18z" opacity=".1"/><path d="m461.9 447.1-28.8 6.8h-19.5l-25.1 10.1h-11.4l4.8-16.9z" opacity=".1"/><path d="m1262.3 480.5 15.1 26.6-52-26.6c-3.3-1.7-2.7-3.4 1.2-3.4h10.3l-11.4-9h3.8 1.5l11.4 9h10.3c3.8 0 8.8 1.7 9.8 3.4z" opacity=".1"/><path d="m1225.4 426.1h5.4v42h-5.4z" fill="#b7791f"/><path d="m1225.5 426.1h1.5v42h-1.5z" fill="#975a16"/><path d="m1228.1 382.6 18.5 58.2c1.2 3.7-1.6 7.5-5.5 7.5h-25.9c-3.9 0-6.7-3.8-5.5-7.5z" fill="#2f855a"/><path d="m1247 463.4c-.2-.6-.5-1.2-.9-1.7-.8-1-2.1-1.7-3.6-1.7-2.1 0-3.9 1.4-4.4 3.4-2.5 0-4.6 2.1-4.6 4.6h12.6 5.4c.1-2.5-2-4.6-4.5-4.6z" fill="#2f855a"/><path d="m1645.9 687.1c-.2-.9-.7-1.8-1.4-2.5-1.3-1.6-3.2-2.6-5.4-2.6-3.2 0-5.9 2.2-6.7 5.1-3.9 0-7 3.2-7 7h19 8.3c.1-3.9-3.1-7-6.8-7z" fill="#2f855a"/><path d="m1653.5 687.1c-.2-.9-.7-1.8-1.4-2.5-1.3-1.6-3.2-2.6-5.4-2.6-3.2 0-5.9 2.2-6.7 5.1-3.9 0-7 3.2-7 7h19 8.3c.2-3.9-3-7-6.8-7z" fill="#2f855a"/><path d="m1338.7 411.7 12.2 21.5-42.1-21.5c-2.7-1.4-2.2-2.8.9-2.8h8.3l-9.3-7.3h3.1 1.2l9.3 7.3h8.3c3.3 0 7.3 1.4 8.1 2.8z" opacity=".1"/><path d="m1308.9 367.6h4.3v34h-4.3z" fill="#b7791f"/><path d="m1308.9 367.6h1.2v34h-1.2z" fill="#975a16"/><path d="m1311.1 332.5 14.9 47.1c1 3-1.3 6.1-4.5 6.1h-20.9c-3.2 0-5.4-3.1-4.5-6.1z" fill="#2f855a"/><path d="m1395.7 550-2.9-30.9c-.2-2.3-2.2-4.1-4.5-4.1h-26.7c-4.3 0-6.2 5.6-2.7 8.1z" opacity=".1"/><path d="m1375.7 445.2-19.7 62.1c-1.3 4 1.7 8 5.9 8h27.7c4.2 0 7.1-4.1 5.9-8z" fill="#2f855a"/><path d="m1483.1 603.3-39.4 124.2c-2.5 8 3.4 16.1 11.8 16.1h55.3c8.3 0 14.3-8.1 11.8-16.1z" fill="#23183e"/><path d="m618.4 623.3 3.1-33.2c.2-2.5 2.3-4.4 4.8-4.4h28.6c4.7 0 6.6 6 2.8 8.7z" opacity=".1"/><path d="m638.7 514.6 20.7 65.2c1.3 4.2-1.8 8.4-6.2 8.4h-29c-4.4 0-7.5-4.3-6.2-8.4z" fill="#2f855a"/><path d="m698.2 501.8 2.2-23.7c.2-1.8 1.6-3.1 3.4-3.1h20.4c3.3 0 4.7 4.2 2 6.2z" opacity=".1"/><path d="m712.7 424.2 14.8 46.5c.9 3-1.3 6-4.4 6h-20.7c-3.1 0-5.3-3-4.4-6z" fill="#2f855a"/><path d="m221.7 703.3 5.1-54.1c.4-4 3.8-7.1 7.8-7.1h46.7c7.6 0 10.8 9.7 4.6 14.2z" opacity=".1"/><path d="m256.7 520 34.5 108.7c2.2 7-3 14.1-10.3 14.1h-48.4c-7.3 0-12.5-7.1-10.3-14.1z" fill="#2f855a"/><path d="m71.2 635.6 4-42.5c.3-3.2 3-5.6 6.2-5.6h36.6c6 0 8.5 7.6 3.7 11.2z" opacity=".1"/><path d="m98.7 491.6 27.1 85.4c1.7 5.5-2.3 11-8.1 11h-38c-5.7 0-9.8-5.6-8.1-11z" fill="#2f855a"/><path d="m778.8 374.5 4.9 15.5c.3 1-.4 2-1.5 2h-6.9c-1 0-1.8-1-1.5-2z" fill="#2f855a"/><path d="m839.8 427.5 4.9 15.5c.3 1-.4 2-1.5 2h-6.9c-1 0-1.8-1-1.5-2z" fill="#2f855a"/><path d="m757.8 389.5 4.9 15.5c.3 1-.4 2-1.5 2h-6.9c-1 0-1.8-1-1.5-2z" fill="#68d391"/><path d="m800.8 418.5 4.9 15.5c.3 1-.4 2-1.5 2h-6.9c-1 0-1.8-1-1.5-2z" fill="#68d391"/><path d="m261.8 214.5 4.9 15.5c.3 1-.4 2-1.5 2h-6.9c-1 0-1.8-1-1.5-2z" fill="#2f855a"/><path d="m174.8 259.5 4.9 15.5c.3 1-.4 2-1.5 2h-6.9c-1 0-1.8-1-1.5-2z" fill="#2f855a"/><path d="m103.8 263.5 4.9 15.5c.3 1-.4 2-1.5 2h-6.9c-1 0-1.8-1-1.5-2z" fill="#2f855a"/><path d="m287.8 264.5 4.9 15.5c.3 1-.4 2-1.5 2h-6.9c-1 0-1.8-1-1.5-2z" fill="#2f855a"/><path d="m61.8 240.5 4.9 15.5c.3 1-.4 2-1.5 2h-6.9c-1 0-1.8-1-1.5-2z" fill="#2f855a"/><path d="m136.8 199.5 4.9 15.5c.3 1-.4 2-1.5 2h-6.9c-1 0-1.8-1-1.5-2z" fill="#2f855a"/><path d="m222.8 245.5 4.9 15.5c.3 1-.4 2-1.5 2h-6.9c-1 0-1.8-1-1.5-2z" fill="#68d391"/><path d="m345.8 245.5 4.9 15.5c.3 1-.4 2-1.5 2h-6.9c-1 0-1.8-1-1.5-2z" fill="#68d391"/><path d="m149.8 322.5 4.9 15.5c.3 1-.4 2-1.5 2h-6.9c-1 0-1.8-1-1.5-2z" fill="#68d391"/><path d="m229.8 304.5 4.9 15.5c.3 1-.4 2-1.5 2h-6.9c-1 0-1.8-1-1.5-2z" fill="#68d391"/><path d="m2553.5 234h128.9v237.6h-128.9z" fill="#7e8c9b" opacity=".9"/><path d="m2682.3 195.5h-63.5-1.7-63.6-21.8l21.8 38.5h128.8l21.8-38.5z" fill="#627184" opacity=".9"/><path d="m2531.7 142h172.4v53.6h-172.4z" fill="#7e8c9b" opacity=".9"/><g fill="#7e8c9b" opacity=".9"><path d="m2531.7 110.2h38.5v31.8h-38.5z"/><path d="m2598.7 110.2h38.5v31.8h-38.5z"/><path d="m2665.6 110.2h38.5v31.8h-38.5z"/></g><path d="m2904.5 234h128.9v237.6h-128.9z" fill="#7e8c9b" opacity=".9"/><path d="m3033.3 195.5h-63.5-1.7-63.6-21.8l21.8 38.5h128.8l21.8-38.5z" fill="#627184" opacity=".9"/><path d="m2882.7 142h172.4v53.6h-172.4z" fill="#7e8c9b" opacity=".9"/><g fill="#7e8c9b" opacity=".9"><path d="m2882.7 110.2h38.5v31.8h-38.5z"/><path d="m2949.7 110.2h38.5v31.8h-38.5z"/><path d="m3016.6 110.2h38.5v31.8h-38.5z"/></g><path d="m42.8 304.5 4.9 15.5c.3 1-.4 2-1.5 2h-6.9c-1 0-1.8-1-1.5-2z" fill="#68d391"/><path d="m194.8 220.5 4.9 15.5c.3 1-.4 2-1.5 2h-6.9c-1 0-1.8-1-1.5-2z" fill="#68d391"/><path d="m28.8 196.5 4.9 15.5c.3 1-.4 2-1.5 2h-6.9c-1 0-1.8-1-1.5-2z" fill="#68d391"/><path d="m1323.7 548.6c-.3-1-.8-1.9-1.4-2.7-1.4-1.7-3.4-2.7-5.7-2.7-3.4 0-6.2 2.3-7.1 5.4-4.1 0-7.3 3.3-7.3 7.4h20.1 8.7c0-4.1-3.3-7.4-7.3-7.4z" fill="#38a169"/><path d="m773.5 500.9c-.2-.7-.5-1.3-1-1.8-.9-1.1-2.4-1.9-4-1.9-2.3 0-4.3 1.6-4.9 3.7-2.8 0-5.1 2.3-5.1 5.1h14 6c.1-2.8-2.2-5.1-5-5.1z" fill="#2f855a"/><path d="m595.5 367h8v10h-8z" fill="#975a16"/><path d="m578.8 367h8v10h-8z" fill="#975a16"/><path d="m562.2 367h8v10h-8z" fill="#975a16"/><path d="m545.5 367h8v10h-8z" fill="#975a16"/><path d="m529.7 514 25.6-36h1.4 3.6l-25.6 36h6.5l25.3-35.6h.9 2.1l-1.5 2h10l1.5-2h.9 2.1l-25.4 35.6h6.5l25.5-35.8h1 4l-25.5 35.8h9.5l-12 16.9-3.6 5.1h-8l3.6-5.1h-8.7l-3.6 5.1h-8l3.6-5.1h-8.7l-3.6 5.1h-8l3.6-5.1h-8.7l-3.6 5.1h-8l3.6-5.1 12-16.9zm16.4-2.8h10l2.4-3.4h-10zm3.2-4.4h10l2.4-3.4h-10zm3.1-4.4h10l2.4-3.4h-10zm3.1-4.4h10l2.4-3.4h-10zm3.1-4.4h10l2.4-3.4h-10zm3.1-4.4h10l2.4-3.4h-10zm5.5-7.7-2.4 3.4h10l2.4-3.4zm-13.1 32.5 1.3-1.8h-10l-1.3 1.8z" opacity=".1"/><path d="m605.7 473.6c-.2-.9-.7-1.6-1.2-2.3-1.2-1.4-2.9-2.3-4.9-2.3-2.9 0-5.4 2-6.1 4.6-3.5 0-6.3 2.9-6.3 6.4h17.4 7.5c-.1-3.5-2.9-6.3-6.4-6.4z" fill="#38a169"/><path d="m557.4 474.4c-.2-.7-.6-1.4-1.1-2-1-1.3-2.6-2.1-4.3-2.1-2.6 0-4.7 1.7-5.4 4.1-3.1 0-5.6 2.5-5.6 5.6h15.3 6.6c.1-3.1-2.4-5.6-5.5-5.6z" fill="#2f855a"/><path d="m433.4 489.4c-.2-.7-.6-1.4-1.1-2-1-1.3-2.6-2.1-4.3-2.1-2.6 0-4.7 1.7-5.4 4.1-3.1 0-5.6 2.5-5.6 5.6h15.3 6.6c.1-3.1-2.4-5.6-5.5-5.6z" fill="#2f855a"/><path d="m189.8 700.1c-.6-2.1-1.6-3.9-2.9-5.5-2.8-3.4-7.1-5.6-11.9-5.6-7 0-12.9 4.7-14.8 11.2-8.4.1-15.2 6.9-15.2 15.3h41.9 18.1c.1-8.5-6.8-15.4-15.2-15.4z" fill="#23183e"/><path d="m738.9 559.8c-.3-1-.7-1.8-1.4-2.6-1.3-1.6-3.3-2.6-5.5-2.6-3.3 0-6 2.2-6.9 5.2-3.9 0-7.1 3.2-7.1 7.2h19.5 8.5c.1-3.9-3.1-7.1-7.1-7.2z" fill="#38a169"/><path d="m516.9 666.4c-.3-1.1-.7-1.9-1.5-2.8-1.4-1.7-3.5-2.8-5.9-2.8-3.5 0-6.4 2.4-7.4 5.6-4.2 0-7.6 3.4-7.6 7.7h20.9 9.1c.1-4.2-3.3-7.6-7.6-7.7z" fill="#2f855a"/><path d="m553.5 474.8h-1.5c-.8 0-1.5.7-1.5 1.5h1.5c.8-.1 1.5-.7 1.5-1.5z" fill="#68d391" opacity=".8"/><path d="m604.5 476.8h-1.5c-.8 0-1.5.7-1.5 1.5h1.5c.8-.1 1.5-.7 1.5-1.5z" fill="#2f855a"/><path d="m600.5 472.8h-1.5c-.8 0-1.5.7-1.5 1.5h1.5c.8-.1 1.5-.7 1.5-1.5z" fill="#2f855a"/><path d="m900 515 1.8-1h-4.4l-1.8 1h-4l1.8-1h-4.4l-1.8 1h-4l1.8-1h-4.4l-1.8 1h-4.1l1.9-1.2 6.2-3.8h4.7l12.9-8h2 .5l-12.9 8h3.2l12.9-8h1 .4l-.7.7h5l.7-.7h1.1.4l-12.9 8h3.3l12.9-8h1.8.7l-12.9 8h4.9l-6.2 3.8-1.9 1.2zm3.6-10.3h5l1.2-.7h-5zm-.3.3-1.2.7h5l1.2-.7zm-1.6 1-1.2.7h5l1.2-.7zm-1.6.7-1.2.7h5l1.2-.7zm-1.6 1-1.2.7h5l1.2-.7zm-1.5 1-1.2.7h5l1.2-.7zm-1.6 1-.6.3h5l.6-.3zm11-6.7-1.2.7h5l1.2-.7z" opacity=".1"/><ellipse cx="475.1" cy="553.1" fill="#7e8c9b" opacity=".25" rx="9" ry="1"/><path d="m486.4 548.2h-22.6c-1.1 0-2.1-.9-2.1-2.1v-15.1c0-1.1.9-2.1 2.1-2.1h22.6c1.1 0 2.1.9 2.1 2.1v15.1c0 1.2-1 2.1-2.1 2.1z" fill="#805ad5"/><path d="m467.3 540.9s-5.8-.1-9.8 7.4" style="fill:none;stroke:#805ad5;stroke-width:1.2483;stroke-linecap:round;stroke-linejoin:round;stroke-miterlimit:10"/><path d="m482.7 540.9s5.8-.1 9.8 7.4" style="fill:none;stroke:#805ad5;stroke-width:1.2483;stroke-linecap:round;stroke-linejoin:round;stroke-miterlimit:10"/><path d="m468.1 544s2.3 3.5.4 8.5" style="fill:none;stroke:#805ad5;stroke-width:1.2483;stroke-linecap:round;stroke-linejoin:round;stroke-miterlimit:10"/><path d="m480.8 544s2.3 3.5.4 8.5" style="fill:none;stroke:#805ad5;stroke-width:1.2483;stroke-linecap:round;stroke-linejoin:round;stroke-miterlimit:10"/><path d="m468.1 542.7c-.4 0-.8-.3-.8-.8v-2.2c0-.4.3-.8.8-.8.4 0 .8.3.8.8v2.2c-.1.4-.4.8-.8.8z" fill="#3d356d"/><path d="m482 542.7c-.4 0-.8-.3-.8-.8v-2.2c0-.4.3-.8.8-.8.4 0 .8.3.8.8v2.2c0 .4-.3.8-.8.8z" fill="#3d356d"/><circle cx="473.6" cy="544.3" fill="#3d356d" r="2.3"/><ellipse cx="392" cy="389.1" fill="#7e8c9b" opacity=".25" rx="4" ry=".5"/><path d="m385.5 383.1 12.3 4.1c.6.2 1.3-.1 1.5-.8l2.7-8.2c.2-.6-.1-1.3-.8-1.5l-12.3-4.1c-.6-.2-1.3.1-1.5.8l-2.7 8.2c-.2.6.2 1.3.8 1.5z" fill="#805ad5"/><path d="m397.1 382.6s3.2 1 4 5.8" style="fill:none;stroke:#805ad5;stroke-width:.7133;stroke-linecap:round;stroke-linejoin:round;stroke-miterlimit:10"/><path d="m388.8 379.8s-3.1-1.1-6.7 2.2" style="fill:none;stroke:#805ad5;stroke-width:.7133;stroke-linecap:round;stroke-linejoin:round;stroke-miterlimit:10"/><path d="m396.1 384.1s-1.9 1.5-1.8 4.5" style="fill:none;stroke:#805ad5;stroke-width:.7133;stroke-linecap:round;stroke-linejoin:round;stroke-miterlimit:10"/><path d="m391.3 383.8s-1.9 1.5-1.8 4.5" style="fill:none;stroke:#805ad5;stroke-width:.7133;stroke-linecap:round;stroke-linejoin:round;stroke-miterlimit:10"/><path d="m396.4 383.4c.2.1.5 0 .5-.3l.4-1.2c.1-.2 0-.5-.3-.5-.2-.1-.5 0-.5.3l-.4 1.2c0 .1.1.4.3.5z" fill="#3d356d"/><path d="m388.8 380.8c.2.1.5 0 .5-.3l.4-1.2c.1-.2 0-.5-.3-.5-.2-.1-.5 0-.5.3l-.4 1.2c0 .2.1.5.3.5z" fill="#3d356d"/><path d="m392 382.2c-.2.7.1 1.4.8 1.7.7.2 1.4-.1 1.7-.8" fill="#3d356d"/><path d="m581.1 451.2-14.5 2.7c-.7.1-1.4-.4-1.6-1.1l-1.8-9.7c-.1-.7.4-1.4 1.1-1.6l14.5-2.7c.7-.1 1.4.4 1.6 1.1l1.8 9.7c.1.8-.4 1.5-1.1 1.6z" fill="#805ad5"/><path d="m577.3 449.7s4.3-1.9 4.8-8.7" style="fill:none;stroke:#805ad5;stroke-width:1.0117;stroke-linecap:round;stroke-linejoin:round;stroke-miterlimit:10"/><path d="m568.6 449.6s2.4 2.5 1.6 6.7" style="fill:none;stroke:#805ad5;stroke-width:1.0117;stroke-linecap:round;stroke-linejoin:round;stroke-miterlimit:10"/><path d="m575.7 448.7s2.4 2.5 1.6 6.7" style="fill:none;stroke:#805ad5;stroke-width:1.0117;stroke-linecap:round;stroke-linejoin:round;stroke-miterlimit:10"/><path d="m574.9 398.3c-.5 0-.9.4-.9.9v5.1c-.8.5-1.6 1.3-2.4 2.7-.1.1 0 .3.1.4h.1c.1 0 .2-.1.2-.1.6-1.1 1.2-1.8 1.9-2.3v.9c0 .5.4.9.9.9h1.7c0 .6.1 1.2.3 2 0 .1.1.2.3.2h.1c.1-.1.2-.2.2-.4-.3-.7-.3-1.3-.3-1.8h5c0 .5.1 1.2.3 1.9v-10.4z" opacity=".15"/><g fill="#38a169"><path d="m1825 437h-4c-2.2 0-4 1.8-4 4h4c2.2 0 4-1.8 4-4z"/><path d="m1868 484h-4c-2.2 0-4 1.8-4 4h4c2.2 0 4-1.8 4-4z"/><path d="m1678 504h4c2.2 0 4 1.8 4 4h-4c-2.2 0-4-1.8-4-4z"/><path d="m1526 438h4c2.2 0 4 1.8 4 4h-4c-2.2 0-4-1.8-4-4z"/><path d="m1325 630h4c2.2 0 4 1.8 4 4h-4c-2.2 0-4-1.8-4-4z"/><path d="m1136 735.5h-5c-2.8 0-5 2.2-5 5h5c2.8 0 5-2.2 5-5z"/><path d="m786.5 615.8h4.5c2.5 0 4.5 2 4.5 4.5h-4.5c-2.5-.1-4.5-2.1-4.5-4.5z"/><path d="m136.7 431.8c-.6-2.2-2.6-3.9-5-3.9 0 2.7 2.1 5 4.8 5.2h.2.2c2.7-.2 4.8-2.4 4.8-5.2-2.4 0-4.4 1.6-5 3.9z"/><path d="m244.5 416.8h4.5c2.5 0 4.5 2 4.5 4.5h-4.5c-2.5-.1-4.5-2.1-4.5-4.5z"/><path d="m74.5 453.8h4.5c2.5 0 4.5 2 4.5 4.5h-4.5c-2.5-.1-4.5-2.1-4.5-4.5z"/><path d="m509.5 570.2h4.5c2.5 0 4.5-2 4.5-4.5h-4.5c-2.5.1-4.5 2.1-4.5 4.5z"/><path d="m661 436.5h3c1.7 0 3-1.3 3-3h-3c-1.7 0-3 1.3-3 3z"/><path d="m481 366h-3c-1.7 0-3-1.3-3-3h3c1.7 0 3 1.3 3 3z"/><path d="m502 416h-3c-1.7 0-3-1.3-3-3h3c1.7 0 3 1.3 3 3z"/><path d="m569 319h-3c-1.7 0-3-1.3-3-3h3c1.7 0 3 1.3 3 3z"/><path d="m1329 478.5h-3c-1.7 0-3 1.3-3 3h3c1.7 0 3-1.3 3-3z"/></g><path d="m395.7 632.3c-.8-3.1-3.6-5.4-7-5.4 0 3.8 3 7 6.8 7.2h.2.2c3.8-.2 6.8-3.4 6.8-7.2-3.4 0-6.2 2.3-7 5.4z" fill="#68d391"/><path d="m700.7 727.3c-.8-3.1-3.6-5.4-7-5.4 0 3.8 3 7 6.8 7.2h.2.2c3.8-.2 6.8-3.4 6.8-7.2-3.4 0-6.2 2.3-7 5.4z" fill="#68d391"/><path d="m320.7 579.3c-.8-3.1-3.6-5.4-7-5.4 0 3.8 3 7 6.8 7.2h.2.2c3.8-.2 6.8-3.4 6.8-7.2-3.4 0-6.2 2.3-7 5.4z" fill="#68d391"/><path d="m151.7 626.3c-.8-3.1-3.6-5.4-7-5.4 0 3.8 3 7 6.8 7.2h.2.2c3.8-.2 6.8-3.4 6.8-7.2-3.4 0-6.2 2.3-7 5.4z" fill="#68d391"/><path d="m315 750h6c3.3 0 6-2.7 6-6h-6c-3.3 0-6 2.7-6 6z" fill="#68d391"/><path d="m43 589h6c3.3 0 6-2.7 6-6h-6c-3.3 0-6 2.7-6 6z" fill="#68d391"/><path d="m191 532h-6c-3.3 0-6-2.7-6-6h6c3.3 0 6 2.7 6 6z" fill="#68d391"/><path d="m543.8 706.3h6c3.3 0 6-2.7 6-6h-6c-3.4 0-6 2.7-6 6z" fill="#68d391"/><path d="m1489.6 742.1v-9.1h13.4v-6l9 9v6.1z" fill="#e2e8f0"/><path d="m1471 742.3v6.9l7.3 4.8h19.6v6h11.2l14.7-9.7v-8z" opacity=".1"/><path d="m2581.1 217.7c-.3-.6-3 0-5.9 1.4-3 1.4-5.2 3-4.9 3.7.3.6 3 0 5.9-1.4 3-1.5 5.2-3.1 4.9-3.7z" fill="#ef8f30"/><path d="m2604.2 243.8h-30.2c-1.5 0-2.8-1.3-2.8-2.8v-20.2c0-1.5 1.3-2.8 2.8-2.8h30.2c1.5 0 2.8 1.3 2.8 2.8v20.2c0 1.5-1.2 2.8-2.8 2.8z" fill="#805ad5"/><path d="m2599.3 236.5s7.8.1 13.1-9.9" style="fill:none;stroke:#805ad5;stroke-width:1.6678;stroke-linecap:round;stroke-linejoin:round;stroke-miterlimit:10"/><path d="m2578.8 236.5s-7.8.1-13.1-9.9" style="fill:none;stroke:#805ad5;stroke-width:1.6678;stroke-linecap:round;stroke-linejoin:round;stroke-miterlimit:10"/><path d="m2579.8 238.1s3.1 4.7.6 11.4" style="fill:none;stroke:#805ad5;stroke-width:1.6678;stroke-linecap:round;stroke-linejoin:round;stroke-miterlimit:10"/><path d="m2596.8 238.1s3.1 4.7.6 11.4" style="fill:none;stroke:#805ad5;stroke-width:1.6678;stroke-linecap:round;stroke-linejoin:round;stroke-miterlimit:10"/><path d="m2579.8 236.3c-.6 0-1-.5-1-1v-3c0-.6.5-1 1-1 .6 0 1 .5 1 1v3c0 .6-.5 1-1 1z" fill="#3d356d"/><path d="m2598.4 236.3c-.6 0-1-.5-1-1v-3c0-.6.5-1 1-1 .6 0 1 .5 1 1v3c.1.6-.4 1-1 1z" fill="#3d356d"/><path d="m2589.1 241.2c-3.1 0-5.7-1.3-6.2-3.1 0-.2-.1-.4-.1-.6 0-2 2.8-1 6.2-1h.1c3.4 0 6.2-1 6.2 1 0 2.1-2.8 3.7-6.2 3.7z" fill="#3d356d"/><path d="m2568.6 218.6-.1-.7c0-.1.1-.2.2-.2l.7.4c.1 0 .2 0 .2-.1l.6-2.9c0-.1.1-.2.2-.1l2.1 1.1c.1.1.1.2 0 .3l-3.7 2.3c-.1 0-.2 0-.2-.1z" fill="#ef8f30"/><path d="m2579 213.7-.5-.5c-.1-.1-.3-.1-.3.1l-.2.8c0 .1-.2.2-.2.1l-2.6-1.4c-.1-.1-.2 0-.2.1l-.5 2.3c0 .1.1.2.2.2l4.2-1.4c.1-.1.1-.2.1-.3z" fill="#ef8f30"/><path d="m2575.1 219.1c3-1.4 5.7-2 5.9-1.4s0 0 0-.1l-1.7-5c-.1-.2-.3-.1-.3 0l-.3 1.2c0 .1-.2.2-.3.1l-1.7-1.9c-.1-.1-.2-.1-.3 0l-.8 2c0 .1-.1.1-.2.1l-3.3-1.7c-.1-.1-.2 0-.2.1l-.8 3.6c0 .1-.1.2-.2.1l-2-.6c-.1 0-.2.1-.2.2l.4 2.5c0 .1-.1.2-.2.2l-1.1-.5c-.1-.1-.3.1-.2.2l2.8 4.5c-.4-.6 1.8-2.2 4.7-3.6z" fill="#fcd61f"/><path d="m3059.5 147.3h7v104.7h-7z" fill="#975a16"/><path d="m2517.7 145.5h7v104.7h-7z" fill="#975a16"/><path d="m2522.9 145.5h1.7v104.7h-1.7z" fill="#744210"/><path d="m3064.8 147.3h1.7v104.7h-1.7z" fill="#744210"/><path d="m2446.8 473.4-38.6 121.6c-2.5 7.8 3.3 15.7 11.5 15.7h54.1c8.2 0 14-7.9 11.5-15.7z" fill="#38a169"/><path d="m2416.7 508.4-28.7 90.6c-1.8 5.8 2.5 11.7 8.6 11.7h40.3c6.1 0 10.4-5.9 8.6-11.7z" fill="#38a169"/><path d="m3113.3 553.8v-23.4c0-12 9.7-21.8 21.8-21.8 12 0 21.8 9.7 21.8 21.8v23.4c0 12-9.7 21.8-21.8 21.8-12.1-.1-21.8-9.8-21.8-21.8z" fill="#38a169"/><path d="m3136.7 575.5v-23.4c0-12 9.7-21.8 21.8-21.8 12 0 21.8 9.7 21.8 21.8v23.4c0 12-9.7 21.8-21.8 21.8-12 0-21.8-9.8-21.8-21.8z" fill="#38a169"/><path d="m2586.1 411.5h413.4v199.1h-413.4z" fill="#718096"/><path d="m2586.1 379.7h38.5v35.1h-38.5z" fill="#718096"/><path d="m2661.4 379.7h38.5v35.1h-38.5z" fill="#718096"/><path d="m2736.7 379.7h38.5v35.1h-38.5z" fill="#718096"/><path d="m2810.4 379.7h38.5v35.1h-38.5z" fill="#718096"/><path d="m2885.7 379.7h38.5v35.1h-38.5z" fill="#718096"/><path d="m2961 379.7h38.5v35.1h-38.5z" fill="#718096"/><path d="m2999.5 373h128.9v237.6h-128.9z" fill="#7e8c9b"/><path d="m2999.5 373h21.8v237.6h-21.8z" fill="#fff" opacity=".15"/><path d="m2457.3 373h128.9v237.6h-128.9z" fill="#7e8c9b"/><path d="m2435.5 249.2h38.5v31.8h-38.5z" fill="#7e8c9b"/><path d="m2502.5 249.2h38.5v31.8h-38.5z" fill="#7e8c9b"/><path d="m2569.4 249.2h38.5v31.8h-38.5z" fill="#7e8c9b"/><path d="m2457.3 373h21.8v237.6h-21.8z" fill="#fff" opacity=".15"/><path d="m2586.1 334.5h-63.6-1.6-63.6-21.8l21.8 38.5h128.8l21.8-38.5z" fill="#627184"/><path d="m2435.5 281h172.4v53.6h-172.4z" fill="#7e8c9b"/><path d="m3128.3 334.5h-63.5-1.7-63.6-21.8l21.8 38.5h128.8l21.8-38.5z" fill="#627184"/><path d="m2977.7 281h172.4v53.6h-172.4z" fill="#7e8c9b"/><path d="m2788.2 481.8c23.4 0 42.3 18.9 42.3 42.3v86.6h-84.6v-86.6c0-23.4 18.9-42.3 42.3-42.3z" fill="#3a4751"/><path d="m2454 593.4c.7-2.3 1.8-4.4 3.2-6.2v-62.8c-18.7 6.4-33 22.6-36.6 42.4-.6 0-1.1 0-1.7 0-22 0-39.9 17.9-39.9 39.9 0 1.3.1 2.6.2 3.9h57.7c0-9.4 7.7-17.1 17.1-17.2z" fill="#68d391"/><path d="m2507.6 588.3c0-.2 0-.5 0-.7 0-21-17-38-38-38-4.3 0-8.5.7-12.3 2v43c2.2-2.6 5.4-4.3 9.1-4.3 5.4 0 9.9 3.6 11.3 8.6 6.5 0 11.7 5.3 11.7 11.8h38.5c-.2-11.6-9-21.1-20.3-22.4z" fill="#68d391"/><path d="m2454 593.4c-9.5.1-17.1 7.7-17.1 17.2h20.4v-23.4c-1.5 1.8-2.6 3.9-3.3 6.2z" fill="#38a169"/><path d="m2487.1 593.4c-2-7.2-8.7-12.5-16.6-12.5-5.4 0-10.2 2.5-13.3 6.3v23.4h47c0-9.4-7.6-17.1-17.1-17.2z" fill="#38a169"/><path d="m3116.5 610.7c1-2.7 1.6-5.5 1.6-8.5 0-13.3-10.8-24.2-24.2-24.2-13.3 0-24.2 10.8-24.2 24.2 0 3 .6 5.9 1.6 8.5z" fill="#68d391"/><circle cx="3127.5" cy="583.1" fill="#68d391" r="24.3"/><path d="m3173.8 563.8c-1.7 0-3.3.1-5 .3-5.5-17.8-21.4-31-40.5-32.7v51.1c.9-.1 1.9-.2 2.8-.2 15.7 0 28.4 12.7 28.4 28.4h61.1c.1-25.9-20.9-46.9-46.8-46.9z" fill="#68d391"/><path d="m3131.2 582.2c-1 0-1.9.1-2.8.2v28.3h31.3c-.1-15.7-12.8-28.5-28.5-28.5z" fill="#38a169"/><path d="m3108.8 593.2c-1.9-.7-3.9-1-6-1-10.2 0-18.5 8.3-18.5 18.5h44v-28.3c-7.9.8-14.9 4.9-19.5 10.8z" fill="#38a169"/><path d="m2587 608.4c-1.3-4.8-5.6-8.4-10.9-8.4 0 6 4.6 10.8 10.5 11.2h.4.4c5.9-.4 10.5-5.3 10.5-11.2-5.3 0-9.7 3.6-10.9 8.4z" fill="#68d391"/><path d="m2977.7 249.2h38.5v31.8h-38.5z" fill="#7e8c9b"/><path d="m3044.7 249.2h38.5v31.8h-38.5z" fill="#7e8c9b"/><path d="m3111.6 249.2h38.5v31.8h-38.5z" fill="#7e8c9b"/><path d="m2646.4 476.8h31.8v11.7h-31.8z" fill="#fff" opacity=".2"/><path d="m2510.8 436.6h31.8v11.7h-31.8z" fill="#fff" opacity=".2"/><path d="m2874 436.6h31.8v11.7h-31.8z" fill="#fff" opacity=".2"/><path d="m2905.8 456.7h31.8v11.7h-31.8z" fill="#fff" opacity=".2"/><path d="m3068.1 428.3h31.8v11.7h-31.8z" fill="#fff" opacity=".2"/><path d="m3116.6 399.8h11.7v11.7h-11.7z" fill="#fff" opacity=".2"/><path d="m2574.4 483.5h11.7v11.7h-11.7z" fill="#fff" opacity=".2"/><path d="m2596.2 291h11.7v11.7h-11.7z" fill="#fff" opacity=".2"/><path d="m2435.5 249.2h21.8v85.3h-21.8z" fill="#fff" opacity=".15"/><path d="m2977.7 249.2h21.8v85.3h-21.8z" fill="#fff" opacity=".15"/><path d="m2837.9 604.7c-2.1-3.9-4.6-6.2-6.8-7.6v-14.1c0-1.4-1.2-2.6-2.6-2.6h-28c-1.4 0-2.6 1.2-2.6 2.6v14.2c-2.2 1.4-4.6 3.7-6.6 7.5-.2.4-.1.8.3 1 .1.1.2.1.4.1.3 0 .5-.1.7-.4 1.6-3 3.5-5 5.2-6.3v2.6c0 1.4 1.2 2.6 2.6 2.6h4.7c-.1 1.6.2 3.5 1 5.6.1.3.4.5.7.5h.3c.4-.2.6-.6.5-1-.7-1.9-.9-3.6-.9-5h14.2c-.1 1.6.2 3.5 1 5.6.1.3.4.5.7.5h.3c.4-.2.6-.6.5-1-.7-1.9-.9-3.6-.9-5h6.1c1.4 0 2.6-1.2 2.6-2.6v-2.9c1.8 1.3 3.8 3.3 5.4 6.4.1.3.4.4.7.4.1 0 .2 0 .4-.1.1-.2.3-.6.1-1z" fill="#45525b"/><path d="m2830.5 491.8h63.6v118.8h-63.6z" fill="#718096"/><path d="m2580.6 163.6c-9.3-2.1-18.6 4.8-27.9 9.1-9.3 4.9-18.6 7.2-27.9 9.1 0-12.1 0-24.2 0-36.4 9.3 4.1 18.6 7.9 27.9 9.1 9.2 1.8 18.5 1 27.9 9.1z" fill="#e53e3e"/><path d="m3122.4 165.5c-9.3-2.1-18.6 4.8-27.9 9.1-9.3 4.9-18.6 7.2-27.9 9.1 0-12.1 0-24.2 0-36.4 9.3 4.1 18.6 7.9 27.9 9.1 9.2 1.8 18.6 1 27.9 9.1z" fill="#e53e3e"/><path d="m563.7 356c-.1-.2-1.1 0-2.1.5-1.1.5-1.8 1.1-1.7 1.3.1.2 1.1 0 2.1-.5s1.8-1.1 1.7-1.3z" fill="#ef8f30"/><path d="m572 365.3h-10.8c-.5 0-1-.4-1-1v-7.2c0-.5.4-1 1-1h10.8c.5 0 1 .4 1 1v7.2c0 .5-.5 1-1 1z" fill="#805ad5"/><path d="m570.2 362.7s2.8 0 4.7-3.5" style="fill:none;stroke:#805ad5;stroke-width:.5944;stroke-linecap:round;stroke-linejoin:round;stroke-miterlimit:10"/><path d="m558.8 365.3s0-2.8 3.5-4.7" style="fill:none;stroke:#805ad5;stroke-width:.5944;stroke-linecap:round;stroke-linejoin:round;stroke-miterlimit:10"/><path d="m563.3 363.3s1.1 1.7.2 4.1" style="fill:none;stroke:#805ad5;stroke-width:.5944;stroke-linecap:round;stroke-linejoin:round;stroke-miterlimit:10"/><path d="m569.3 363.3s1.1 1.7.2 4.1" style="fill:none;stroke:#805ad5;stroke-width:.5944;stroke-linecap:round;stroke-linejoin:round;stroke-miterlimit:10"/><path d="m563.3 362.6c-.2 0-.4-.2-.4-.4v-1.1c0-.2.2-.4.4-.4.2 0 .4.2.4.4v1.1c-.1.3-.2.4-.4.4z" fill="#3d356d"/><path d="m569.9 362.6c-.2 0-.4-.2-.4-.4v-1.1c0-.2.2-.4.4-.4.2 0 .4.2.4.4v1.1c0 .3-.2.4-.4.4z" fill="#3d356d"/><path d="m566.6 364.4c-1.1 0-2-.5-2.2-1.1 0-.1 0-.1 0-.2 0-.7 1-.3 2.2-.3 1.2 0 2.2-.4 2.2.3s-1 1.3-2.2 1.3z" fill="#3d356d"/><path d="m559.3 356.3v-.2s0-.1.1-.1l.2.1h.1l.2-1s.1-.1.1 0l.8.4v.1z" fill="#ef8f30"/><path d="m563 354.6-.2-.2h-.1l-.1.3s-.1.1-.1 0l-.9-.5h-.1l-.2.8s0 .1.1.1z" fill="#ef8f30"/><path d="m561.6 356.5c1.1-.5 2-.7 2.1-.5l-.6-1.8c0-.1-.1-.1-.1 0l-.1.4s-.1.1-.1 0l-.6-.7h-.1l-.3.7h-.1l-1.2-.6h-.1l-.3 1.3s0 .1-.1 0l-.7-.2s-.1 0-.1.1l.1.9s0 .1-.1.1l-.4-.2c-.1 0-.1 0-.1.1l1 1.6c.1-.1.9-.7 1.9-1.2z" fill="#fcd61f"/><path d="m545.5 366h2.5v43h-2.5z" fill="#fff" opacity=".15"/><path d="m895.5 446.3v5.2 17.1h1.5v-17.1-5.2z" fill="#fff" opacity=".15"/><path d="m573.9 359h2.2v.5h-2.2z" fill="#3d356d" transform="matrix(.00130072 -1 1 .00130072 215.0025 933.6834)"/><path d="m576.1 358.7h-2.4c-.2 0-.3-.1-.3-.3 0-.2.1-.3.3-.3h2.4c.2 0 .3.1.3.3 0 .2-.1.3-.3.3z" fill="#f8cd62"/><path d="m574.9 351.2-.2.5-.5.6v5.8h1.4v-5.8z" fill="#3d356d"/><path d="m573.9 358.4c0-.1 0-.1 0 0-.1.1 0 .1 0 .2h.1c-.1-.1-.1-.2-.1-.2z" fill="#ef8f30"/><path d="m574.1 358.4c0-.1 0-.1 0 0-.1-.1-.2-.1-.2 0s0 .1.2 0c-.1.1-.1.1 0 0 0 .1 0 .1 0 0z" fill="#fde5b5"/><path d="m574.9 358.4c0-.1-.1-.1 0 0-.1.1 0 .1 0 .2h.1c-.1-.1-.1-.1-.1-.2z" fill="#ef8f30"/><path d="m575.1 358.5c0-.1 0-.1 0 0-.1-.1-.2-.1-.2 0s0 .1.2 0c-.1 0-.1 0 0 0z" fill="#fde5b5"/><path d="m575.8 358.4c0-.1 0-.1 0 0 0-.1-.1-.1 0 0-.1.1 0 .1 0 .2h.1c-.1-.1-.2-.2-.1-.2z" fill="#ef8f30"/><path d="m575.9 358.5c0-.1 0-.1 0 0-.1-.1-.2-.1-.2 0s0 .1.2 0z" fill="#fde5b5"/><path d="m575.3 360.5h-.7v-.3s0-.1.1-.1h.5s.1 0 .1.1z" fill="#f8cd62"/><path d="m574.7 351.7-.5.6v5.8h.5z" fill="#fff" opacity=".25"/><path d="m1819 471.2 12.5 21.9-42.9-21.9c-2.7-1.4-2.3-2.8 1-2.8h8.5l-9.4-7.5h3.1 1.3l9.4 7.5h8.5c3.1 0 7.2 1.4 8 2.8z" opacity=".1"/><path d="m1788.7 426.4h4.4v34.6h-4.4z" fill="#b7791f"/><path d="m1788.6 426.4h1.3v34.6h-1.3z" fill="#975a16"/><path d="m1790.8 390.6 15.2 47.9c1 3.1-1.3 6.2-4.5 6.2h-21.3c-3.2 0-5.5-3.1-4.5-6.2z" fill="#2f855a"/><path d="m1839.6 640.8 17.8 31.2-61.2-31.2c-3.9-2-3.2-4 1.4-4h12.1l-13.5-10.6h4.5 1.8l13.5 10.6h12.1c4.5 0 10.4 2 11.5 4z" opacity=".1"/><path d="m1796.3 576.7h6.3v49.5h-6.3z" fill="#b7791f"/><path d="m1796.3 576.7h1.8v49.5h-1.8z" fill="#975a16"/><path d="m1799.5 525.6 21.7 68.4c1.4 4.4-1.9 8.8-6.5 8.8h-30.5c-4.6 0-7.9-4.5-6.5-8.8z" fill="#2f855a"/><path d="m0 713.6h298.1c14.7 0 28.8 3 39.2 8.3l48.6 24.8c10.4 5.3 24.5 8.3 39.2 8.3h90.1c14.7 0 28.8-3 39.2-8.3l45.6-23.3c10.4-5.3 24.5-8.3 39.2-8.3h101.1c14.7 0 28.8 3 39.2 8.3l65.6 33.5c10.4 5.3 24.5 8.3 39.2 8.3h116.1c14.7 0 28.8-3 39.2-8.3l2.1-1.1c10.4-5.3 24.5-8.3 39.2-8.3h85.6c14.7 0 28.8-3 39.2-8.3l43.3-22.1c10.4-5.3 24.5-8.3 39.2-8.3h255.4c14.7 0 28.8 3 39.2 8.3l41.2 21c10.4 5.3 24.5 8.3 39.2 8.3h66.5c14.7 0 28.8-3 39.2-8.3l76.2-38.9c10.4-5.3 24.5-8.3 39.2-8.3h36.4v109h-1920.7z" fill="#23183e"/><path d="m760.4 723.4-26-26h-18.9l-17.7-17.8h-44.9l-42.5 43.8z" fill="#23183e"/><path d="m492.7 753c-1.2-4.4-5.2-7.7-10-7.7 0 5.5 4.3 10 9.7 10.3h.3.3c5.4-.4 9.7-4.8 9.7-10.3-4.8 0-8.9 3.3-10 7.7z" fill="#23183e"/><path d="m903.5 762.7c-1.2-4.4-5.2-7.7-10-7.7 0 5.5 4.3 10 9.7 10.3h.3s.2 0 .3 0c5.4-.4 9.7-4.8 9.7-10.3-4.8 0-8.9 3.3-10 7.7z" fill="#23183e"/><path d="m1096.6 745.5c-1.2-4.4-5.2-7.7-10-7.7 0 5.5 4.3 10 9.7 10.3h.3s.2 0 .3 0c5.4-.4 9.7-4.8 9.7-10.3-4.8 0-8.9 3.3-10 7.7z" fill="#23183e"/><path d="m1683.9 744.6c-1.2-4.4-5.2-7.7-10-7.7 0 5.5 4.3 10 9.7 10.3h.3s.2 0 .3 0c5.4-.4 9.7-4.8 9.7-10.3-4.8 0-8.9 3.3-10 7.7z" fill="#23183e"/><path d="m255.7 711c-1.2-4.4-5.2-7.7-10-7.7 0 5.5 4.3 10 9.7 10.3h.3s.2 0 .3 0c5.4-.4 9.7-4.8 9.7-10.3-4.8 0-8.9 3.3-10 7.7z" fill="#23183e"/><path d="m43 711c-1.2-4.4-5.2-7.7-10-7.7 0 5.5 4.3 10 9.7 10.3h.3s.2 0 .3 0c5.4-.4 9.7-4.8 9.7-10.3-4.8 0-8.9 3.3-10 7.7z" fill="#23183e"/><path d="m1466.4 735c-8.3 0-14.3-8.1-11.8-16.1l32.5-102.6-4.1-13-39.4 124.2c-2.5 8 3.4 16.1 11.8 16.1h55.3c5.7 0 10.3-3.8 11.8-8.7-.3 0-.5 0-.8 0z" fill="#fff" opacity=".15"/><path d="m1448.1 648.5-32 100.9c-2 6.5 2.8 13.1 9.6 13.1h44.9c6.8 0 11.6-6.6 9.6-13.1z" fill="#23183e"/><path d="m1434.5 755.5c-6.8 0-11.6-6.6-9.6-13.1l26.4-83.3-3.4-10.6-32 100.9c-2 6.5 2.8 13.1 9.6 13.1h44.9c4.6 0 8.3-3.1 9.6-7.1-.2 0-.4 0-.6 0z" fill="#fff" opacity=".15"/><path d="m1361 709h174v74h-174z" fill="#23183e"/><path d="m703.8 685.6-6-6h-44.9l-42.5 43.8h11.8l36.7-37.8z" fill="#fff" opacity=".15"/><path d="m1273.8 688.4h97c4.9 0 8.9-4 8.9-8.9v-64.9c0-4.9-4-8.9-8.9-8.9h-97c-4.9 0-8.9 4-8.9 8.9v64.9c0 4.9 4 8.9 8.9 8.9z" fill="#805ad5"/><path d="m1289.6 665s-24.9.3-42.1-31.7" style="fill:none;stroke:#805ad5;stroke-width:5.3498;stroke-linecap:round;stroke-linejoin:round;stroke-miterlimit:10"/><path d="m1355.4 656.8s24.9-.3 42.1 31.7" style="fill:none;stroke:#805ad5;stroke-width:5.3498;stroke-linecap:round;stroke-linejoin:round;stroke-miterlimit:10"/><path d="m1347 670.2s9.9 15.1 1.8 36.5" style="fill:none;stroke:#805ad5;stroke-width:5.3498;stroke-linecap:round;stroke-linejoin:round;stroke-miterlimit:10"/><path d="m1297.6 670.3s-9.9 15.1-1.8 36.5" style="fill:none;stroke:#805ad5;stroke-width:5.3498;stroke-linecap:round;stroke-linejoin:round;stroke-miterlimit:10"/><path d="m1870.7 647.3c-.8-3.1-3.6-5.4-7-5.4 0 3.8 3 7 6.8 7.2h.2.2c3.8-.2 6.8-3.4 6.8-7.2-3.4 0-6.2 2.3-7 5.4z" fill="#68d391"/><path d="m1655.7 714.3c-.8-3.1-3.6-5.4-7-5.4 0 3.8 3 7 6.8 7.2h.2.2c3.8-.2 6.8-3.4 6.8-7.2-3.4 0-6.2 2.3-7 5.4z" fill="#68d391"/><path d="m1720 642h6c3.3 0 6-2.7 6-6h-6c-3.3 0-6 2.7-6 6z" fill="#68d391"/><path d="m1570 684h-6c-3.3 0-6-2.7-6-6h6c3.3 0 6 2.7 6 6z" fill="#68d391"/><path d="m1862 559h-6c-3.3 0-6-2.7-6-6h6c3.3 0 6 2.7 6 6z" fill="#68d391"/><path d="m1746 678.1v-10.4l7.3-7.3h19.6v-9.1h11.2l14.7 14.7v12.1z" fill="#edf2f7"/><path d="m1764.6 678.1v-9.1h13.4v-6l9 9v6.1z" fill="#e2e8f0"/><path d="m1746 678.3v6.9l7.3 4.8h19.6v6h11.2l14.7-9.7v-8z" opacity=".1"/></svg>