<svg enable-background="new 0 0 1920 600" viewBox="0 0 1920 600" xmlns="http://www.w3.org/2000/svg" xmlns:xlink="http://www.w3.org/1999/xlink"><clipPath id="a"><path d="m0-374h1919v1079h-1919z"/></clipPath><clipPath id="b"><path d="m0 0h1920v600h-1920z"/></clipPath><path d="m2659-167h263v440h-263z" fill="#7e8c9b"/><path clip-path="url(#a)" d="m1713 116.2-65.3 33.2-169.7-86.1-266.4 135.1-122.5-62.1-127.4 64.6-223.5-113.4-122.6 62.2-280.8-142.5-169.7 86.1-104.3-52.9-280.8 142.4v194.5h834.2l-149.6 75.9h1523.4v-197.4z" fill="#fffaf0" opacity=".5"/><path d="m2553.5 34h128.9v237.6h-128.9z" fill="#7e8c9b" opacity=".9"/><path d="m2682.3-4.5h-63.5-1.7-63.6-21.8l21.8 38.5h128.8l21.8-38.5z" fill="#627184" opacity=".9"/><path d="m2531.7-58h172.4v53.6h-172.4z" fill="#7e8c9b" opacity=".9"/><g fill="#7e8c9b" opacity=".9"><path d="m2531.7-89.8h38.5v31.8h-38.5z"/><path d="m2598.7-89.8h38.5v31.8h-38.5z"/><path d="m2665.6-89.8h38.5v31.8h-38.5z"/></g><path d="m2904.5 34h128.9v237.6h-128.9z" fill="#7e8c9b" opacity=".9"/><path d="m3033.3-4.5h-63.5-1.7-63.6-21.8l21.8 38.5h128.8l21.8-38.5z" fill="#627184" opacity=".9"/><path d="m2882.7-58h172.4v53.6h-172.4z" fill="#7e8c9b" opacity=".9"/><g fill="#7e8c9b" opacity=".9"><path d="m2882.7-89.8h38.5v31.8h-38.5z"/><path d="m2949.7-89.8h38.5v31.8h-38.5z"/><path d="m3016.6-89.8h38.5v31.8h-38.5z"/></g><path d="m2581.1 17.7c-.3-.6-3 0-5.9 1.4-3 1.4-5.2 3-4.9 3.7.3.6 3 0 5.9-1.4 3-1.5 5.2-3.1 4.9-3.7z" fill="#ef8f30"/><path d="m2604.2 43.8h-30.2c-1.5 0-2.8-1.3-2.8-2.8v-20.2c0-1.5 1.3-2.8 2.8-2.8h30.2c1.5 0 2.8 1.3 2.8 2.8v20.2c0 1.5-1.2 2.8-2.8 2.8z" fill="#805ad5"/><path d="m2599.3 36.5s7.8.1 13.1-9.9" style="fill:none;stroke:#805ad5;stroke-width:1.6678;stroke-linecap:round;stroke-linejoin:round;stroke-miterlimit:10"/><path d="m2578.8 36.5s-7.8.1-13.1-9.9" style="fill:none;stroke:#805ad5;stroke-width:1.6678;stroke-linecap:round;stroke-linejoin:round;stroke-miterlimit:10"/><path d="m2579.8 38.1s3.1 4.7.6 11.4" style="fill:none;stroke:#805ad5;stroke-width:1.6678;stroke-linecap:round;stroke-linejoin:round;stroke-miterlimit:10"/><path d="m2596.8 38.1s3.1 4.7.6 11.4" style="fill:none;stroke:#805ad5;stroke-width:1.6678;stroke-linecap:round;stroke-linejoin:round;stroke-miterlimit:10"/><path d="m2579.8 36.3c-.6 0-1-.5-1-1v-3c0-.6.5-1 1-1 .6 0 1 .5 1 1v3c0 .6-.5 1-1 1z" fill="#3d356d"/><path d="m2598.4 36.3c-.6 0-1-.5-1-1v-3c0-.6.5-1 1-1 .6 0 1 .5 1 1v3c.1.6-.4 1-1 1z" fill="#3d356d"/><path d="m2589.1 41.2c-3.1 0-5.7-1.3-6.2-3.1 0-.2-.1-.4-.1-.6 0-2 2.8-1 6.2-1h.1c3.4 0 6.2-1 6.2 1 0 2.1-2.8 3.7-6.2 3.7z" fill="#3d356d"/><path d="m2568.6 18.6-.1-.7c0-.1.1-.2.2-.2l.7.4c.1 0 .2 0 .2-.1l.6-2.9c0-.1.1-.2.2-.1l2.1 1.1c.1.1.1.2 0 .3l-3.7 2.3c-.1 0-.2 0-.2-.1z" fill="#ef8f30"/><path d="m2579 13.7-.5-.5c-.1-.1-.3-.1-.3.1l-.2.8c0 .1-.2.2-.2.1l-2.6-1.4c-.1-.1-.2 0-.2.1l-.5 2.3c0 .1.1.2.2.2l4.2-1.4c.1-.1.1-.2.1-.3z" fill="#ef8f30"/><path d="m2575.1 19.1c3-1.4 5.7-2 5.9-1.4s0 0 0-.1l-1.7-5c-.1-.2-.3-.1-.3 0l-.3 1.2c0 .1-.2.2-.3.1l-1.7-1.9c-.1-.1-.2-.1-.3 0l-.8 2c0 .1-.1.1-.2.1l-3.3-1.7c-.1-.1-.2 0-.2.1l-.8 3.6c0 .1-.1.2-.2.1l-2-.6c-.1 0-.2.1-.2.2l.4 2.5c0 .1-.1.2-.2.2l-1.1-.5c-.1-.1-.3.1-.2.2l2.8 4.5c-.4-.6 1.8-2.2 4.7-3.6z" fill="#fcd61f"/><path d="m3059.5-52.7h7v104.7h-7z" fill="#975a16"/><path d="m2517.7-54.5h7v104.7h-7z" fill="#975a16"/><path d="m2522.9-54.5h1.7v104.7h-1.7z" fill="#744210"/><path d="m3064.8-52.7h1.7v104.7h-1.7z" fill="#744210"/><path d="m2446.8 273.4-38.6 121.6c-2.5 7.8 3.3 15.7 11.5 15.7h54.1c8.2 0 14-7.9 11.5-15.7z" fill="#38a169"/><path d="m2416.7 308.4-28.7 90.6c-1.8 5.8 2.5 11.7 8.6 11.7h40.3c6.1 0 10.4-5.9 8.6-11.7z" fill="#38a169"/><path d="m3113.3 353.8v-23.4c0-12 9.7-21.8 21.8-21.8 12 0 21.8 9.7 21.8 21.8v23.4c0 12-9.7 21.8-21.8 21.8-12.1-.1-21.8-9.8-21.8-21.8z" fill="#38a169"/><path d="m3136.7 375.5v-23.4c0-12 9.7-21.8 21.8-21.8 12 0 21.8 9.7 21.8 21.8v23.4c0 12-9.7 21.8-21.8 21.8-12 0-21.8-9.8-21.8-21.8z" fill="#38a169"/><path d="m2586.1 211.5h413.4v199.1h-413.4z" fill="#718096"/><path d="m2586.1 179.7h38.5v35.1h-38.5z" fill="#718096"/><path d="m2661.4 179.7h38.5v35.1h-38.5z" fill="#718096"/><path d="m2736.7 179.7h38.5v35.1h-38.5z" fill="#718096"/><path d="m2810.4 179.7h38.5v35.1h-38.5z" fill="#718096"/><path d="m2885.7 179.7h38.5v35.1h-38.5z" fill="#718096"/><path d="m2961 179.7h38.5v35.1h-38.5z" fill="#718096"/><path d="m2999.5 173h128.9v237.6h-128.9z" fill="#7e8c9b"/><path d="m2999.5 173h21.8v237.6h-21.8z" fill="#fff" opacity=".15"/><path d="m2457.3 173h128.9v237.6h-128.9z" fill="#7e8c9b"/><path d="m2435.5 49.2h38.5v31.8h-38.5z" fill="#7e8c9b"/><path d="m2502.5 49.2h38.5v31.8h-38.5z" fill="#7e8c9b"/><path d="m2569.4 49.2h38.5v31.8h-38.5z" fill="#7e8c9b"/><path d="m2457.3 173h21.8v237.6h-21.8z" fill="#fff" opacity=".15"/><path d="m2586.1 134.5h-63.6-1.6-63.6-21.8l21.8 38.5h128.8l21.8-38.5z" fill="#627184"/><path d="m2435.5 81h172.4v53.6h-172.4z" fill="#7e8c9b"/><path d="m3128.3 134.5h-63.5-1.7-63.6-21.8l21.8 38.5h128.8l21.8-38.5z" fill="#627184"/><path d="m2977.7 81h172.4v53.6h-172.4z" fill="#7e8c9b"/><path d="m2788.2 281.8c23.4 0 42.3 18.9 42.3 42.3v86.6h-84.6v-86.6c0-23.4 18.9-42.3 42.3-42.3z" fill="#3a4751"/><path d="m2454 393.4c.7-2.3 1.8-4.4 3.2-6.2v-62.8c-18.7 6.4-33 22.6-36.6 42.4-.6 0-1.1 0-1.7 0-22 0-39.9 17.9-39.9 39.9 0 1.3.1 2.6.2 3.9h57.7c0-9.4 7.7-17.1 17.1-17.2z" fill="#68d391"/><path d="m2507.6 388.3c0-.2 0-.5 0-.7 0-21-17-38-38-38-4.3 0-8.5.7-12.3 2v43c2.2-2.6 5.4-4.3 9.1-4.3 5.4 0 9.9 3.6 11.3 8.6 6.5 0 11.7 5.3 11.7 11.8h38.5c-.2-11.6-9-21.1-20.3-22.4z" fill="#68d391"/><path d="m2454 393.4c-9.5.1-17.1 7.7-17.1 17.2h20.4v-23.4c-1.5 1.8-2.6 3.9-3.3 6.2z" fill="#38a169"/><path d="m2487.1 393.4c-2-7.2-8.7-12.5-16.6-12.5-5.4 0-10.2 2.5-13.3 6.3v23.4h47c0-9.4-7.6-17.1-17.1-17.2z" fill="#38a169"/><path d="m3116.5 410.7c1-2.7 1.6-5.5 1.6-8.5 0-13.3-10.8-24.2-24.2-24.2-13.3 0-24.2 10.8-24.2 24.2 0 3 .6 5.9 1.6 8.5z" fill="#68d391"/><circle cx="3127.5" cy="383.1" fill="#68d391" r="24.3"/><path d="m3173.8 363.8c-1.7 0-3.3.1-5 .3-5.5-17.8-21.4-31-40.5-32.7v51.1c.9-.1 1.9-.2 2.8-.2 15.7 0 28.4 12.7 28.4 28.4h61.1c.1-25.9-20.9-46.9-46.8-46.9z" fill="#68d391"/><path d="m3131.2 382.2c-1 0-1.9.1-2.8.2v28.3h31.3c-.1-15.7-12.8-28.5-28.5-28.5z" fill="#38a169"/><path d="m3108.8 393.2c-1.9-.7-3.9-1-6-1-10.2 0-18.5 8.3-18.5 18.5h44v-28.3c-7.9.8-14.9 4.9-19.5 10.8z" fill="#38a169"/><path d="m2587 408.4c-1.3-4.8-5.6-8.4-10.9-8.4 0 6 4.6 10.8 10.5 11.2h.4.4c5.9-.4 10.5-5.3 10.5-11.2-5.3 0-9.7 3.6-10.9 8.4z" fill="#68d391"/><path d="m2977.7 49.2h38.5v31.8h-38.5z" fill="#7e8c9b"/><path d="m3044.7 49.2h38.5v31.8h-38.5z" fill="#7e8c9b"/><path d="m3111.6 49.2h38.5v31.8h-38.5z" fill="#7e8c9b"/><path d="m2646.4 276.8h31.8v11.7h-31.8z" fill="#fff" opacity=".2"/><path d="m2510.8 236.6h31.8v11.7h-31.8z" fill="#fff" opacity=".2"/><path d="m2874 236.6h31.8v11.7h-31.8z" fill="#fff" opacity=".2"/><path d="m2905.8 256.7h31.8v11.7h-31.8z" fill="#fff" opacity=".2"/><path d="m3068.1 228.3h31.8v11.7h-31.8z" fill="#fff" opacity=".2"/><path d="m3116.6 199.8h11.7v11.7h-11.7z" fill="#fff" opacity=".2"/><path d="m2574.4 283.5h11.7v11.7h-11.7z" fill="#fff" opacity=".2"/><path d="m2596.2 91h11.7v11.7h-11.7z" fill="#fff" opacity=".2"/><path d="m2435.5 49.2h21.8v85.3h-21.8z" fill="#fff" opacity=".15"/><path d="m2977.7 49.2h21.8v85.3h-21.8z" fill="#fff" opacity=".15"/><path d="m2837.9 404.7c-2.1-3.9-4.6-6.2-6.8-7.6v-14.1c0-1.4-1.2-2.6-2.6-2.6h-28c-1.4 0-2.6 1.2-2.6 2.6v14.2c-2.2 1.4-4.6 3.7-6.6 7.5-.2.4-.1.8.3 1 .1.1.2.1.4.1.3 0 .5-.1.7-.4 1.6-3 3.5-5 5.2-6.3v2.6c0 1.4 1.2 2.6 2.6 2.6h4.7c-.1 1.6.2 3.5 1 5.6.1.3.4.5.7.5h.3c.4-.2.6-.6.5-1-.7-1.9-.9-3.6-.9-5h14.2c-.1 1.6.2 3.5 1 5.6.1.3.4.5.7.5h.3c.4-.2.6-.6.5-1-.7-1.9-.9-3.6-.9-5h6.1c1.4 0 2.6-1.2 2.6-2.6v-2.9c1.8 1.3 3.8 3.3 5.4 6.4.1.3.4.4.7.4.1 0 .2 0 .4-.1.1-.2.3-.6.1-1z" fill="#45525b"/><path d="m2830.5 291.8h63.6v118.8h-63.6z" fill="#718096"/><path d="m2580.6-36.4c-9.3-2.1-18.6 4.8-27.9 9.1-9.3 4.9-18.6 7.2-27.9 9.1 0-12.1 0-24.2 0-36.4 9.3 4.1 18.6 7.9 27.9 9.1 9.2 1.8 18.5 1 27.9 9.1z" fill="#e53e3e"/><path d="m3122.4-34.5c-9.3-2.1-18.6 4.8-27.9 9.1-9.3 4.9-18.6 7.2-27.9 9.1 0-12.1 0-24.2 0-36.4 9.3 4.1 18.6 7.9 27.9 9.1 9.2 1.8 18.6 1 27.9 9.1z" fill="#e53e3e"/><path clip-path="url(#b)" d="m0 0h1920v696h-1920z" fill="#bee3f8"/><g clip-path="url(#b)" opacity=".8"><path d="m420.7 104.2c-.1-.1-.4.2-.6.6s-.4.8-.3.8c.1 0 .4-.2.6-.6s.4-.8.3-.8z" fill="#ef8f30"/><path d="m425.5 105.5-3.6 2.4c-.2.1-.4.1-.5-.1l-1.6-2.4c-.1-.2-.1-.4.1-.5l3.6-2.4c.2-.1.4-.1.5.1l1.6 2.4c.1.1.1.3-.1.5z" fill="#805ad5"/><g style="fill:none;stroke:#805ad5;stroke-width:.2378;stroke-linecap:round;stroke-linejoin:round;stroke-miterlimit:10"><path d="m424.3 105s.9-.6.8-2.2"/><path d="m420.1 108.5s-.1-1.1 1.3-1.9"/><path d="m422.1 106.7s.7.3 1 1.3"/><path d="m424.2 105.4s.7.3 1 1.3"/></g><path d="m422 106.5c-.1 0-.2 0-.2 0l-.2-.4c0-.1 0-.2 0-.2h.2l.2.4c.1 0 .1.1 0 .2z" fill="#3d356d"/><path d="m424.2 105c-.1 0-.2 0-.2 0l-.2-.4c0-.1 0-.2 0-.2h.2l.2.4c.1.1.1.2 0 .2z" fill="#3d356d"/><path d="m423.5 106.3c-.4.2-.8.3-1 .1 0 0 0 0-.1-.1-.2-.2.3-.3.7-.6.4-.3.7-.6.8-.4.2.4 0 .8-.4 1z" fill="#3d356d"/><path d="m419.3 105.2c-.1-.1-.1-.1-.1-.1h.1l-.2-.4h.3z" fill="#ef8f30"/><path d="m420.1 103.8c-.1 0-.1 0-.1 0v.1h-.4l.1.3.4-.4c0 .1 0 .1 0 0z" fill="#ef8f30"/><path d="m420.1 104.8c.2-.4.5-.7.6-.6l-.6-.5.1.2-.4-.1.1.3-.5.1.2.5-.3.1.2.3h-.2l.7.3c-.3.2-.2-.2.1-.6z" fill="#fcd61f"/></g><g clip-path="url(#b)"><path d="m1528.9 150.8c-.1-.2-1 0-2 .5s-1.7 1-1.6 1.2c.1.2 1 0 2-.5.9-.5 1.7-1 1.6-1.2z" fill="#ef8f30"/><path d="m1536.6 159.5h-10.1c-.5 0-.9-.4-.9-.9v-6.7c0-.5.4-.9.9-.9h10.1c.5 0 .9.4.9.9v6.7c.1.4-.4.9-.9.9z" fill="#805ad5"/><g style="fill:none;stroke:#805ad5;stroke-width:.5548;stroke-linecap:round;stroke-linejoin:round;stroke-miterlimit:10"><path d="m1535 157s2.6 0 4.4-3.3"/><path d="m1528.2 157s-2.6 0-4.4-3.3"/><path d="m1528.5 157.6s1 1.6.2 3.8"/><path d="m1534.1 157.6s1 1.6.2 3.8"/></g><path d="m1528.5 156.9c-.2 0-.4-.2-.4-.4v-1c0-.2.2-.4.4-.4.2 0 .4.2.4.4v1c-.1.3-.2.4-.4.4z" fill="#3d356d"/><path d="m1534.7 156.9c-.2 0-.4-.2-.4-.4v-1c0-.2.2-.4.4-.4.2 0 .4.2.4.4v1c0 .3-.2.4-.4.4z" fill="#3d356d"/><path d="m1531.6 158.6c-1 0-1.9-.5-2.1-1 0-.1 0-.1 0-.2 0-.7.9-.3 2.1-.3 1.1 0 2.1-.4 2.1.3s-1 1.2-2.1 1.2z" fill="#3d356d"/><path d="m1524.8 151.1v-.2s0-.1.1-.1l.2.1h.1l.2-.9s.1-.1.1 0l.7.4v.1z" fill="#ef8f30"/><path d="m1528.2 149.5-.2-.2h-.1l-.1.3s-.1.1-.1 0l-.8-.5h-.1l-.2.7s0 .1.1.1z" fill="#ef8f30"/><path d="m1526.9 151.2c1-.5 1.9-.7 2-.5l-.6-1.7c0-.1-.1-.1-.1 0l-.1.4s-.1.1-.1 0l-.6-.7h-.1l-.3.7h-.1l-1.1-.6h-.1l-.3 1.2s0 .1-.1 0l-.7-.2s-.1 0-.1.1l.1.8s0 .1-.1.1l-.4-.2c-.1 0-.1 0-.1.1l.9 1.5c.4.1 1.1-.5 2-1z" fill="#fcd61f"/></g><path clip-path="url(#b)" d="m1688.1 127.6h2.3v34.8h-2.3z" fill="#975a16"/><g clip-path="url(#b)" opacity=".8"><path d="m715.5 220.3c0-.1-.4 0-.7.2-.4.2-.6.4-.6.4 0 .1.4 0 .7-.2s.6-.4.6-.4z" fill="#ef8f30"/><path d="m718.3 223.5h-3.7c-.2 0-.3-.2-.3-.3v-2.5c0-.2.2-.3.3-.3h3.7c.2 0 .3.2.3.3v2.5c0 .1-.1.3-.3.3z" fill="#805ad5"/><g style="fill:none;stroke:#805ad5;stroke-width:.204;stroke-linecap:round;stroke-linejoin:round;stroke-miterlimit:10"><path d="m717.7 222.6s1 0 1.6-1.2"/><path d="m715.2 222.6s-1 0-1.6-1.2"/><path d="m715.3 222.8s.4.6.1 1.4"/><path d="m717.4 222.8s.4.6.1 1.4"/></g><path d="m715.3 222.5c-.1 0-.1-.1 0 0l-.1-.5c0-.1.1-.1.1-.1.1 0 .1.1.1.1l-.1.5c.1 0 .1 0 0 0z" fill="#3d356d"/><path d="m717.6 222.5c-.1 0-.1-.1 0 0l-.1-.5c0-.1.1-.1.1-.1.1 0 .1.1.1.1l-.1.5c.1 0 .1 0 0 0z" fill="#3d356d"/><path d="m716.5 223.1c-.4 0-.7-.2-.8-.4 0 0 0 0 0-.1 0-.2.3-.1.8-.1.4 0 .8-.1.8.1-.1.3-.4.5-.8.5z" fill="#3d356d"/><path d="m713.9 220.4c0-.1 0-.1 0 0l.2-.5.3.1z" fill="#ef8f30"/><path d="m715.2 219.8c-.1-.1-.1-.1 0 0l-.4-.2-.1.3z" fill="#ef8f30"/><path d="m714.7 220.4c.4-.2.7-.2.7-.2l-.2-.6v.1l-.2-.2-.1.2-.4-.2-.1.4-.4.1v.3l-.1-.1.3.6c-.1 0 .2-.2.5-.4z" fill="#fcd61f"/></g><g clip-path="url(#b)" opacity=".9"><path d="m724.2 211.4h.9v12.8h-.9z" fill="#975a16" opacity=".8"/><path d="m657.9 211.4h.9v12.8h-.9z" fill="#975a16" opacity=".8"/><path d="m658.6 211.4h.2v12.8h-.2z" fill="#744210" opacity=".8"/><path d="m724.9 211.4h.2v12.8h-.2z" fill="#744210" opacity=".8"/><g opacity=".8"><path d="m734.2 249.6-4.7 14.9c-.3 1 .4 1.9 1.4 1.9h6.6c1 0 1.7-1 1.4-1.9z" fill="#2f855a"/><path d="m737.4 253.8-3.5 11.1c-.2.7.3 1.4 1 1.4h4.9c.7 0 1.3-.7 1-1.4z" fill="#2f855a"/><path d="m730 259.4v-2.9c0-1.5 1.2-2.7 2.7-2.7 1.5 0 2.7 1.2 2.7 2.7v2.9c0 1.5-1.2 2.7-2.7 2.7-1.6-.1-2.7-1.2-2.7-2.7z" fill="#2f855a"/><path d="m730.2 257.8v-2.9c0-1.5 1.2-2.7 2.7-2.7 1.5 0 2.7 1.2 2.7 2.7v2.9c0 1.5-1.2 2.7-2.7 2.7-1.5-.1-2.7-1.3-2.7-2.7z" fill="#2f855a"/><path d="m666.3 242h50.6v24.4h-50.6z" fill="#718096"/><path d="m666.3 239.1h4.7v4.3h-4.7z" fill="#718096"/><path d="m675.5 239.1h4.7v4.3h-4.7z" fill="#718096"/><path d="m684.7 239.1h4.7v4.3h-4.7z" fill="#718096"/><path d="m693.8 239.1h4.7v4.3h-4.7z" fill="#718096"/><path d="m703 239.1h4.7v4.3h-4.7z" fill="#718096"/><path d="m712.2 239.1h4.7v4.3h-4.7z" fill="#718096"/><path d="m716.9 237.3h15.8v29.1h-15.8z" fill="#7e8c9b"/><path d="m716.9 237.3h2.7v29.1h-2.7z" fill="#fff" opacity=".15"/><path d="m650.5 237.3h15.8v29.1h-15.8z" fill="#7e8c9b"/><path d="m647.9 224.1h4.7v3.9h-4.7z" fill="#7e8c9b"/><path d="m656.1 224.1h4.7v3.9h-4.7z" fill="#7e8c9b"/><path d="m664.3 224.1h4.7v3.9h-4.7z" fill="#7e8c9b"/><path d="m650.5 237.3h2.7v29.1h-2.7z" fill="#fff" opacity=".15"/><path d="m666.3 233.6h-7.8-.2-7.8-2.6l2.6 4.7h15.8l2.7-4.7z" fill="#627184"/><path d="m647.9 227h21.1v6.6h-21.1z" fill="#7e8c9b"/><path d="m732.7 233.6h-7.8-.2-7.8-2.7l2.7 4.7h15.8l2.6-4.7z" fill="#627184"/><path d="m714.2 227h21.1v6.6h-21.1z" fill="#7e8c9b"/><path d="m691 250.6c2.9 0 5.2 2.3 5.2 5.2v10.6h-10.4v-10.6c.1-2.9 2.4-5.2 5.2-5.2z" fill="#3a4751"/><path d="m650.2 264.2c.1-.3.2-.5.4-.8v-7.7c-2.3.8-4 2.8-4.5 5.2-.1 0-.1 0-.2 0-2.7 0-4.9 2.2-4.9 4.9v.5h7.1c0-1.1.9-2.1 2.1-2.1z" fill="#38a169"/><path d="m656.7 263.6c0-2.7-2.1-4.7-4.6-4.7-.5 0-1 .1-1.5.3v5.3c.3-.3.7-.5 1.1-.5.7 0 1.2.4 1.4 1 .8 0 1.4.6 1.4 1.4h4.7c0-1.5-1.1-2.6-2.5-2.8z" fill="#38a169"/><path d="m650.2 264.2c-1.2 0-2.1.9-2.1 2.1h2.5v-2.9c-.2.3-.4.6-.4.8z" fill="#2f855a"/><path d="m654.2 264.2c-.3-.9-1.1-1.5-2-1.5-.7 0-1.2.3-1.6.8v2.9h5.7c0-1.2-.9-2.2-2.1-2.2z" fill="#2f855a"/><path d="m731.2 266.3c.1-.3.2-.7.2-1 0-1.6-1.3-3-3-3s-3 1.3-3 3c0 .4.1.7.2 1z" fill="#38a169"/><circle cx="731.7" cy="263.4" fill="#38a169" r="3"/><path d="m732.1 262.9c-.1 0-.2 0-.3 0v3.5h3.8c0-2-1.5-3.5-3.5-3.5z" fill="#2f855a"/><path d="m729.4 264.2c-.2-.1-.5-.1-.7-.1-1.2 0-2.3 1-2.3 2.3h5.4v-3.5c-1 .1-1.8.6-2.4 1.3z" fill="#2f855a"/><path d="m710.6 287.7c-.2-.6-.7-1.1-1.4-1.1 0 .8.6 1.4 1.4 1.5.8-.1 1.4-.7 1.4-1.5-.6-.1-1.2.4-1.4 1.1z" fill="#2f855a"/><path d="m666.4 266.1c-.2-.6-.7-1-1.3-1 0 .7.6 1.3 1.3 1.4.7 0 1.3-.6 1.3-1.4-.6-.1-1.1.4-1.3 1z" fill="#38a169"/><path d="m714.2 224.1h4.7v3.9h-4.7z" fill="#7e8c9b"/><path d="m722.4 224.1h4.7v3.9h-4.7z" fill="#7e8c9b"/><path d="m730.6 224.1h4.7v3.9h-4.7z" fill="#7e8c9b"/><g fill="#fff"><path d="m674.5 254.3h3.9v1.4h-3.9z" opacity=".2"/><path d="m659.7 241.6h3.9v1.4h-3.9z" opacity=".2"/><path d="m655.4 255.3h3.9v1.4h-3.9z" opacity=".2"/><path d="m699 245h3.9v1.4h-3.9z" opacity=".2"/><path d="m709.3 251.4h3.9v1.4h-3.9z" opacity=".2"/><path d="m725.3 247.5h3.9v1.4h-3.9z" opacity=".2"/><path d="m731.2 244h1.4v1.4h-1.4z" opacity=".2"/><path d="m664.9 248.2h1.4v1.4h-1.4z" opacity=".2"/><path d="m667.5 227.2h1.4v1.4h-1.4z" opacity=".2"/><path d="m647.9 224h2.7v9.6h-2.7z" opacity=".15"/><path d="m714.2 224h2.7v9.6h-2.7z" opacity=".15"/></g><path d="m696.2 251.8h7.8v14.5h-7.8z" fill="#718096"/></g><g fill="#ed8936"><path d="m665.6 213.7c-2.3-.1-4.6 2.2-6.8 2.2 0-1.5 0-3 0-4.4 2.3 1.4 4.6.6 6.8 2.2z" opacity=".8"/><path d="m731.9 213.7c-2.3-.1-4.6 2.2-6.8 2.2 0-1.5 0-3 0-4.4 2.3 1.4 4.5.6 6.8 2.2z" opacity=".8"/></g></g><path clip-path="url(#b)" d="m0 104.1h289.1c21.1 0 41.3 8.4 56.2 23.3l114.9 114.9c14.9 14.9 35.1 23.3 56.2 23.3h220.7c21.1 0 41.3 8.4 56.2 23.3l135.7 135.7h-929z" fill="#38a169"/><path clip-path="url(#b)" d="m1507.8 127.6h2.3v34.8h-2.3z" fill="#975a16"/><path clip-path="url(#b)" d="m1509.6 127.6h.6v34.8h-.6z" fill="#744210"/><g clip-path="url(#b)" opacity=".9"><path d="m900.4 362h2.6v38.8h-2.6z" fill="#b7791f"/><path d="m902.5 362h.5v38.8h-.5z" fill="#975a16"/><path d="m918 362.1h2.6v38.8h-2.6z" fill="#b7791f"/><path d="m919.8 362.1h.7v38.8h-.7z" fill="#975a16"/><path d="m913.1 364.3h1.6v36.2h-1.6z" fill="#b7791f"/><g fill="#975a16"><path d="m914.2 364.3h.4v36.2h-.4z"/><path d="m907.4 397.4h5.7v1h-5.7z"/><path d="m907.4 393h5.7v1h-5.7z"/><path d="m907.4 388.6h5.7v1h-5.7z"/><path d="m907.4 384.1h5.7v1h-5.7z"/><path d="m907.4 379.7h5.7v1h-5.7z"/><path d="m907.4 375.3h5.7v1h-5.7z"/><path d="m907.4 370.8h5.7v1h-5.7z"/><path d="m907.4 366.4h5.7v1h-5.7z"/></g><path d="m906.4 364.3h1.6v36.2h-1.6z" fill="#b7791f"/><path d="m907.5 364.3h.4v36.2h-.4z" fill="#975a16"/><path d="m895.5 347.5h30v17.1h-30z" fill="#975a16"/><path d="m910.5 354.2c-2.3 0-4.1 1.9-4.1 4.1v6.2h8.3v-6.2c-.1-2.2-1.9-4.1-4.2-4.1z" opacity=".5"/><path d="m921.4 343.3h4.1v5.2h-4.1z" fill="#975a16"/><path d="m912.7 343.3h4.1v5.2h-4.1z" fill="#975a16"/><path d="m904.1 343.3h4.1v5.2h-4.1z" fill="#975a16"/><path d="m895.5 343.3h4.1v5.2h-4.1z" fill="#975a16"/></g><path clip-path="url(#b)" d="m1529.6 215.4h140v64.5h-140z" fill="#7e8c9b"/><path clip-path="url(#b)" d="m1689.8 127.6h.6v34.8h-.6z" fill="#744210"/><g clip-path="url(#b)"><path d="m499.7 107.9h1v14.9h-1z" fill="#975a16" opacity=".8"/><path d="m422.5 107.9h1v14.9h-1z" fill="#975a16" opacity=".8"/><path d="m423.2 107.9h.2v14.9h-.2z" fill="#744210" opacity=".8"/><path d="m500.5 107.9h.2v14.9h-.2z" fill="#744210" opacity=".8"/><g opacity=".8"><path d="m511.4 152.7-5.5 17.3c-.4 1.1.5 2.2 1.6 2.2h7.7c1.2 0 2-1.1 1.6-2.2z" fill="#2f855a"/><path d="m506.4 164.1v-3.3c0-1.7 1.4-3.1 3.1-3.1 1.7 0 3.1 1.4 3.1 3.1v3.3c0 1.7-1.4 3.1-3.1 3.1-1.7 0-3.1-1.3-3.1-3.1z" fill="#2f855a"/><path d="m406.8 166.7v-2.2c0-1.1.9-2 2-2 1.1 0 2 .9 2 2v2.2c0 1.1-.9 2-2 2-1.1 0-2-.9-2-2z" fill="#2f855a"/><path d="m408.8 164.2v-3.2c0-1.7 1.3-3 3-3 1.7 0 3 1.3 3 3v3.2c0 1.7-1.3 3-3 3-1.6 0-3-1.4-3-3z" fill="#2f855a"/><path d="m432.2 143.9h58.9v28.4h-58.9z" fill="#718096"/><path d="m432.2 140.3h5.5v5h-5.5z" fill="#718096"/><path d="m443 140.3h5.5v5h-5.5z" fill="#718096"/><path d="m453.7 140.3h5.5v5h-5.5z" fill="#718096"/><path d="m464.2 140.3h5.5v5h-5.5z" fill="#718096"/><path d="m474.9 140.3h5.5v5h-5.5z" fill="#718096"/><path d="m485.7 140.3h5.5v5h-5.5z" fill="#718096"/><path d="m491.2 138.4h18.4v33.9h-18.4z" fill="#7e8c9b"/><path d="m491.2 138.4h3.1v33.9h-3.1z" fill="#fff" opacity=".15"/><path d="m413.9 138.4h18.4v33.9h-18.4z" fill="#7e8c9b"/><path d="m410.8 122.7h5.5v4.5h-5.5z" fill="#7e8c9b"/><path d="m420.3 122.7h5.5v4.5h-5.5z" fill="#7e8c9b"/><path d="m429.9 122.7h5.5v4.5h-5.5z" fill="#7e8c9b"/><path d="m413.9 138.4h3.1v33.9h-3.1z" fill="#fff" opacity=".15"/><path d="m432.2 133.9h-9-.3-9-3.1l3.1 5.5h18.3l3.1-5.5z" fill="#627184"/><path d="m410.8 126.3h24.6v7.6h-24.6z" fill="#7e8c9b"/><path d="m509.5 133.9h-9-.3-9-3.1l3.1 5.5h18.3l3.1-5.5z" fill="#627184"/><path d="m488.1 126.3h24.6v7.6h-24.6z" fill="#7e8c9b"/><path d="m461 153.9c3.3 0 6 2.7 6 6v12.3h-12v-12.3c0-3.3 2.7-6 6-6z" fill="#3a4751"/><path d="m413.4 170c.1-.3.2-.6.4-.8v-8.2c-2.4.8-4.3 2.9-4.8 5.5-.1 0-.1 0-.2 0-2.9 0-5.2 2.3-5.2 5.2v.5h7.5c.1-1.2 1.1-2.2 2.3-2.2z" fill="#38a169"/><path d="m421 169.1c0-.1 0-.1 0 0 0-3.1-2.4-5.5-5.4-5.5-.6 0-1.2.1-1.8.3v6.1c.3-.4.8-.6 1.3-.6.8 0 1.4.5 1.6 1.2.9 0 1.7.8 1.7 1.7h5.5c0-1.7-1.2-3-2.9-3.2z" fill="#38a169"/><path d="m413.4 169.8c-1.3 0-2.4 1.1-2.4 2.5h2.9v-3.3c-.2.2-.4.5-.5.8z" fill="#2f855a"/><path d="m418.1 169.8c-.3-1-1.2-1.8-2.4-1.8-.8 0-1.4.4-1.9.9v3.3h6.7c.1-1.3-1-2.4-2.4-2.4z" fill="#2f855a"/><path d="m507.9 172.3c.1-.4.2-.8.2-1.2 0-1.9-1.5-3.4-3.4-3.4s-3.4 1.5-3.4 3.4c0 .4.1.8.2 1.2z" fill="#38a169"/><circle cx="508.4" cy="168.8" fill="#38a169" r="3.5"/><path d="m515.9 171.3c.1-.4.2-.8.2-1.2 0-1.9-1.5-3.4-3.4-3.4s-3.4 1.5-3.4 3.4c0 .4.1.8.2 1.2z" fill="#38a169"/><circle cx="515.4" cy="168.8" fill="#38a169" r="3.5"/><path d="m511.3 168.2h.4v4h-4.5c.1-2.2 1.9-4 4.1-4z" fill="#2f855a"/><path d="m514.5 169.8c.3-.1.6-.1.9-.1 1.5 0 2.6 1.2 2.6 2.6h-6.3v-4c1.1 0 2.1.6 2.8 1.5z" fill="#2f855a"/><path d="m483.9 197.1c-.2-.7-.9-1.3-1.7-1.3 0 .9.7 1.7 1.6 1.7h.1.1c.9-.1 1.6-.8 1.6-1.7-.8 0-1.5.5-1.7 1.3z" fill="#2f855a"/><path d="m432.4 171.9c-.2-.7-.8-1.2-1.6-1.2 0 .9.7 1.5 1.5 1.6h.1.1c.8-.1 1.5-.7 1.5-1.6-.8 0-1.5.5-1.6 1.2z" fill="#38a169"/><path d="m488.1 122.7h5.5v4.5h-5.5z" fill="#7e8c9b"/><path d="m497.6 122.7h5.5v4.5h-5.5z" fill="#7e8c9b"/><path d="m507.2 122.7h5.5v4.5h-5.5z" fill="#7e8c9b"/><g fill="#fff"><path d="m439.8 163.2h4.5v1.7h-4.5z" opacity=".2"/><path d="m419.5 143.4h4.5v1.7h-4.5z" opacity=".2"/><path d="m422.5 161.4h4.5v1.7h-4.5z" opacity=".2"/><path d="m444.3 150.4h4.5v1.7h-4.5z" opacity=".2"/><path d="m478.3 149.8h4.5v1.7h-4.5z" opacity=".2"/><path d="m499 156.2h4.5v1.7h-4.5z" opacity=".2"/><path d="m507.9 145.2h1.7v1.7h-1.7z" opacity=".2"/><path d="m430.6 153.1h1.7v1.7h-1.7z" opacity=".2"/><path d="m433.7 127.7h1.7v1.7h-1.7z" opacity=".2"/><path d="m410.8 123h3.1v10.9h-3.1z" opacity=".15"/><path d="m488.1 123h3.1v10.9h-3.1z" opacity=".15"/></g><path d="m467.1 155.3h9.1v16.9h-9.1z" fill="#718096"/></g><g fill="#7f9cf5"><path d="m431.4 110.5c-2.7-.1-5.3 2.5-8 2.6 0-1.7 0-3.5 0-5.2 2.7 1.7 5.4.8 8 2.6z" opacity=".8"/><path d="m508.7 110.5c-2.7-.1-5.3 2.5-8 2.6 0-1.7 0-3.5 0-5.2 2.7 1.7 5.3.8 8 2.6z" opacity=".8"/></g></g><path clip-path="url(#b)" d="m0 297h151.3c40.1 0 78.6-15.9 107-44.3l36.4-36.4c28.4-28.4 66.9-44.3 107-44.3h131.6c40.1 0 78.6 15.9 107 44.3l137.4 137.4c28.4 28.4 66.9 44.3 107 44.3h207.6c40.1 0 78.6-15.9 107-44.3l42.9-42.9c28.4-28.4 66.9-44.3 107-44.3h570.8v429.5h-1920z" fill="#68d391"/><path clip-path="url(#b)" d="m1920 405h-95.1c-19.1 0-37.5 7.6-51 21.1l-104.2 104.2c-13.5 13.5-31.9 21.1-51 21.1h-200.1c-19.1 0-37.5 7.6-51 21.1l-123.1 123.1h674.7z" fill="#38a169"/><g clip-path="url(#b)"><path d="m1484.3 233.9-12.8 40.4c-.8 2.6 1.1 5.2 3.8 5.2h18c2.7 0 4.7-2.6 3.8-5.2z" fill="#2f855a"/><path d="m1474.2 245.6-9.5 30.1c-.7 2 .8 3.9 2.9 3.9h13.4c2.1 0 3.5-2 2.9-3.9z" fill="#2f855a"/><path d="m1706 260.7v-7.8c0-4 3.3-7.3 7.3-7.3 4 0 7.3 3.3 7.3 7.3v7.8c0 4-3.3 7.3-7.3 7.3-4.1-.1-7.3-3.3-7.3-7.3z" fill="#2f855a"/><path d="m1713.8 267.9v-7.8c0-4 3.3-7.3 7.3-7.3 4 0 7.3 3.3 7.3 7.3v7.8c0 4-3.3 7.3-7.3 7.3-4.1 0-7.3-3.3-7.3-7.3z" fill="#2f855a"/><path d="m1530.6 213.4h137.5v66.3h-137.5z" fill="#718096"/><path d="m1530.6 203.7h12.8v11.7h-12.8z" fill="#718096"/><path d="m1555.7 203.7h12.8v11.7h-12.8z" fill="#718096"/><path d="m1580.7 203.7h12.8v11.7h-12.8z" fill="#718096"/><path d="m1605.2 203.7h12.8v11.7h-12.8z" fill="#718096"/><path d="m1630.3 203.7h12.8v11.7h-12.8z" fill="#718096"/><path d="m1655.3 203.7h12.8v11.7h-12.8z" fill="#718096"/><path d="m1668.2 200.6h42.8v79.1h-42.8z" fill="#7e8c9b"/><path d="m1668.2 200.6h7.3v79.1h-7.3z" fill="#fff" opacity=".15"/><path d="m1487.7 200.6h42.8v79.1h-42.8z" fill="#7e8c9b"/><path d="m1480.6 162.2h12.8v10.5h-12.8z" fill="#7e8c9b"/><path d="m1502.8 162.2h12.8v10.5h-12.8z" fill="#7e8c9b"/><path d="m1525.1 162.2h12.8v10.5h-12.8z" fill="#7e8c9b"/><path d="m1487.7 200.6h7.3v79.1h-7.3z" fill="#fff" opacity=".15"/><path d="m1530.6 188.7h-21.1-.6-21.2-7.1l7.1 12.9h42.9l7.3-12.9z" fill="#627184"/><path d="m1480.6 171.8h57.3v17.8h-57.3z" fill="#7e8c9b"/><path d="m1711 188.7h-21.2-.6-21-7.3l7.3 12.9h42.8l7.2-12.9z" fill="#627184"/><path d="m1660.9 171.8h57.3v17.8h-57.3z" fill="#7e8c9b"/><path d="m1597.8 236.7c7.7 0 14.1 6.3 14.1 14.1v28.7h-28.2v-28.7c.1-7.7 6.3-14.1 14.1-14.1z" fill="#3a4751"/><path d="m1486.6 273.9c.2-.7.6-1.5 1.1-2.1v-20.9c-6.3 2.1-11 7.5-12.2 14.1-.2 0-.4 0-.6 0-7.4 0-13.3 6-13.3 13.3 0 .5 0 .8.1 1.3h19.2c.1-3.1 2.6-5.7 5.7-5.7z" fill="#38a169"/><path d="m1504.4 272.2c0-.1 0-.2 0-.2 0-7-5.7-12.7-12.7-12.7-1.4 0-2.8.3-4.1.7v14.3c.7-.8 1.8-1.4 3-1.4 1.8 0 3.3 1.2 3.7 2.9 2.1 0 3.9 1.8 3.9 3.9h12.8c.2-3.9-2.7-7-6.6-7.5z" fill="#38a169"/><path d="m1486.6 273.9c-3.2 0-5.7 2.6-5.7 5.7h6.8v-7.8c-.4.6-.8 1.3-1.1 2.1z" fill="#2f855a"/><path d="m1497.7 273.9c-.7-2.4-2.9-4.2-5.5-4.2-1.8 0-3.4.8-4.4 2.1v7.8h15.6c-.1-3.1-2.6-5.7-5.7-5.7z" fill="#2f855a"/><path d="m1707.1 279.7c.4-.8.6-1.9.6-2.8 0-4.5-3.6-8-8-8s-8 3.6-8 8c0 1 .2 2 .6 2.8z" fill="#38a169"/><circle cx="1710.7" cy="270.4" fill="#38a169" r="8"/><path d="m1726.1 264c-.6 0-1.1 0-1.7.1-1.9-5.9-7.1-10.4-13.4-10.9v17.1c.3 0 .7-.1.9-.1 5.2 0 9.4 4.2 9.4 9.4h20.3c.1-8.6-6.9-15.6-15.5-15.6z" fill="#38a169"/><path d="m1711.9 270.2c-.3 0-.7 0-.9.1v9.4h10.4c0-5.2-4.2-9.5-9.5-9.5z" fill="#2f855a"/><path d="m1704.5 273.8c-.7-.2-1.3-.4-2-.4-3.4 0-6.2 2.7-6.2 6.2h14.7v-9.3c-2.6.2-5 1.5-6.5 3.5z" fill="#2f855a"/><path d="m1530.9 278.9c-.4-1.6-1.9-2.8-3.6-2.8 0 2 1.6 3.6 3.5 3.7h.1.1c2-.1 3.5-1.8 3.5-3.7-1.8 0-3.2 1.2-3.6 2.8z" fill="#38a169"/><path d="m1660.9 162.2h12.8v10.5h-12.8z" fill="#7e8c9b"/><path d="m1683.2 162.2h12.8v10.5h-12.8z" fill="#7e8c9b"/><path d="m1705.4 162.2h12.8v10.5h-12.8z" fill="#7e8c9b"/><g fill="#fff"><path d="m1550.6 235.1h10.5v3.9h-10.5z" opacity=".2"/><path d="m1505.6 221.7h10.5v3.9h-10.5z" opacity=".2"/><path d="m1626.3 221.7h10.5v3.9h-10.5z" opacity=".2"/><path d="m1637 228.4h10.5v3.9h-10.5z" opacity=".2"/><path d="m1690.9 218.9h10.5v3.9h-10.5z" opacity=".2"/><path d="m1707.1 209.5h3.9v3.9h-3.9z" opacity=".2"/><path d="m1526.8 237.3h3.9v3.9h-3.9z" opacity=".2"/><path d="m1533.9 173.3h3.9v3.9h-3.9z" opacity=".2"/><path d="m1480.6 162h7.3v27.6h-7.3z" opacity=".15"/><path d="m1660.9 162h7.3v27.6h-7.3z" opacity=".15"/></g><path d="m1614.4 277.6c-.7-1.3-1.5-2.1-2.2-2.5v-4.7c0-.5-.4-.8-.8-.8h-9.3c-.5 0-.8.4-.8.8v4.8c-.7.5-1.5 1.2-2.2 2.5-.1.1 0 .3.1.4h.1c.1 0 .2-.1.2-.1.6-1 1.1-1.7 1.8-2.1v.8c0 .5.4.8.8.8h1.6c0 .6.1 1.1.3 1.9 0 .1.1.2.3.2h.1c.1-.1.2-.2.2-.4-.3-.7-.3-1.2-.3-1.7h4.7c0 .6.1 1.1.3 1.9 0 .1.1.2.3.2h.1c.1-.1.2-.2.2-.4-.3-.7-.3-1.2-.3-1.7h2.1c.5 0 .8-.4.8-.8v-.9c.6.5 1.2 1.1 1.8 2.1 0 .1.1.1.2.1h.1c-.2-.1-.2-.2-.2-.4z" fill="#45525b"/><path d="m1611.9 240.1h21.2v39.5h-21.2z" fill="#718096"/></g><path clip-path="url(#b)" d="m1538.1 456c-.6-2.2-2.6-3.9-5-3.9 0 2.7 2.1 5 4.8 5.2h.2s.1 0 .2 0c2.7-.2 4.8-2.4 4.8-5.2-2.4.1-4.4 1.7-5 3.9z" fill="#38a169"/><path clip-path="url(#b)" d="m1772.1 369c-.6-2.2-2.6-3.9-5-3.9 0 2.7 2.1 5 4.8 5.2h.2s.1 0 .2 0c2.7-.2 4.8-2.4 4.8-5.2-2.4.1-4.4 1.7-5 3.9z" fill="#38a169"/><path clip-path="url(#b)" d="m1432.7 489.8c-.7-2.7-3.1-4.6-6-4.6 0 3.3 2.6 6 5.8 6.2h.2s.1 0 .2 0c3.2-.2 5.8-2.9 5.8-6.2-2.9-.1-5.3 1.9-6 4.6z" fill="#38a169"/><path clip-path="url(#b)" d="m1432.7 442.8c-.6-2.2-2.6-3.9-5-3.9 0 2.7 2.1 5 4.8 5.2h.2s.1 0 .2 0c2.7-.2 4.8-2.4 4.8-5.2-2.4 0-4.4 1.7-5 3.9z" fill="#38a169"/><path clip-path="url(#b)" d="m683.4 413c-.6-2.2-2.6-3.9-5-3.9 0 2.7 2.1 5 4.8 5.2h.2.2c2.7-.2 4.8-2.4 4.8-5.2-2.4.1-4.4 1.7-5 3.9z" fill="#38a169"/><path clip-path="url(#b)" d="m311.4 252.8c-.5-1.8-2.1-3.1-4-3.1 0 2.2 1.7 4 3.9 4.1h.1.1c2.2-.1 3.9-1.9 3.9-4.1-1.9 0-3.5 1.3-4 3.1z" fill="#38a169"/><path clip-path="url(#b)" d="m25.4 313.8c-.5-1.8-2.1-3.1-4-3.1 0 2.2 1.7 4 3.9 4.1h.1.1c2.2-.1 3.9-1.9 3.9-4.1-1.9 0-3.5 1.3-4 3.1z" fill="#38a169"/><path clip-path="url(#b)" d="m1219.7 565c-.7-2.7-3.1-4.6-6-4.6 0 3.3 2.6 6 5.8 6.2h.2s.1 0 .2 0c3.2-.2 5.8-2.9 5.8-6.2-2.9 0-5.3 1.9-6 4.6z" fill="#38a169"/><path clip-path="url(#b)" d="m1103.7 414.8c-.6-2.2-2.6-3.9-5-3.9 0 2.7 2.1 5 4.8 5.2h.2s.1 0 .2 0c2.7-.2 4.8-2.4 4.8-5.2-2.4 0-4.4 1.6-5 3.9z" fill="#38a169"/><path clip-path="url(#b)" d="m839.7 445.8c-.6-2.2-2.6-3.9-5-3.9 0 2.7 2.1 5 4.8 5.2h.2.2c2.7-.2 4.8-2.4 4.8-5.2-2.4 0-4.4 1.6-5 3.9z" fill="#38a169"/><path clip-path="url(#b)" d="m511.7 470.8c-.6-2.2-2.6-3.9-5-3.9 0 2.7 2.1 5 4.8 5.2h.2s.1 0 .2 0c2.7-.2 4.8-2.4 4.8-5.2-2.4 0-4.4 1.6-5 3.9z" fill="#38a169"/><path clip-path="url(#b)" d="m725.7 466.8c-.6-2.2-2.6-3.9-5-3.9 0 2.7 2.1 5 4.8 5.2h.2.2c2.7-.2 4.8-2.4 4.8-5.2-2.4 0-4.4 1.6-5 3.9z" fill="#38a169"/><path clip-path="url(#b)" d="m972.4 521.5-20.8-20.8h-15.1l-14.2-14.2h-35.9l-34 35z" fill="#edf2f7"/><path clip-path="url(#b)" d="m956.1 521.5-15.1-15.2h-11l-10.4-10.3h-26.2l-24.8 25.5z" fill="#e2e8f0"/><path clip-path="url(#b)" d="m943.2 521.5-10.7-10.7h-7.7l-7.3-7.3h-18.4l-17.5 18z" fill="#cbd5e0" opacity=".5"/><g clip-path="url(#b)"><path d="m555 300h5v75h-5z" fill="#b7791f"/><path d="m559 300h1v75h-1z" fill="#975a16"/></g><g clip-path="url(#b)"><path d="m589 300.3h5v75h-5z" fill="#b7791f"/><path d="m592.5 300.3h1.4v75h-1.4z" fill="#975a16"/></g><g clip-path="url(#b)"><path d="m579.5 304.5h3v70h-3z" fill="#b7791f"/><g fill="#975a16"><path d="m581.6 304.5h.9v70h-.9z"/><path d="m568.5 368.5h11v2h-11z"/><path d="m568.5 359.9h11v2h-11z"/><path d="m568.5 351.4h11v2h-11z"/><path d="m568.5 342.8h11v2h-11z"/><path d="m568.5 334.2h11v2h-11z"/><path d="m568.5 325.6h11v2h-11z"/><path d="m568.5 317.1h11v2h-11z"/><path d="m568.5 308.5h11v2h-11z"/></g><path d="m566.5 304.5h3v70h-3z" fill="#b7791f"/><path d="m568.6 304.5h.9v70h-.9z" fill="#975a16"/></g><path clip-path="url(#b)" d="m545.5 272h58v33h-58z" fill="#975a16"/><path clip-path="url(#b)" d="m574.5 285c-4.4 0-8 3.6-8 8v12h16v-12c0-4.4-3.6-8-8-8z" opacity=".5"/><path clip-path="url(#b)" d="m1752.5 41.6c.1-.8.2-1.5.2-2.2 0-11-8.9-19.9-19.9-19.9-2.8 0-5.5.5-7.8 1.6-4.4-8.5-13.2-14.2-23.3-14.2-11.6 0-21.5 7.6-24.9 18.1-1.9-.7-4-1.2-6.2-1.2-9.8 0-17.8 7.9-17.8 17.8v.1z" fill="#fff"/><path clip-path="url(#b)" d="m139.8 34c-.1-.5-.1-1-.1-1.6 0-7.7 6.2-13.9 13.9-13.9 2 0 3.8.4 5.5 1.1 3.1-5.9 9.2-9.9 16.4-9.9 8.2 0 15.1 5.3 17.5 12.7 1.3-.5 2.8-.8 4.3-.8 6.9 0 12.4 5.6 12.4 12.4z" fill="#fff"/><path clip-path="url(#b)" d="m558.1 61c-.1-.6-.1-1.4-.1-2.1 0-9.9 8-17.9 17.9-17.9 2.5 0 4.9.5 7 1.4 4-7.6 11.9-12.8 21-12.8 10.5 0 19.4 6.8 22.4 16.3 1.7-.6 3.6-1 5.6-1 8.8 0 16 7.2 16 16v.1z" fill="#fff"/><circle clip-path="url(#b)" cx="960" cy="57" fill="#ecc94b" r="50"/><path clip-path="url(#b)" d="m1058.5 91.5c-2.4 0-4.7.5-6.8 1.3-3.8-11.5-14.6-19.9-27.4-19.9-2.3 0-4.5.2-6.6.8-3.4-3.5-8.1-5.7-13.4-5.7-10.3 0-18.6 8.3-18.6 18.6v.5c-10.1 2-17.7 10.8-17.7 21.5 0 .9.1 1.6.2 2.5h109.8v-.1c.1-10.7-8.6-19.5-19.5-19.5z" fill="#fff"/><g clip-path="url(#b)"><ellipse cx="1543.1" cy="388.8" fill="#7e8c9b" opacity=".25" rx="8.8" ry=".9"/><path d="m1554 384h-22c-1.1 0-2.1-.9-2.1-2.1v-14.7c0-1.1.9-2.1 2.1-2.1h22c1.1 0 2.1.9 2.1 2.1v14.8c0 1.1-.9 2-2.1 2z" fill="#805ad5"/><g style="fill:none;stroke:#805ad5;stroke-width:1.2126;stroke-linecap:round;stroke-linejoin:round;stroke-miterlimit:10"><path d="m1550.4 378.7s5.6.1 9.6-7.2"/><path d="m1535.6 378.7s-5.6.1-9.6-7.2"/><path d="m1536.3 379.9s2.2 3.4.4 8.3"/><path d="m1548.6 379.9s2.2 3.4.4 8.3"/></g><path d="m1536.3 378.7c-.4 0-.7-.4-.7-.7v-2.1c0-.4.4-.7.7-.7.4 0 .7.4.7.7v2.1c0 .3-.4.7-.7.7z" fill="#3d356d"/><path d="m1549.8 378.7c-.4 0-.7-.4-.7-.7v-2.1c0-.4.4-.7.7-.7.4 0 .7.4.7.7v2.1c.1.3-.3.7-.7.7z" fill="#3d356d"/><path d="m1543.1 382.1c-2.2 0-4.1-1-4.5-2.2 0-.1-.1-.3-.1-.4 0-1.4 2.1-.7 4.6-.7h.1c2.5 0 4.5-.7 4.5.7-.1 1.5-2.1 2.6-4.6 2.6z" fill="#3d356d"/></g><g clip-path="url(#b)"><ellipse cx="1620" cy="350.8" fill="#7e8c9b" opacity=".25" rx="7.2" ry=".8"/><path d="m1610.9 346.9h18.1c.9 0 1.7-.8 1.7-1.7v-12.1c0-.9-.8-1.7-1.7-1.7h-18.1c-.9 0-1.7.8-1.7 1.7v12.1c0 .9.8 1.7 1.7 1.7z" fill="#805ad5"/><g style="fill:none;stroke:#805ad5;stroke-width:.9986;stroke-linecap:round;stroke-linejoin:round;stroke-miterlimit:10"><path d="m1613.9 342.6s-4.6.1-7.9-6"/><path d="m1626.1 341s4.6-.1 7.9 6"/><path d="m1625.5 343.5s-1.8 2.8-.4 6.8"/><path d="m1615.4 343.5s-1.8 2.8-.3 6.8"/></g><path d="m1625.5 342.5c.3 0 .6-.3.6-.6v-1.8c0-.4-.3-.6-.6-.6-.4 0-.6.3-.6.6v1.8c.1.2.3.6.6.6z" fill="#3d356d"/><path d="m1614.4 342.5c.3 0 .6-.3.6-.6v-1.8c0-.4-.3-.6-.6-.6-.4 0-.6.3-.6.6v1.8c0 .2.2.6.6.6z" fill="#3d356d"/><path d="m1620 345.4c1.8 0 3.4-.8 3.7-1.8 0-.1 0-.3 0-.4 0-1.2-1.7-.6-3.8-.6-2 0-3.7-.6-3.7.6s1.7 2.2 3.8 2.2z" fill="#3d356d"/></g><g clip-path="url(#b)"><path d="m1528.7 133.7c-6.2-.2-12.4 6-18.6 6.1 0-4 0-8 0-12.1 6.3 3.9 12.5 1.8 18.6 6z" fill="#e53e3e"/></g><g clip-path="url(#b)"><path d="m1709 133.7c-6.2-.2-12.4 6-18.6 6.1 0-4 0-8 0-12.1 6.2 3.9 12.4 1.8 18.6 6z" fill="#e53e3e"/></g><path clip-path="url(#b)" d="m461.9 343-14.8-14.8h-19.5l-10.1-10.1h-11.4l-24.2 24.9z" fill="#edf2f7"/><path clip-path="url(#b)" d="m438.7 343.2-6.2-6.2h-8.2l-4.3-4.3h-4.8l-10.1 10.5z" fill="#cbd5e0" opacity=".5"/><path clip-path="url(#b)" d="m997 398-58.5 58.5c-11.8 11.8-3.4 32 13.2 32h89.1c16.7 0 25 20.2 13.2 32l-91.9 92-82.4 82.5h131.3l83.2-83.3 117.2-117.3c11.8-11.8 3.4-32-13.2-32h-132.3c-16.5 0-24.9-19.8-13.5-31.7l31.3-32.7z" fill="#63b3ed"/><path clip-path="url(#b)" d="m0 375.1h289.1c21.1 0 41.3 8.4 56.2 23.3l114.9 114.9c14.9 14.9 35.1 23.3 56.2 23.3h220.7c21.1 0 41.3 8.4 56.2 23.3l135.7 135.7h-929z" fill="#38a169"/><path clip-path="url(#b)" d="m1115.8 486.4h-16.9c-1.9 0-3.5-1.6-3.5-3.5 0-1.9 1.6-3.5 3.5-3.5h16.9c1.9 0 3.5 1.6 3.5 3.5 0 2-1.6 3.5-3.5 3.5z" fill="#4299e1" opacity=".8"/><path clip-path="url(#b)" d="m1162.2 511.3h-18.4c-2.1 0-3.8-1.7-3.8-3.8 0-2.1 1.7-3.8 3.8-3.8h18.4c2.1 0 3.8 1.7 3.8 3.8 0 2-1.7 3.8-3.8 3.8z" fill="#4299e1" opacity=".8"/><path clip-path="url(#b)" d="m1085.8 568.5h-21.6c-2.5 0-4.5-2-4.5-4.5 0-2.5 2-4.5 4.5-4.5h21.6c2.5 0 4.5 2 4.5 4.5 0 2.5-2 4.5-4.5 4.5z" fill="#4299e1" opacity=".8"/><path clip-path="url(#b)" d="m1089.4 530h-19.8c-2.3 0-4.1-1.8-4.1-4.1 0-2.3 1.8-4.1 4.1-4.1h19.8c2.3 0 4.1 1.8 4.1 4.1.1 2.3-1.8 4.1-4.1 4.1z" fill="#4299e1" opacity=".8"/><path clip-path="url(#b)" d="m1002.7 456.8h-14.4c-1.7 0-3-1.3-3-3 0-1.7 1.3-3 3-3h14.4c1.7 0 3 1.3 3 3 0 1.7-1.3 3-3 3z" fill="#4299e1" opacity=".8"/><path clip-path="url(#b)" d="m1038.5 418.7h-12c-1.4 0-2.5-1.1-2.5-2.5 0-1.4 1.1-2.5 2.5-2.5h12c1.4 0 2.5 1.1 2.5 2.5 0 1.4-1.2 2.5-2.5 2.5z" fill="#4299e1" opacity=".8"/><g clip-path="url(#b)"><ellipse cx="1226.9" cy="487.8" fill="#7e8c9b" opacity=".25" rx="8.8" ry=".9"/><path d="m1216 483h22c1.1 0 2.1-.9 2.1-2.1v-14.7c0-1.1-.9-2.1-2.1-2.1h-22c-1.1 0-2.1.9-2.1 2.1v14.8c0 1.1.9 2 2.1 2z" fill="#805ad5"/><g style="fill:none;stroke:#805ad5;stroke-width:1.2126;stroke-linecap:round;stroke-linejoin:round;stroke-miterlimit:10"><path d="m1219.6 476s-5.6-.1-9.6 7.2"/><path d="m1234.4 477.7s5.6.1 9.6-7.2"/><path d="m1233.7 478.9s-2.2 3.4-.4 8.3"/><path d="m1221.4 478.9s-2.2 3.4-.4 8.3"/></g><path d="m1233.7 477.7c.4 0 .7-.4.7-.7v-2.1c0-.4-.4-.7-.7-.7-.4 0-.7.4-.7.7v2.1c0 .3.4.7.7.7z" fill="#3d356d"/><path d="m1220.2 477.7c.4 0 .7-.4.7-.7v-2.1c0-.4-.4-.7-.7-.7-.4 0-.7.4-.7.7v2.1c-.1.3.3.7.7.7z" fill="#3d356d"/><path d="m1226.9 481.1c2.2 0 4.1-1 4.5-2.2 0-.1.1-.3.1-.4 0-1.4-2.1-.7-4.6-.7 0 0 0 0-.1 0-2.5 0-4.5-.7-4.5.7.1 1.5 2.1 2.6 4.6 2.6z" fill="#3d356d"/></g><path clip-path="url(#b)" d="m332.9 307.3c-3.9 4-1.6 7.3 5.1 7.3 6.7 0 15.3-3.3 19.1-7.3 5.9-.9 12.3-3.7 15.4-7 3.9-4 1.5-7.3-5.1-7.3h-6.3l13.4-14h-3.9-1l-13.4 14h-6.2c-6.7 0-15.3 3.3-19.1 7.3-3.2 3.3-2.2 6.1 2 7z" opacity=".1"/><g clip-path="url(#b)"><path d="m369.7 243h5v36h-5z" fill="#b7791f"/><path d="m373.7 243h1v36h-1z" fill="#975a16"/></g><path clip-path="url(#b)" d="m381.2 255h-18c-6.9 0-12.5-5.6-12.5-12.5 0-6.9 5.6-12.5 12.5-12.5h18c6.9 0 12.5 5.6 12.5 12.5 0 6.9-5.7 12.5-12.5 12.5z" fill="#2f855a"/><path clip-path="url(#b)" d="m384.7 230.5v12c0 6.9-5.6 12.5-12.5 12.5-6.9 0-12.5-5.6-12.5-12.5v-12c0-6.9 5.6-12.5 12.5-12.5 6.8 0 12.5 5.6 12.5 12.5z" fill="#2f855a"/><circle clip-path="url(#b)" cx="362.9" cy="244.9" fill="#e53e3e" r="1.9"/><circle clip-path="url(#b)" cx="370.3" cy="229.1" fill="#e53e3e" r="1.9"/><circle clip-path="url(#b)" cx="386.1" cy="238.7" fill="#e53e3e" r="1.9"/><path clip-path="url(#b)" d="m361 235h3c1.7 0 3 1.3 3 3h-3c-1.7 0-3-1.3-3-3z" fill="#68d391" opacity=".8"/><path clip-path="url(#b)" d="m382 244h-3c-1.7 0-3 1.3-3 3h3c1.7 0 3-1.3 3-3z" fill="#68d391" opacity=".8"/><path clip-path="url(#b)" d="m372.5 577.8c-6.7 6-2.7 10.9 8.9 10.9 11.6 0 26.6-4.9 33.2-10.9 10.2-1.3 21.3-5.5 26.8-10.5 6.7-6 2.7-10.9-8.9-10.9h-11l23.4-21h-6.7-1.7l-23.4 21h-11c-11.6 0-26.6 4.9-33.2 10.9-5.4 4.9-3.7 9.2 3.6 10.5z" opacity=".1"/><g clip-path="url(#b)"><path d="m436.4 472.9h8.7v62.6h-8.7z" fill="#b7791f"/><path d="m443.4 472.9h1.7v62.6h-1.7z" fill="#975a16"/></g><path clip-path="url(#b)" d="m456.4 493.8h-31.3c-11.9 0-21.7-9.8-21.7-21.7 0-11.9 9.8-21.7 21.7-21.7h31.3c11.9 0 21.7 9.8 21.7 21.7 0 11.9-9.8 21.7-21.7 21.7z" fill="#2f855a"/><path clip-path="url(#b)" d="m462.5 451.2v20.9c0 11.9-9.8 21.7-21.7 21.7-11.9 0-21.7-9.8-21.7-21.7v-20.9c0-11.9 9.8-21.7 21.7-21.7 11.9 0 21.7 9.7 21.7 21.7z" fill="#2f855a"/><circle clip-path="url(#b)" cx="424.7" cy="476.2" fill="#e53e3e" r="3.3"/><circle clip-path="url(#b)" cx="437.5" cy="448.8" fill="#e53e3e" r="3.3"/><circle clip-path="url(#b)" cx="464.9" cy="465.5" fill="#e53e3e" r="3.3"/><path clip-path="url(#b)" d="m421.4 459h5.2c2.9 0 5.2 2.3 5.2 5.2h-5.2c-2.9 0-5.2-2.3-5.2-5.2z" fill="#68d391" opacity=".8"/><path clip-path="url(#b)" d="m457.8 474.6h-5.2c-2.9 0-5.2 2.3-5.2 5.2h5.2c2.9.1 5.2-2.3 5.2-5.2z" fill="#68d391" opacity=".8"/><path clip-path="url(#b)" d="m440.3 239.3-12.9 22.7 44.5-22.7c2.8-1.5 2.3-2.9-1-2.9h-8.8l9.8-7.7h-3.3-1.3l-9.8 7.7h-8.8c-3.3 0-7.6 1.5-8.4 2.9z" opacity=".1"/><g clip-path="url(#b)"><path d="m467.2 192.8h4.6v35.9h-4.6z" fill="#b7791f"/><path d="m470.4 192.8h1.3v35.9h-1.3z" fill="#975a16"/></g><path clip-path="url(#b)" d="m469.5 155.7-15.8 49.7c-1 3.2 1.4 6.4 4.7 6.4h22.1c3.3 0 5.7-3.2 4.7-6.4z" fill="#2f855a"/><path clip-path="url(#b)" d="m172.8 346.3-13.4 23.4 45.9-23.4c2.9-1.5 2.4-3-1-3h-9.1l10.1-8h-3.3-1.3l-10.1 8h-9.1c-3.5 0-7.9 1.5-8.7 3z" opacity=".1"/><g clip-path="url(#b)"><path d="m200.5 298.3h4.7v37.1h-4.7z" fill="#b7791f"/><path d="m203.9 298.3h1.3v37.1h-1.3z" fill="#975a16"/></g><path clip-path="url(#b)" d="m202.9 259.9-16.3 51.3c-1 3.3 1.4 6.6 4.9 6.6h22.9c3.4 0 5.9-3.4 4.9-6.6z" fill="#2f855a"/><path clip-path="url(#b)" d="m516.9 186.4-10 17.6 34.4-17.6c2.2-1.1 1.8-2.3-.8-2.3h-6.8l7.6-6h-2.5-1l-7.6 6h-6.8c-2.5.1-5.8 1.2-6.5 2.3z" opacity=".1"/><g clip-path="url(#b)"><path d="m537.8 150.4h3.5v27.8h-3.5z" fill="#b7791f"/><path d="m540.3 150.4h1v27.8h-1z" fill="#975a16"/></g><path clip-path="url(#b)" d="m539.5 121.6-12.2 38.5c-.8 2.5 1.1 5 3.6 5h17.1c2.6 0 4.4-2.5 3.6-5z" fill="#2f855a"/><path clip-path="url(#b)" d="m1888.3 300c3 3.1 1.2 5.6-4 5.6-5.2 0-11.8-2.5-14.8-5.6-4.5-.7-9.5-2.9-11.9-5.4-3-3.1-1.2-5.6 4-5.6h4.9l-10.4-10.8h3 .8l10.4 10.8h4.9c5.2 0 11.8 2.5 14.8 5.6 2.3 2.5 1.6 4.7-1.7 5.4z" opacity=".1"/><g clip-path="url(#b)"><path d="m1856 250.3h3.9v27.8h-3.9z" fill="#b7791f"/><path d="m1856 250.3h.8v27.8h-.8z" fill="#975a16"/></g><path clip-path="url(#b)" d="m1851 259.6h13.9c5.3 0 9.7-4.3 9.7-9.7 0-5.3-4.3-9.7-9.7-9.7h-13.9c-5.3 0-9.7 4.3-9.7 9.7 0 5.3 4.4 9.7 9.7 9.7z" fill="#2f855a"/><path clip-path="url(#b)" d="m1848.3 240.6v9.3c0 5.3 4.3 9.7 9.7 9.7 5.3 0 9.7-4.3 9.7-9.7v-9.3c0-5.3-4.3-9.7-9.7-9.7-5.4.1-9.7 4.4-9.7 9.7z" fill="#2f855a"/><circle clip-path="url(#b)" cx="1858.3" cy="238.7" fill="#e53e3e" r="1.2"/><circle clip-path="url(#b)" cx="1866.2" cy="253.4" fill="#e53e3e" r="1.2"/><circle clip-path="url(#b)" cx="1850.5" cy="245.4" fill="#e53e3e" r="1.2"/><path clip-path="url(#b)" d="m1868.5 244.5h-2c-1.1 0-2 .9-2 2h2c1.1.1 2-.8 2-2z" fill="#68d391" opacity=".8"/><path clip-path="url(#b)" d="m1848.5 251.9h2c1.1 0 2 .9 2 2h-2c-1.1 0-2-.9-2-2z" fill="#68d391" opacity=".8"/><path clip-path="url(#b)" d="m1579.9 437.1 15.6-15.6h14.8l15.4-15.3h13.6l20.6 20.6v10.3z" fill="#edf2f7"/><path clip-path="url(#b)" d="m1616.8 437.1v-7.3l5.1-5.1h8.7v-6.3h7.9l10.3 10.2v8.5z" fill="#e2e8f0"/><path clip-path="url(#b)" d="m1579.9 437.2 27.6 9.5h14.8l19.4 8.3h13.6l4.6-12.2v-5.6z" opacity=".1"/><path clip-path="url(#b)" d="m1422.7 355.5v-5.9l4.1-4.1h11.2v-5.2h6.3l8.4 8.4v6.8z" fill="#edf2f7"/><path clip-path="url(#b)" d="m972.4 521.5-38.7 9.4h-15.2l-14.1 7.6h-35.9l-16.1-17z" opacity=".1"/><path clip-path="url(#b)" d="m461.9 343.1-28.8 6.8h-19.5l-25.1 10.1h-11.4l4.8-16.9z" opacity=".1"/><path clip-path="url(#b)" d="m1261.2 374.4 14.2 25-49-25c-3.1-1.6-2.5-3.2 1.1-3.2h9.7l-10.7-8.5h3.6 1.4l10.7 8.5h9.7c3.6 0 8.4 1.6 9.3 3.2z" opacity=".1"/><g clip-path="url(#b)"><path d="m1226.4 323.2h5.1v39.5h-5.1z" fill="#b7791f"/><path d="m1226.5 323.2h1.4v39.5h-1.4z" fill="#975a16"/></g><path clip-path="url(#b)" d="m1229 282.2 17.4 54.8c1.1 3.5-1.5 7.1-5.2 7.1h-24.4c-3.7 0-6.3-3.6-5.2-7.1z" fill="#2f855a"/><path clip-path="url(#b)" d="m1253 356.4c-.2-.6-.5-1.2-.9-1.7-.8-1-2.1-1.7-3.6-1.7-2.1 0-3.9 1.4-4.4 3.4-2.5 0-4.6 2.1-4.6 4.6h12.6 5.4c.1-2.5-2-4.6-4.5-4.6z" fill="#2f855a"/><path clip-path="url(#b)" d="m1645.9 554.1c-.2-.9-.7-1.8-1.4-2.5-1.3-1.6-3.2-2.6-5.4-2.6-3.2 0-5.9 2.2-6.7 5.1-3.9 0-7 3.2-7 7h19 8.3c.1-3.9-3.1-7-6.8-7z" fill="#2f855a"/><path clip-path="url(#b)" d="m1653.5 554.1c-.2-.9-.7-1.8-1.4-2.5-1.3-1.6-3.2-2.6-5.4-2.6-3.2 0-5.9 2.2-6.7 5.1-3.9 0-7 3.2-7 7h19 8.3c.2-3.9-3-7-6.8-7z" fill="#2f855a"/><path clip-path="url(#b)" d="m1338.7 307.7 12.2 21.5-42.1-21.5c-2.7-1.4-2.2-2.8.9-2.8h8.3l-9.3-7.3h3.1 1.2l9.3 7.3h8.3c3.3 0 7.3 1.4 8.1 2.8z" opacity=".1"/><g clip-path="url(#b)"><path d="m1308.9 263.6h4.3v34h-4.3z" fill="#b7791f"/><path d="m1308.9 263.6h1.2v34h-1.2z" fill="#975a16"/></g><path clip-path="url(#b)" d="m1311.1 228.5 14.9 47.1c1 3-1.3 6.1-4.5 6.1h-20.9c-3.2 0-5.4-3.1-4.5-6.1z" fill="#2f855a"/><path clip-path="url(#b)" d="m1393.2 431.4-2.5-27c-.2-2-1.9-3.6-3.9-3.6h-23.3c-3.8 0-5.4 4.9-2.4 7.1z" opacity=".1"/><path clip-path="url(#b)" d="m1375.7 339.8-17.2 54.2c-1.1 3.5 1.5 7 5.2 7h24.2c3.7 0 6.2-3.6 5.2-7z" fill="#2f855a"/><path clip-path="url(#b)" d="m1483.1 403.3-39.4 124.2c-2.5 8 3.4 16.1 11.8 16.1h55.3c8.3 0 14.3-8.1 11.8-16.1z" fill="#23183e"/><path clip-path="url(#b)" d="m601.5 498.7 2.6-27.7c.2-2.1 1.9-3.6 4-3.6h23.9c3.9 0 5.5 4.9 2.3 7.3z" opacity=".1"/><path clip-path="url(#b)" d="m618.4 407.8 17.3 54.4c1.1 3.5-1.5 7-5.1 7h-24.2c-3.6 0-6.2-3.5-5.1-7z" fill="#2f855a"/><path clip-path="url(#b)" d="m706 401.3 2.1-22.2c.2-1.7 1.5-2.9 3.2-2.9h19.1c3.1 0 4.4 3.9 1.9 5.8z" opacity=".1"/><path clip-path="url(#b)" d="m719.6 328.7 13.9 43.5c.8 2.8-1.2 5.6-4.1 5.6h-19.4c-2.9 0-5-2.8-4.1-5.6z" fill="#2f855a"/><path clip-path="url(#b)" d="m73.4 490.5 3.8-41.2c.3-3.1 2.8-5.4 5.9-5.4h35.5c5.7 0 8.2 7.3 3.5 10.8z" opacity=".1"/><path clip-path="url(#b)" d="m98.6 355.5 25.7 80.9c1.6 5.2-2.3 10.4-7.7 10.4h-36c-5.4 0-9.2-5.2-7.7-10.4z" fill="#2f855a"/><path clip-path="url(#b)" d="m201.5 525 4-42.8c.4-3.3 2.9-5.6 6.1-5.6h36.8c6 0 8.5 7.6 3.6 11.2z" opacity=".1"/><path clip-path="url(#b)" d="m227.7 384.8 26.7 84c1.6 5.4-2.3 10.8-7.9 10.8h-37.4c-5.6 0-9.6-5.4-7.9-10.8z" fill="#2f855a"/><path clip-path="url(#b)" d="m221.7 570.3 5.1-54.1c.4-4 3.8-7.1 7.8-7.1h46.7c7.6 0 10.8 9.7 4.6 14.2z" opacity=".1"/><path clip-path="url(#b)" d="m778.8 270.5 4.9 15.5c.3 1-.4 2-1.5 2h-6.9c-1 0-1.8-1-1.5-2z" fill="#2f855a"/><path clip-path="url(#b)" d="m839.8 323.5 4.9 15.5c.3 1-.4 2-1.5 2h-6.9c-1 0-1.8-1-1.5-2z" fill="#2f855a"/><path clip-path="url(#b)" d="m757.8 285.5 4.9 15.5c.3 1-.4 2-1.5 2h-6.9c-1 0-1.8-1-1.5-2z" fill="#68d391"/><path clip-path="url(#b)" d="m800.8 314.5 4.9 15.5c.3 1-.4 2-1.5 2h-6.9c-1 0-1.8-1-1.5-2z" fill="#68d391"/><path clip-path="url(#b)" d="m261.8 110.5 4.9 15.5c.3 1-.4 2-1.5 2h-6.9c-1 0-1.8-1-1.5-2z" fill="#2f855a"/><path clip-path="url(#b)" d="m174.8 155.5 4.9 15.5c.3 1-.4 2-1.5 2h-6.9c-1 0-1.8-1-1.5-2z" fill="#2f855a"/><path clip-path="url(#b)" d="m103.8 159.5 4.9 15.5c.3 1-.4 2-1.5 2h-6.9c-1 0-1.8-1-1.5-2z" fill="#2f855a"/><path clip-path="url(#b)" d="m287.8 160.5 4.9 15.5c.3 1-.4 2-1.5 2h-6.9c-1 0-1.8-1-1.5-2z" fill="#2f855a"/><path clip-path="url(#b)" d="m61.8 136.5 4.9 15.5c.3 1-.4 2-1.5 2h-6.9c-1 0-1.8-1-1.5-2z" fill="#2f855a"/><path clip-path="url(#b)" d="m136.8 95.5 4.9 15.5c.3 1-.4 2-1.5 2h-6.9c-1 0-1.8-1-1.5-2z" fill="#2f855a"/><path clip-path="url(#b)" d="m222.8 141.5 4.9 15.5c.3 1-.4 2-1.5 2h-6.9c-1 0-1.8-1-1.5-2z" fill="#68d391"/><path clip-path="url(#b)" d="m345.8 141.5 4.9 15.5c.3 1-.4 2-1.5 2h-6.9c-1 0-1.8-1-1.5-2z" fill="#68d391"/><path clip-path="url(#b)" d="m149.8 218.5 4.9 15.5c.3 1-.4 2-1.5 2h-6.9c-1 0-1.8-1-1.5-2z" fill="#68d391"/><path clip-path="url(#b)" d="m229.8 200.5 4.9 15.5c.3 1-.4 2-1.5 2h-6.9c-1 0-1.8-1-1.5-2z" fill="#68d391"/><path clip-path="url(#b)" d="m42.8 200.5 4.9 15.5c.3 1-.4 2-1.5 2h-6.9c-1 0-1.8-1-1.5-2z" fill="#68d391"/><path clip-path="url(#b)" d="m194.8 116.5 4.9 15.5c.3 1-.4 2-1.5 2h-6.9c-1 0-1.8-1-1.5-2z" fill="#68d391"/><path clip-path="url(#b)" d="m28.8 92.5 4.9 15.5c.3 1-.4 2-1.5 2h-6.9c-1 0-1.8-1-1.5-2z" fill="#68d391"/><path clip-path="url(#b)" d="m1323.7 429.6c-.3-1-.8-1.9-1.4-2.7-1.4-1.7-3.4-2.7-5.7-2.7-3.4 0-6.2 2.3-7.1 5.4-4.1 0-7.3 3.3-7.3 7.4h20.1 8.7c0-4.1-3.3-7.4-7.3-7.4z" fill="#38a169"/><path clip-path="url(#b)" d="m773.5 396.9c-.2-.7-.5-1.3-1-1.8-.9-1.1-2.4-1.9-4-1.9-2.3 0-4.3 1.6-4.9 3.7-2.8 0-5.1 2.3-5.1 5.1h14 6c.1-2.8-2.2-5.1-5-5.1z" fill="#2f855a"/><g clip-path="url(#b)" fill="#975a16"><path d="m595.5 263h8v10h-8z"/><path d="m578.8 263h8v10h-8z"/><path d="m562.2 263h8v10h-8z"/><path d="m545.5 263h8v10h-8z"/></g><path clip-path="url(#b)" d="m529.7 410 25.6-36h1.4 3.6l-25.6 36h6.5l25.3-35.6h.9 2.1l-1.5 2h10l1.5-2h.9 2.1l-25.4 35.6h6.5l25.5-35.8h1 4l-25.5 35.8h9.5l-12 16.9-3.6 5.1h-8l3.6-5.1h-8.7l-3.6 5.1h-8l3.6-5.1h-8.7l-3.6 5.1h-8l3.6-5.1h-8.7l-3.6 5.1h-8l3.6-5.1 12-16.9zm16.4-2.8h10l2.4-3.4h-10zm3.2-4.4h10l2.4-3.4h-10zm3.1-4.4h10l2.4-3.4h-10zm3.1-4.4h10l2.4-3.4h-10zm3.1-4.4h10l2.4-3.4h-10zm3.1-4.4h10l2.4-3.4h-10zm5.5-7.7-2.4 3.4h10l2.4-3.4zm-13.1 32.5 1.3-1.8h-10l-1.3 1.8z" opacity=".1"/><path clip-path="url(#b)" d="m605.7 369.6c-.2-.9-.7-1.6-1.2-2.3-1.2-1.4-2.9-2.3-4.9-2.3-2.9 0-5.4 2-6.1 4.6-3.5 0-6.3 2.9-6.3 6.4h17.4 7.5c-.1-3.5-2.9-6.3-6.4-6.4z" fill="#38a169"/><path clip-path="url(#b)" d="m557.4 370.4c-.2-.7-.6-1.4-1.1-2-1-1.3-2.6-2.1-4.3-2.1-2.6 0-4.7 1.7-5.4 4.1-3.1 0-5.6 2.5-5.6 5.6h15.3 6.6c.1-3.1-2.4-5.6-5.5-5.6z" fill="#2f855a"/><path clip-path="url(#b)" d="m433.4 385.4c-.2-.7-.6-1.4-1.1-2-1-1.3-2.6-2.1-4.3-2.1-2.6 0-4.7 1.7-5.4 4.1-3.1 0-5.6 2.5-5.6 5.6h15.3 6.6c.1-3.1-2.4-5.6-5.5-5.6z" fill="#2f855a"/><path clip-path="url(#b)" d="m189.8 500.1c-.6-2.1-1.6-3.9-2.9-5.5-2.8-3.4-7.1-5.6-11.9-5.6-7 0-12.9 4.7-14.8 11.2-8.4.1-15.2 6.9-15.2 15.3h41.9 18.1c.1-8.5-6.8-15.4-15.2-15.4z" fill="#23183e"/><path clip-path="url(#b)" d="m738.9 440.8c-.3-1-.7-1.8-1.4-2.6-1.3-1.6-3.3-2.6-5.5-2.6-3.3 0-6 2.2-6.9 5.2-3.9 0-7.1 3.2-7.1 7.2h19.5 8.5c.1-3.9-3.1-7.1-7.1-7.2z" fill="#38a169"/><path clip-path="url(#b)" d="m516.9 533.4c-.3-1.1-.7-1.9-1.5-2.8-1.4-1.7-3.5-2.8-5.9-2.8-3.5 0-6.4 2.4-7.4 5.6-4.2 0-7.6 3.4-7.6 7.7h20.9 9.1c.1-4.2-3.3-7.6-7.6-7.7z" fill="#2f855a"/><path clip-path="url(#b)" d="m553.5 370.8h-1.5c-.8 0-1.5.7-1.5 1.5h1.5c.8-.1 1.5-.7 1.5-1.5z" fill="#68d391" opacity=".8"/><path clip-path="url(#b)" d="m604.5 372.8h-1.5c-.8 0-1.5.7-1.5 1.5h1.5c.8-.1 1.5-.7 1.5-1.5z" fill="#2f855a"/><path clip-path="url(#b)" d="m600.5 368.8h-1.5c-.8 0-1.5.7-1.5 1.5h1.5c.8-.1 1.5-.7 1.5-1.5z" fill="#2f855a"/><path clip-path="url(#b)" d="m900 411 1.8-1h-4.4l-1.8 1h-4l1.8-1h-4.4l-1.8 1h-4l1.8-1h-4.4l-1.8 1h-4.1l1.9-1.2 6.2-3.8h4.7l12.9-8h2 .5l-12.9 8h3.2l12.9-8h1 .4l-.7.7h5l.7-.7h1.1.4l-12.9 8h3.3l12.9-8h1.8.7l-12.9 8h4.9l-6.2 3.8-1.9 1.2zm3.6-10.3h5l1.2-.7h-5zm-.3.3-1.2.7h5l1.2-.7zm-1.6 1-1.2.7h5l1.2-.7zm-1.6.7-1.2.7h5l1.2-.7zm-1.6 1-1.2.7h5l1.2-.7zm-1.5 1-1.2.7h5l1.2-.7zm-1.6 1-.6.3h5l.6-.3zm11-6.7-1.2.7h5l1.2-.7z" opacity=".1"/><g clip-path="url(#b)"><ellipse cx="475.1" cy="433.8" fill="#7e8c9b" opacity=".25" rx="8.7" ry="1"/><path d="m486.1 429h-22c-1.1 0-2-.9-2-2v-14.7c0-1.1.9-2 2-2h22c1.1 0 2 .9 2 2v14.7c0 1.1-1 2-2 2z" fill="#805ad5"/><g style="fill:none;stroke:#805ad5;stroke-width:1.2126;stroke-linecap:round;stroke-linejoin:round;stroke-miterlimit:10"><path d="m467.5 421.9s-5.6-.1-9.5 7.2"/><path d="m482.5 421.9s5.6-.1 9.5 7.2"/><path d="m468.3 424.9s2.2 3.4.4 8.3"/><path d="m480.6 424.9s2.2 3.4.4 8.3"/></g><path d="m468.3 423.7c-.4 0-.8-.3-.8-.8v-2.1c0-.4.3-.8.8-.8.4 0 .8.3.8.8v2.1c-.1.4-.4.8-.8.8z" fill="#3d356d"/><path d="m481.8 423.7c-.4 0-.8-.3-.8-.8v-2.1c0-.4.3-.8.8-.8.4 0 .8.3.8.8v2.1c0 .4-.3.8-.8.8z" fill="#3d356d"/><circle cx="473.6" cy="425.2" fill="#3d356d" r="2.2"/></g><g clip-path="url(#b)"><ellipse cx="392" cy="285.1" fill="#7e8c9b" opacity=".25" rx="4" ry=".5"/><path d="m385.5 279.1 12.3 4.1c.6.2 1.3-.1 1.5-.8l2.7-8.2c.2-.6-.1-1.3-.8-1.5l-12.3-4.1c-.6-.2-1.3.1-1.5.8l-2.7 8.2c-.2.6.2 1.3.8 1.5z" fill="#805ad5"/><g style="fill:none;stroke:#805ad5;stroke-width:.7133;stroke-linecap:round;stroke-linejoin:round;stroke-miterlimit:10"><path d="m397.1 278.6s3.2 1 4 5.8"/><path d="m388.8 275.8s-3.1-1.1-6.7 2.2"/><path d="m396.1 280.1s-1.9 1.5-1.8 4.5"/><path d="m391.3 279.8s-1.9 1.5-1.8 4.5"/></g><path d="m396.4 279.4c.2.1.5 0 .5-.3l.4-1.2c.1-.2 0-.5-.3-.5-.2-.1-.5 0-.5.3l-.4 1.2c0 .1.1.4.3.5z" fill="#3d356d"/><path d="m388.8 276.8c.2.1.5 0 .5-.3l.4-1.2c.1-.2 0-.5-.3-.5-.2-.1-.5 0-.5.3l-.4 1.2c0 .2.1.5.3.5z" fill="#3d356d"/><path d="m392 278.2c-.2.7.1 1.4.8 1.7.7.2 1.4-.1 1.7-.8" fill="#3d356d"/></g><g clip-path="url(#b)"><path d="m581.1 347.2-14.5 2.7c-.7.1-1.4-.4-1.6-1.1l-1.8-9.7c-.1-.7.4-1.4 1.1-1.6l14.5-2.7c.7-.1 1.4.4 1.6 1.1l1.8 9.7c.1.8-.4 1.5-1.1 1.6z" fill="#805ad5"/><g style="fill:none;stroke:#805ad5;stroke-width:1.0117;stroke-linecap:round;stroke-linejoin:round;stroke-miterlimit:10"><path d="m577.3 345.7s4.3-1.9 4.8-8.7"/><path d="m568.6 345.6s2.4 2.5 1.6 6.7"/><path d="m575.7 344.7s2.4 2.5 1.6 6.7"/></g></g><path clip-path="url(#b)" d="m574.9 294.3c-.5 0-.9.4-.9.9v5.1c-.8.5-1.6 1.3-2.4 2.7-.1.1 0 .3.1.4h.1c.1 0 .2-.1.2-.1.6-1.1 1.2-1.8 1.9-2.3v.9c0 .5.4.9.9.9h1.7c0 .6.1 1.2.3 2 0 .1.1.2.3.2h.1c.1-.1.2-.2.2-.4-.3-.7-.3-1.3-.3-1.8h5c0 .5.1 1.2.3 1.9v-10.4z" opacity=".15"/><g fill="#38a169"><path clip-path="url(#b)" d="m1825 333h-4c-2.2 0-4 1.8-4 4h4c2.2 0 4-1.8 4-4z"/><path clip-path="url(#b)" d="m1868 380h-4c-2.2 0-4 1.8-4 4h4c2.2 0 4-1.8 4-4z"/><path clip-path="url(#b)" d="m1678 400h4c2.2 0 4 1.8 4 4h-4c-2.2 0-4-1.8-4-4z"/><path clip-path="url(#b)" d="m1526 334h4c2.2 0 4 1.8 4 4h-4c-2.2 0-4-1.8-4-4z"/><path clip-path="url(#b)" d="m1205.4 424.6h4c2.2 0 4 1.8 4 4h-4c-2.2 0-4-1.8-4-4z"/><path clip-path="url(#b)" d="m1210.4 520.9h-5c-2.8 0-5 2.2-5 5h5c2.8 0 5-2.2 5-5z"/><path clip-path="url(#b)" d="m786.5 482.8h4.5c2.5 0 4.5 2 4.5 4.5h-4.5c-2.5-.1-4.5-2.1-4.5-4.5z"/><path clip-path="url(#b)" d="m136.7 327.8c-.6-2.2-2.6-3.9-5-3.9 0 2.7 2.1 5 4.8 5.2h.2.2c2.7-.2 4.8-2.4 4.8-5.2-2.4 0-4.4 1.6-5 3.9z"/><path clip-path="url(#b)" d="m244.5 312.8h4.5c2.5 0 4.5 2 4.5 4.5h-4.5c-2.5-.1-4.5-2.1-4.5-4.5z"/><path clip-path="url(#b)" d="m74.5 349.8h4.5c2.5 0 4.5 2 4.5 4.5h-4.5c-2.5-.1-4.5-2.1-4.5-4.5z"/><path clip-path="url(#b)" d="m509.5 451.2h4.5c2.5 0 4.5-2 4.5-4.5h-4.5c-2.5.1-4.5 2.1-4.5 4.5z"/><path clip-path="url(#b)" d="m661 332.5h3c1.7 0 3-1.3 3-3h-3c-1.7 0-3 1.3-3 3z"/><path clip-path="url(#b)" d="m481 262h-3c-1.7 0-3-1.3-3-3h3c1.7 0 3 1.3 3 3z"/><path clip-path="url(#b)" d="m502 312h-3c-1.7 0-3-1.3-3-3h3c1.7 0 3 1.3 3 3z"/><path clip-path="url(#b)" d="m569 215h-3c-1.7 0-3-1.3-3-3h3c1.7 0 3 1.3 3 3z"/><path clip-path="url(#b)" d="m1329 374.5h-3c-1.7 0-3 1.3-3 3h3c1.7 0 3-1.3 3-3z"/></g><path clip-path="url(#b)" d="m395.7 499.3c-.8-3.1-3.6-5.4-7-5.4 0 3.8 3 7 6.8 7.2h.2.2c3.8-.2 6.8-3.4 6.8-7.2-3.4 0-6.2 2.3-7 5.4z" fill="#68d391"/><path clip-path="url(#b)" d="m700.7 594.3c-.8-3.1-3.6-5.4-7-5.4 0 3.8 3 7 6.8 7.2h.2.2c3.8-.2 6.8-3.4 6.8-7.2-3.4 0-6.2 2.3-7 5.4z" fill="#68d391"/><path clip-path="url(#b)" d="m311.4 445.7c-.8-3.1-3.6-5.4-7-5.4 0 3.8 3 7 6.8 7.2h.2.2c3.8-.2 6.8-3.4 6.8-7.2-3.4 0-6.2 2.3-7 5.4z" fill="#68d391"/><path clip-path="url(#b)" d="m333 345.3c-.7-2.7-3.1-4.6-6-4.6 0 3.3 2.6 6 5.8 6.2h.2.2c3.3-.2 5.8-2.9 5.8-6.2-2.9 0-5.3 2-6 4.6z" fill="#38a169"/><path clip-path="url(#b)" d="m131.7 484.6c-.8-3.1-3.6-5.4-7-5.4 0 3.8 3 7 6.8 7.2h.2.2c3.8-.2 6.8-3.4 6.8-7.2-3.4 0-6.2 2.3-7 5.4z" fill="#68d391"/><path clip-path="url(#b)" d="m321 494.8h6c3.3 0 6-2.7 6-6h-6c-3.3 0-6 2.7-6 6z" fill="#68d391"/><path clip-path="url(#b)" d="m43 456h6c3.3 0 6-2.7 6-6h-6c-3.3 0-6 2.7-6 6z" fill="#68d391"/><path clip-path="url(#b)" d="m191 413h-6c-3.3 0-6-2.7-6-6h6c3.3 0 6 2.7 6 6z" fill="#68d391"/><path clip-path="url(#b)" d="m543.8 573.3h6c3.3 0 6-2.7 6-6h-6c-3.4 0-6 2.7-6 6z" fill="#68d391"/><path clip-path="url(#b)" d="m1433.3 355.5v-5.1h7.6v-3.5l5.1 5.2v3.4z" fill="#e2e8f0"/><path clip-path="url(#b)" d="m1422.7 355.6v4l4.1 2.7h11.2v3.4h6.3l8.4-5.5v-4.6z" opacity=".1"/><g clip-path="url(#b)"><path d="m563.7 252c-.1-.2-1.1 0-2.1.5-1.1.5-1.8 1.1-1.7 1.3.1.2 1.1 0 2.1-.5s1.8-1.1 1.7-1.3z" fill="#ef8f30"/><path d="m572 261.3h-10.8c-.5 0-1-.4-1-1v-7.2c0-.5.4-1 1-1h10.8c.5 0 1 .4 1 1v7.2c0 .5-.5 1-1 1z" fill="#805ad5"/><g style="fill:none;stroke:#805ad5;stroke-width:.5944;stroke-linecap:round;stroke-linejoin:round;stroke-miterlimit:10"><path d="m570.2 258.7s2.8 0 4.7-3.5"/><path d="m558.8 261.3s0-2.8 3.5-4.7"/><path d="m563.3 259.3s1.1 1.7.2 4.1"/><path d="m569.3 259.3s1.1 1.7.2 4.1"/></g><path d="m563.3 258.6c-.2 0-.4-.2-.4-.4v-1.1c0-.2.2-.4.4-.4.2 0 .4.2.4.4v1.1c-.1.3-.2.4-.4.4z" fill="#3d356d"/><path d="m569.9 258.6c-.2 0-.4-.2-.4-.4v-1.1c0-.2.2-.4.4-.4.2 0 .4.2.4.4v1.1c0 .3-.2.4-.4.4z" fill="#3d356d"/><path d="m566.6 260.4c-1.1 0-2-.5-2.2-1.1 0-.1 0-.1 0-.2 0-.7 1-.3 2.2-.3 1.2 0 2.2-.4 2.2.3s-1 1.3-2.2 1.3z" fill="#3d356d"/><path d="m559.3 252.3v-.2s0-.1.1-.1l.2.1h.1l.2-1s.1-.1.1 0l.8.4v.1z" fill="#ef8f30"/><path d="m563 250.6-.2-.2h-.1l-.1.3s-.1.1-.1 0l-.9-.5h-.1l-.2.8s0 .1.1.1z" fill="#ef8f30"/><path d="m561.6 252.5c1.1-.5 2-.7 2.1-.5l-.6-1.8c0-.1-.1-.1-.1 0l-.1.4s-.1.1-.1 0l-.6-.7h-.1l-.3.7h-.1l-1.2-.6h-.1l-.3 1.3s0 .1-.1 0l-.7-.2s-.1 0-.1.1l.1.9s0 .1-.1.1l-.4-.2c-.1 0-.1 0-.1.1l1 1.6c.1-.1.9-.7 1.9-1.2z" fill="#fcd61f"/></g><path clip-path="url(#b)" d="m545.5 262h2.5v43h-2.5z" fill="#fff" opacity=".15"/><path clip-path="url(#b)" d="m895.5 342.3v5.2 17.1h1.5v-17.1-5.2z" fill="#fff" opacity=".15"/><g clip-path="url(#b)"><path d="m573.9 255h2.2v.5h-2.2z" fill="#3d356d" transform="matrix(.00130072 -1 1 .00130072 319.0024 829.8187)"/><path d="m576.1 254.7h-2.4c-.2 0-.3-.1-.3-.3 0-.2.1-.3.3-.3h2.4c.2 0 .3.1.3.3 0 .2-.1.3-.3.3z" fill="#f8cd62"/><path d="m574.9 247.2-.2.5-.5.6v5.8h1.4v-5.8z" fill="#3d356d"/><path d="m573.9 254.4c0-.1 0-.1 0 0-.1.1 0 .1 0 .2h.1c-.1-.1-.1-.2-.1-.2z" fill="#ef8f30"/><path d="m574.1 254.4c0-.1 0-.1 0 0-.1-.1-.2-.1-.2 0s0 .1.2 0c-.1.1-.1.1 0 0 0 .1 0 .1 0 0z" fill="#fde5b5"/><path d="m574.9 254.4c0-.1-.1-.1 0 0-.1.1 0 .1 0 .2h.1c-.1-.1-.1-.1-.1-.2z" fill="#ef8f30"/><path d="m575.1 254.5c0-.1 0-.1 0 0-.1-.1-.2-.1-.2 0s0 .1.2 0c-.1 0-.1 0 0 0z" fill="#fde5b5"/><path d="m575.8 254.4c0-.1 0-.1 0 0 0-.1-.1-.1 0 0-.1.1 0 .1 0 .2h.1c-.1-.1-.2-.2-.1-.2z" fill="#ef8f30"/><path d="m575.9 254.5c0-.1 0-.1 0 0-.1-.1-.2-.1-.2 0s0 .1.2 0z" fill="#fde5b5"/><path d="m575.3 256.5h-.7v-.3s0-.1.1-.1h.5s.1 0 .1.1z" fill="#f8cd62"/></g><path clip-path="url(#b)" d="m574.7 247.7-.5.6v5.8h.5z" fill="#fff" opacity=".25"/><path clip-path="url(#b)" d="m1819 367.2 12.5 21.9-42.9-21.9c-2.7-1.4-2.3-2.8 1-2.8h8.5l-9.4-7.5h3.1 1.3l9.4 7.5h8.5c3.1 0 7.2 1.4 8 2.8z" opacity=".1"/><g clip-path="url(#b)"><path d="m1788.7 322.4h4.4v34.6h-4.4z" fill="#b7791f"/><path d="m1788.6 322.4h1.3v34.6h-1.3z" fill="#975a16"/></g><path clip-path="url(#b)" d="m1790.8 286.6 15.2 47.9c1 3.1-1.3 6.2-4.5 6.2h-21.3c-3.2 0-5.5-3.1-4.5-6.2z" fill="#2f855a"/><path clip-path="url(#b)" d="m1818.3 478.6 15.2 26.6-52.1-26.6c-3.3-1.7-2.8-3.4 1.2-3.4h10.3l-11.4-9.1h3.8 1.6l11.4 9.1h10.3c3.8 0 8.7 1.7 9.7 3.4z" opacity=".1"/><g clip-path="url(#b)"><path d="m1781.5 424.2h5.3v42h-5.3z" fill="#b7791f"/><path d="m1781.5 424.2h1.6v42h-1.6z" fill="#975a16"/></g><path clip-path="url(#b)" d="m1784.1 380.8 18.4 58.1c1.2 3.8-1.6 7.5-5.5 7.5h-25.8c-3.9 0-6.7-3.8-5.5-7.5z" fill="#2f855a"/><path clip-path="url(#b)" d="m760.4 523.4-26-26h-18.9l-17.7-17.8h-44.9l-42.5 43.8z" fill="#23183e"/><path clip-path="url(#b)" d="m492.7 553c-1.2-4.4-5.2-7.7-10-7.7 0 5.5 4.3 10 9.7 10.3h.3.3c5.4-.4 9.7-4.8 9.7-10.3-4.8 0-8.9 3.3-10 7.7z" fill="#23183e"/><path clip-path="url(#b)" d="m903.5 562.7c-1.2-4.4-5.2-7.7-10-7.7 0 5.5 4.3 10 9.7 10.3h.3s.2 0 .3 0c5.4-.4 9.7-4.8 9.7-10.3-4.8 0-8.9 3.3-10 7.7z" fill="#23183e"/><path clip-path="url(#b)" d="m1096.6 545.5c-1.2-4.4-5.2-7.7-10-7.7 0 5.5 4.3 10 9.7 10.3h.3s.2 0 .3 0c5.4-.4 9.7-4.8 9.7-10.3-4.8 0-8.9 3.3-10 7.7z" fill="#23183e"/><path clip-path="url(#b)" d="m1683.9 544.6c-1.2-4.4-5.2-7.7-10-7.7 0 5.5 4.3 10 9.7 10.3h.3s.2 0 .3 0c5.4-.4 9.7-4.8 9.7-10.3-4.8 0-8.9 3.3-10 7.7z" fill="#23183e"/><path clip-path="url(#b)" d="m255.7 511c-1.2-4.4-5.2-7.7-10-7.7 0 5.5 4.3 10 9.7 10.3h.3s.2 0 .3 0c5.4-.4 9.7-4.8 9.7-10.3-4.8 0-8.9 3.3-10 7.7z" fill="#23183e"/><path clip-path="url(#b)" d="m43 511c-1.2-4.4-5.2-7.7-10-7.7 0 5.5 4.3 10 9.7 10.3h.3s.2 0 .3 0c5.4-.4 9.7-4.8 9.7-10.3-4.8 0-8.9 3.3-10 7.7z" fill="#23183e"/><path clip-path="url(#b)" d="m1466.4 535c-8.3 0-14.3-8.1-11.8-16.1l32.5-102.6-4.1-13-39.4 124.2c-2.5 8 3.4 16.1 11.8 16.1h55.3c5.7 0 10.3-3.8 11.8-8.7-.3 0-.5 0-.8 0z" fill="#fff" opacity=".15"/><path clip-path="url(#b)" d="m1448.1 448.5-32 100.9c-2 6.5 2.8 13.1 9.6 13.1h44.9c6.8 0 11.6-6.6 9.6-13.1z" fill="#23183e"/><path clip-path="url(#b)" d="m1434.5 555.5c-6.8 0-11.6-6.6-9.6-13.1l26.4-83.3-3.4-10.6-32 100.9c-2 6.5 2.8 13.1 9.6 13.1h44.9c4.6 0 8.3-3.1 9.6-7.1-.2 0-.4 0-.6 0z" fill="#fff" opacity=".15"/><path clip-path="url(#b)" d="m703.8 485.6-6-6h-44.9l-42.5 43.8h11.8l36.7-37.8z" fill="#fff" opacity=".15"/><g clip-path="url(#b)"><path d="m1277 490.3h90.5c4.6 0 8.3-3.7 8.3-8.3v-60.6c0-4.6-3.7-8.3-8.3-8.3h-90.5c-4.6 0-8.3 3.7-8.3 8.3v60.6c0 4.5 3.8 8.3 8.3 8.3z" fill="#805ad5"/><g style="fill:none;stroke:#805ad5;stroke-width:4.9931;stroke-linecap:round;stroke-linejoin:round;stroke-miterlimit:10"><path d="m1291.8 468.4s-23.2.3-39.3-29.6"/><path d="m1353.2 460.8s23.2-.3 39.3 29.6"/><path d="m1345.4 473.3s9.2 14.1 1.7 34.1"/><path d="m1299.3 473.4s-9.2 14.1-1.7 34.1"/></g></g><path clip-path="url(#b)" d="m1894.4 475.2c-.8-3.1-3.6-5.4-7-5.4 0 3.8 3 7 6.8 7.2h.2.2c3.8-.2 6.8-3.4 6.8-7.2-3.4.1-6.2 2.4-7 5.4z" fill="#68d391"/><path clip-path="url(#b)" d="m1756.3 466.6c-.8-3.1-3.6-5.4-7-5.4 0 3.8 3 7 6.8 7.2h.2.2c3.8-.2 6.8-3.4 6.8-7.2-3.4 0-6.2 2.3-7 5.4z" fill="#68d391"/><path clip-path="url(#b)" d="m1720 509h6c3.3 0 6-2.7 6-6h-6c-3.3 0-6 2.7-6 6z" fill="#68d391"/><path clip-path="url(#b)" d="m1847.9 476.4h-6c-3.3 0-6-2.7-6-6h6c3.3 0 6 2.7 6 6z" fill="#68d391"/><path clip-path="url(#b)" d="m1862 440h-6c-3.3 0-6-2.7-6-6h6c3.3 0 6 2.7 6 6z" fill="#68d391"/><path clip-path="url(#b)" d="m1779.6 509.4v-5.9l-4.1-4.1h-11.2v-5.2h-6.3l-8.4 8.4v6.8z" fill="#edf2f7"/><path clip-path="url(#b)" d="m1769 509.4v-5.1h-7.6v-3.5l-5.1 5.2v3.4z" fill="#e2e8f0"/><path clip-path="url(#b)" d="m1779.6 509.5v4l-4.1 2.7h-11.2v3.4h-6.3l-8.4-5.5v-4.6z" opacity=".1"/><path clip-path="url(#b)" d="m0 513.6h298.1c14.7 0 28.8 3 39.2 8.3l48.6 24.8c10.4 5.3 24.5 8.3 39.2 8.3h90.1c14.7 0 28.8-3 39.2-8.3l45.6-23.3c10.4-5.3 24.5-8.3 39.2-8.3h101.1c14.7 0 28.8 3 39.2 8.3l65.6 33.5c10.4 5.3 24.5 8.3 39.2 8.3h116.1c14.7 0 28.8-3 39.2-8.3l2.1-1.1c10.4-5.3 24.5-8.3 39.2-8.3h85.6c14.7 0 28.8-3 39.2-8.3l43.3-22.1c10.4-5.3 24.5-8.3 39.2-8.3h255.4c14.7 0 28.8 3 39.2 8.3l41.2 21c10.4 5.3 24.5 8.3 39.2 8.3h66.5c14.7 0 28.8-3 39.2-8.3l76.2-38.9c10.4-5.3 24.5-8.3 39.2-8.3h36.4v109h-1920.7z" fill="#23183e"/><path clip-path="url(#b)" d="m1361 509h174v74h-174z" fill="#23183e"/></svg>