<?xml version="1.0" encoding="utf-8"?>
<svg version="1.1" id="Layer_1" xmlns="http://www.w3.org/2000/svg" xmlns:xlink="http://www.w3.org/1999/xlink" x="0px" y="0px"
	 viewBox="0 0 1920 1080" style="enable-background:new 0 0 1920 1080;" xml:space="preserve">
<style type="text/css">
	.st0{fill:#7E8C9B;}
	.st1{fill:#EBF8FF;}
	.st2{opacity:0.5;clip-path:url(#SVGID_2_);fill:#BEE3F8;}
	.st3{opacity:0.8;}
	.st4{fill:#EF8F30;}
	.st5{fill:#805AD5;}
	.st6{fill:none;stroke:#805AD5;stroke-width:0.2378;stroke-linecap:round;stroke-linejoin:round;stroke-miterlimit:10;}
	.st7{fill:#3D356D;}
	.st8{fill:#FCD61F;}
	.st9{fill:none;stroke:#805AD5;stroke-width:0.5944;stroke-linecap:round;stroke-linejoin:round;stroke-miterlimit:10;}
	.st10{fill:#975A16;}
	.st11{fill:none;stroke:#805AD5;stroke-width:0.204;stroke-linecap:round;stroke-linejoin:round;stroke-miterlimit:10;}
	.st12{opacity:0.8;fill:#975A16;}
	.st13{opacity:0.8;fill:#744210;}
	.st14{fill:#38A169;}
	.st15{fill:#718096;}
	.st16{opacity:0.15;fill:#FFFFFF;}
	.st17{fill:#627184;}
	.st18{fill:#3A4751;}
	.st19{fill:#68D391;}
	.st20{opacity:0.2;fill:#FFFFFF;}
	.st21{fill:#ED8936;}
	.st22{fill:#744210;}
	.st23{opacity:0.9;}
	.st24{fill:#B7791F;}
	.st25{opacity:0.5;}
	.st26{fill:#7F9CF5;}
	.st27{fill:#9AE6B4;}
	.st28{fill:#45525B;}
	.st29{fill:#EDF2F7;}
	.st30{fill:#E2E8F0;}
	.st31{opacity:0.5;fill:#CBD5E0;}
	.st32{fill:#FFFFFF;}
	.st33{fill:#ECC94B;}
	.st34{opacity:0.25;fill:#7E8C9B;}
	.st35{fill:none;stroke:#805AD5;stroke-width:1.3553;stroke-linecap:round;stroke-linejoin:round;stroke-miterlimit:10;}
	.st36{fill:none;stroke:#805AD5;stroke-width:1.1413;stroke-linecap:round;stroke-linejoin:round;stroke-miterlimit:10;}
	.st37{fill:#E53E3E;}
	.st38{fill:#63B3ED;}
	.st39{opacity:0.8;fill:#4299E1;}
	.st40{opacity:0.1;}
	.st41{opacity:0.8;fill:#9AE6B4;}
	.st42{fill:#23183E;}
	.st43{opacity:0.9;fill:#7E8C9B;}
	.st44{opacity:0.9;fill:#627184;}
	.st45{fill:none;stroke:#805AD5;stroke-width:1.2483;stroke-linecap:round;stroke-linejoin:round;stroke-miterlimit:10;}
	.st46{fill:none;stroke:#805AD5;stroke-width:0.7133;stroke-linecap:round;stroke-linejoin:round;stroke-miterlimit:10;}
	.st47{fill:none;stroke:#805AD5;stroke-width:1.0117;stroke-linecap:round;stroke-linejoin:round;stroke-miterlimit:10;}
	.st48{opacity:0.15;}
	.st49{fill:none;stroke:#805AD5;stroke-width:1.6678;stroke-linecap:round;stroke-linejoin:round;stroke-miterlimit:10;}
	.st50{fill:#F8CD62;}
	.st51{fill:#FDE5B5;}
	.st52{opacity:0.25;fill:#FFFFFF;}
	.st53{fill:none;stroke:#805AD5;stroke-width:5.3498;stroke-linecap:round;stroke-linejoin:round;stroke-miterlimit:10;}
</style>
<rect x="2659" y="313" class="st0" width="263" height="440"/>
<rect class="st1" width="1920" height="1080"/>
<g>
	<defs>
		<rect id="SVGID_1_" width="1919" height="1079"/>
	</defs>
	<clipPath id="SVGID_2_">
		<use xlink:href="#SVGID_1_"  style="overflow:visible;"/>
	</clipPath>
	<polygon class="st2" points="1713,487.8 1647.7,521.2 1478,434.5 1211.6,570.6 1089.1,508 961.7,573.1 738.2,458.9 615.6,521.5 
		334.8,378 165.1,464.7 60.8,411.4 -220,554.9 -220,750.8 614.2,750.8 464.6,827.2 1988,827.2 1988,628.4 	"/>
</g>
<g class="st3">
	<path class="st4" d="M420.7,488.2C420.7,488.2,420.7,488.2,420.7,488.2c-0.1-0.1-0.4,0.2-0.6,0.6c-0.2,0.4-0.4,0.8-0.3,0.8
		c0,0,0,0,0,0c0.1,0,0.4-0.2,0.6-0.6C420.6,488.6,420.8,488.2,420.7,488.2z"/>
	<g>
		<path class="st5" d="M425.5,489.5l-3.6,2.4c-0.2,0.1-0.4,0.1-0.5-0.1l-1.6-2.4c-0.1-0.2-0.1-0.4,0.1-0.5l3.6-2.4
			c0.2-0.1,0.4-0.1,0.5,0.1l1.6,2.4C425.7,489.1,425.7,489.3,425.5,489.5z"/>
	</g>
	<path class="st6" d="M424.3,489c0,0,0.9-0.6,0.8-2.2"/>
	<path class="st6" d="M420.1,492.5c0,0-0.1-1.1,1.3-1.9"/>
	<path class="st6" d="M422.1,490.7c0,0,0.7,0.3,1,1.3"/>
	<path class="st6" d="M424.2,489.4c0,0,0.7,0.3,1,1.3"/>
	<g>
		<path class="st7" d="M422,490.5L422,490.5c-0.1,0-0.2,0-0.2,0l-0.2-0.4c0-0.1,0-0.2,0-0.2h0c0.1,0,0.2,0,0.2,0l0.2,0.4
			C422.1,490.3,422.1,490.4,422,490.5z"/>
	</g>
	<g>
		<path class="st7" d="M424.2,489L424.2,489c-0.1,0-0.2,0-0.2,0l-0.2-0.4c0-0.1,0-0.2,0-0.2l0,0c0.1,0,0.2,0,0.2,0l0.2,0.4
			C424.3,488.9,424.3,489,424.2,489z"/>
	</g>
	<g>
		<path class="st7" d="M423.5,490.3c-0.4,0.2-0.8,0.3-1,0.1c0,0,0,0-0.1-0.1c-0.2-0.2,0.3-0.3,0.7-0.6c0,0,0,0,0,0
			c0.4-0.3,0.7-0.6,0.8-0.4C424.1,489.7,423.9,490.1,423.5,490.3z"/>
	</g>
	<g>
		<path class="st4" d="M419.3,489.2L419.3,489.2c-0.1-0.1-0.1-0.1-0.1-0.1l0.1,0c0,0,0,0,0,0l-0.2-0.4c0,0,0,0,0,0l0.3,0
			c0,0,0,0,0,0L419.3,489.2C419.3,489.2,419.3,489.2,419.3,489.2z"/>
		<path class="st4" d="M420.1,487.8L420.1,487.8c-0.1,0-0.1,0-0.1,0l0,0.1c0,0,0,0,0,0l-0.4,0c0,0,0,0,0,0l0.1,0.3c0,0,0,0,0,0
			L420.1,487.8C420.1,487.9,420.1,487.9,420.1,487.8z"/>
	</g>
	<path class="st8" d="M420.1,488.8c0.2-0.4,0.5-0.7,0.6-0.6c0,0,0,0,0,0c0,0,0,0,0,0l-0.6-0.5c0,0,0,0,0,0l0.1,0.2c0,0,0,0,0,0
		l-0.4-0.1c0,0,0,0,0,0l0.1,0.3c0,0,0,0,0,0l-0.5,0.1c0,0,0,0,0,0l0.2,0.5c0,0,0,0,0,0l-0.3,0.1c0,0,0,0,0,0l0.2,0.3c0,0,0,0,0,0
		l-0.2,0c0,0,0,0,0,0l0.7,0.3c0,0,0,0,0,0c0,0,0,0,0,0C419.7,489.6,419.8,489.2,420.1,488.8z"/>
</g>
<g>
	<path class="st4" d="M1523.7,542C1523.7,542,1523.7,542,1523.7,542c-0.1-0.2-1.1,0-2.1,0.5c-1.1,0.5-1.8,1.1-1.7,1.3c0,0,0,0,0,0
		c0.1,0.2,1.1,0,2.1-0.5S1523.8,542.2,1523.7,542z"/>
	<g>
		<path class="st5" d="M1532,551.3h-10.8c-0.5,0-1-0.4-1-1v-7.2c0-0.5,0.4-1,1-1h10.8c0.5,0,1,0.4,1,1v7.2
			C1533,550.8,1532.5,551.3,1532,551.3z"/>
	</g>
	<path class="st9" d="M1530.2,548.7c0,0,2.8,0,4.7-3.5"/>
	<path class="st9" d="M1522.9,548.7c0,0-2.8,0-4.7-3.5"/>
	<path class="st9" d="M1523.3,549.3c0,0,1.1,1.7,0.2,4.1"/>
	<path class="st9" d="M1529.3,549.3c0,0,1.1,1.7,0.2,4.1"/>
	<g>
		<path class="st7" d="M1523.3,548.6L1523.3,548.6c-0.2,0-0.4-0.2-0.4-0.4v-1.1c0-0.2,0.2-0.4,0.4-0.4l0,0c0.2,0,0.4,0.2,0.4,0.4
			v1.1C1523.6,548.5,1523.5,548.6,1523.3,548.6z"/>
	</g>
	<g>
		<path class="st7" d="M1529.9,548.6L1529.9,548.6c-0.2,0-0.4-0.2-0.4-0.4v-1.1c0-0.2,0.2-0.4,0.4-0.4l0,0c0.2,0,0.4,0.2,0.4,0.4
			v1.1C1530.3,548.5,1530.1,548.6,1529.9,548.6z"/>
	</g>
	<g>
		<path class="st7" d="M1526.6,550.4c-1.1,0-2-0.5-2.2-1.1c0-0.1,0-0.1,0-0.2c0-0.7,1-0.3,2.2-0.3c0,0,0,0,0,0
			c1.2,0,2.2-0.4,2.2,0.3C1528.8,549.8,1527.8,550.4,1526.6,550.4z"/>
	</g>
	<g>
		<path class="st4" d="M1519.3,542.3l0-0.2c0,0,0-0.1,0.1-0.1l0.2,0.1c0,0,0.1,0,0.1,0l0.2-1c0,0,0.1-0.1,0.1,0l0.8,0.4
			c0,0,0,0.1,0,0.1L1519.3,542.3C1519.3,542.4,1519.3,542.3,1519.3,542.3z"/>
		<path class="st4" d="M1523,540.6l-0.2-0.2c0,0-0.1,0-0.1,0l-0.1,0.3c0,0-0.1,0.1-0.1,0l-0.9-0.5c0,0-0.1,0-0.1,0l-0.2,0.8
			c0,0,0,0.1,0.1,0.1L1523,540.6C1523,540.6,1523,540.6,1523,540.6z"/>
	</g>
	<path class="st8" d="M1521.6,542.5c1.1-0.5,2-0.7,2.1-0.5c0,0,0,0,0,0c0,0,0,0,0,0l-0.6-1.8c0-0.1-0.1-0.1-0.1,0l-0.1,0.4
		c0,0-0.1,0.1-0.1,0l-0.6-0.7c0,0-0.1,0-0.1,0l-0.3,0.7c0,0-0.1,0-0.1,0l-1.2-0.6c0,0-0.1,0-0.1,0l-0.3,1.3c0,0,0,0.1-0.1,0
		l-0.7-0.2c0,0-0.1,0-0.1,0.1l0.1,0.9c0,0,0,0.1-0.1,0.1l-0.4-0.2c-0.1,0-0.1,0-0.1,0.1l1,1.6c0,0,0,0,0,0c0,0,0,0,0,0
		C1519.8,543.6,1520.6,543,1521.6,542.5z"/>
</g>
<rect x="1694.3" y="517.2" class="st10" width="2.5" height="37.3"/>
<g class="st3">
	<path class="st4" d="M715.5,604.3C715.5,604.3,715.5,604.3,715.5,604.3c0-0.1-0.4,0-0.7,0.2c-0.4,0.2-0.6,0.4-0.6,0.4c0,0,0,0,0,0
		c0,0.1,0.4,0,0.7-0.2S715.5,604.3,715.5,604.3z"/>
	<g>
		<path class="st5" d="M718.3,607.5h-3.7c-0.2,0-0.3-0.2-0.3-0.3v-2.5c0-0.2,0.2-0.3,0.3-0.3h3.7c0.2,0,0.3,0.2,0.3,0.3v2.5
			C718.6,607.3,718.5,607.5,718.3,607.5z"/>
	</g>
	<path class="st11" d="M717.7,606.6c0,0,1,0,1.6-1.2"/>
	<path class="st11" d="M715.2,606.6c0,0-1,0-1.6-1.2"/>
	<path class="st11" d="M715.3,606.8c0,0,0.4,0.6,0.1,1.4"/>
	<path class="st11" d="M717.4,606.8c0,0,0.4,0.6,0.1,1.4"/>
	<g>
		<path class="st7" d="M715.3,606.5L715.3,606.5c-0.1,0-0.1-0.1-0.1-0.1v-0.4c0-0.1,0.1-0.1,0.1-0.1l0,0c0.1,0,0.1,0.1,0.1,0.1v0.4
			C715.4,606.5,715.4,606.5,715.3,606.5z"/>
	</g>
	<g>
		<path class="st7" d="M717.6,606.5L717.6,606.5c-0.1,0-0.1-0.1-0.1-0.1v-0.4c0-0.1,0.1-0.1,0.1-0.1l0,0c0.1,0,0.1,0.1,0.1,0.1v0.4
			C717.7,606.5,717.7,606.5,717.6,606.5z"/>
	</g>
	<g>
		<path class="st7" d="M716.5,607.1c-0.4,0-0.7-0.2-0.8-0.4c0,0,0,0,0-0.1c0-0.2,0.3-0.1,0.8-0.1c0,0,0,0,0,0c0.4,0,0.8-0.1,0.8,0.1
			C717.2,606.9,716.9,607.1,716.5,607.1z"/>
	</g>
	<g>
		<path class="st4" d="M713.9,604.4L713.9,604.4c0-0.1,0-0.1,0-0.1l0.1,0c0,0,0,0,0,0l0.1-0.4c0,0,0,0,0,0l0.3,0.1c0,0,0,0,0,0
			L713.9,604.4C714,604.4,713.9,604.4,713.9,604.4z"/>
		<path class="st4" d="M715.2,603.8L715.2,603.8C715.1,603.7,715.1,603.7,715.2,603.8l-0.1,0c0,0,0,0,0,0l-0.3-0.2c0,0,0,0,0,0
			l-0.1,0.3c0,0,0,0,0,0L715.2,603.8C715.2,603.8,715.2,603.8,715.2,603.8z"/>
	</g>
	<path class="st8" d="M714.7,604.4c0.4-0.2,0.7-0.2,0.7-0.2c0,0,0,0,0,0c0,0,0,0,0,0l-0.2-0.6c0,0,0,0,0,0l0,0.1c0,0,0,0,0,0
		l-0.2-0.2c0,0,0,0,0,0l-0.1,0.2c0,0,0,0,0,0l-0.4-0.2c0,0,0,0,0,0l-0.1,0.4c0,0,0,0,0,0L714,604c0,0,0,0,0,0l0,0.3c0,0,0,0,0,0
		l-0.1-0.1c0,0,0,0,0,0l0.3,0.6c0,0,0,0,0,0c0,0,0,0,0,0C714.1,604.8,714.4,604.6,714.7,604.4z"/>
</g>
<g>
	<rect x="724.2" y="595.4" class="st12" width="0.9" height="12.8"/>
	<rect x="657.9" y="595.4" class="st12" width="0.9" height="12.8"/>
	<rect x="658.6" y="595.4" class="st13" width="0.2" height="12.8"/>
	<rect x="724.9" y="595.4" class="st13" width="0.2" height="12.8"/>
	<g class="st3">
		<path class="st14" d="M734.2,633.6l-4.7,14.9c-0.3,1,0.4,1.9,1.4,1.9h6.6c1,0,1.7-1,1.4-1.9L734.2,633.6z"/>
		<path class="st14" d="M737.4,637.8l-3.5,11.1c-0.2,0.7,0.3,1.4,1,1.4h4.9c0.7,0,1.3-0.7,1-1.4L737.4,637.8z"/>
		<path class="st14" d="M730,643.4v-2.9c0-1.5,1.2-2.7,2.7-2.7l0,0c1.5,0,2.7,1.2,2.7,2.7v2.9c0,1.5-1.2,2.7-2.7,2.7l0,0
			C731.1,646,730,644.9,730,643.4z"/>
		<path class="st14" d="M730.2,641.8v-2.9c0-1.5,1.2-2.7,2.7-2.7l0,0c1.5,0,2.7,1.2,2.7,2.7v2.9c0,1.5-1.2,2.7-2.7,2.7l0,0
			C731.4,644.4,730.2,643.2,730.2,641.8z"/>
		<rect x="666.3" y="626" class="st15" width="50.6" height="24.4"/>
		<g>
			<rect x="666.3" y="623.1" class="st15" width="4.7" height="4.3"/>
			<rect x="675.5" y="623.1" class="st15" width="4.7" height="4.3"/>
			<rect x="684.7" y="623.1" class="st15" width="4.7" height="4.3"/>
			<rect x="693.8" y="623.1" class="st15" width="4.7" height="4.3"/>
			<rect x="703" y="623.1" class="st15" width="4.7" height="4.3"/>
			<rect x="712.2" y="623.1" class="st15" width="4.7" height="4.3"/>
		</g>
		<rect x="716.9" y="621.3" class="st0" width="15.8" height="29.1"/>
		<rect x="716.9" y="621.3" class="st16" width="2.7" height="29.1"/>
		<rect x="650.5" y="621.3" class="st0" width="15.8" height="29.1"/>
		<g>
			<rect x="647.9" y="608.1" class="st0" width="4.7" height="3.9"/>
			<rect x="656.1" y="608.1" class="st0" width="4.7" height="3.9"/>
			<rect x="664.3" y="608.1" class="st0" width="4.7" height="3.9"/>
		</g>
		<rect x="650.5" y="621.3" class="st16" width="2.7" height="29.1"/>
		<polygon class="st17" points="666.3,617.6 658.5,617.6 658.3,617.6 650.5,617.6 647.9,617.6 650.5,622.3 666.3,622.3 669,617.6 		
			"/>
		<rect x="647.9" y="611" class="st0" width="21.1" height="6.6"/>
		<polygon class="st17" points="732.7,617.6 724.9,617.6 724.7,617.6 716.9,617.6 714.2,617.6 716.9,622.3 732.7,622.3 735.3,617.6 
					"/>
		<rect x="714.2" y="611" class="st0" width="21.1" height="6.6"/>
		<path class="st18" d="M691,634.6L691,634.6c2.9,0,5.2,2.3,5.2,5.2v10.6h-10.4v-10.6C685.9,636.9,688.2,634.6,691,634.6z"/>
		<g>
			<path class="st19" d="M650.2,648.2c0.1-0.3,0.2-0.5,0.4-0.8v-7.7c-2.3,0.8-4,2.8-4.5,5.2c-0.1,0-0.1,0-0.2,0
				c-2.7,0-4.9,2.2-4.9,4.9c0,0.2,0,0.3,0,0.5h7.1C648.1,649.2,649,648.2,650.2,648.2z"/>
			<path class="st19" d="M656.7,647.6C656.7,647.6,656.7,647.6,656.7,647.6c0-2.7-2.1-4.7-4.6-4.7c-0.5,0-1,0.1-1.5,0.3v5.3
				c0.3-0.3,0.7-0.5,1.1-0.5c0.7,0,1.2,0.4,1.4,1c0.8,0,1.4,0.6,1.4,1.4h4.7C659.2,648.9,658.1,647.8,656.7,647.6z"/>
			<path class="st14" d="M650.2,648.2c-1.2,0-2.1,0.9-2.1,2.1h2.5v-2.9C650.4,647.7,650.2,648,650.2,648.2z"/>
			<path class="st14" d="M654.2,648.2c-0.3-0.9-1.1-1.5-2-1.5c-0.7,0-1.2,0.3-1.6,0.8v2.9h5.7C656.3,649.2,655.4,648.2,654.2,648.2z
				"/>
		</g>
		<path class="st19" d="M731.2,650.3c0.1-0.3,0.2-0.7,0.2-1c0-1.6-1.3-3-3-3s-3,1.3-3,3c0,0.4,0.1,0.7,0.2,1H731.2z"/>
		<circle class="st19" cx="731.7" cy="647.4" r="3"/>
		<g>
			<path class="st14" d="M732.1,646.9c-0.1,0-0.2,0-0.3,0v3.5h3.8C735.6,648.4,734.1,646.9,732.1,646.9z"/>
			<path class="st14" d="M729.4,648.2c-0.2-0.1-0.5-0.1-0.7-0.1c-1.2,0-2.3,1-2.3,2.3h5.4v-3.5C730.8,647,730,647.5,729.4,648.2z"/>
		</g>
		<path class="st14" d="M710.6,671.7c-0.2-0.6-0.7-1.1-1.4-1.1c0,0.8,0.6,1.4,1.4,1.5c0,0,0,0,0,0c0,0,0,0,0,0
			c0.8-0.1,1.4-0.7,1.4-1.5C711.4,670.5,710.8,671,710.6,671.7z"/>
		<path class="st19" d="M666.4,650.1c-0.2-0.6-0.7-1-1.3-1c0,0.7,0.6,1.3,1.3,1.4c0,0,0,0,0,0c0,0,0,0,0,0c0.7,0,1.3-0.6,1.3-1.4
			C667.1,649,666.6,649.5,666.4,650.1z"/>
		<g>
			<rect x="714.2" y="608.1" class="st0" width="4.7" height="3.9"/>
			<rect x="722.4" y="608.1" class="st0" width="4.7" height="3.9"/>
			<rect x="730.6" y="608.1" class="st0" width="4.7" height="3.9"/>
		</g>
		<rect x="674.5" y="638.3" class="st20" width="3.9" height="1.4"/>
		<rect x="659.7" y="625.6" class="st20" width="3.9" height="1.4"/>
		<rect x="655.4" y="639.3" class="st20" width="3.9" height="1.4"/>
		<rect x="699" y="629" class="st20" width="3.9" height="1.4"/>
		<rect x="709.3" y="635.4" class="st20" width="3.9" height="1.4"/>
		<rect x="725.3" y="631.5" class="st20" width="3.9" height="1.4"/>
		<rect x="731.2" y="628" class="st20" width="1.4" height="1.4"/>
		<rect x="664.9" y="632.2" class="st20" width="1.4" height="1.4"/>
		<rect x="667.5" y="611.2" class="st20" width="1.4" height="1.4"/>
		<rect x="647.9" y="608" class="st16" width="2.7" height="9.6"/>
		<rect x="714.2" y="608" class="st16" width="2.7" height="9.6"/>
		<rect x="696.2" y="635.8" class="st15" width="7.8" height="14.5"/>
	</g>
	<g class="st3">
		<path class="st21" d="M665.6,597.7c-2.3-0.1-4.6,2.2-6.8,2.2c0-1.5,0-3,0-4.4C661.1,596.9,663.4,596.1,665.6,597.7z"/>
	</g>
	<g class="st3">
		<path class="st21" d="M731.9,597.7c-2.3-0.1-4.6,2.2-6.8,2.2c0-1.5,0-3,0-4.4C727.4,596.9,729.6,596.1,731.9,597.7z"/>
	</g>
</g>
<path class="st19" d="M0,488.1h289.1c21.1,0,41.3,8.4,56.2,23.3l114.9,114.9c14.9,14.9,35.1,23.3,56.2,23.3h220.7
	c21.1,0,41.3,8.4,56.2,23.3L929,808.6H0V488.1z"/>
<rect x="1501.1" y="517.2" class="st10" width="2.5" height="37.3"/>
<rect x="1503" y="517.2" class="st22" width="0.6" height="37.3"/>
<g class="st23">
	<g>
		<rect x="900.4" y="746" class="st24" width="2.6" height="38.8"/>
		<rect x="902.5" y="746" class="st10" width="0.5" height="38.8"/>
	</g>
	<g>
		<rect x="918" y="746.1" class="st24" width="2.6" height="38.8"/>
		<rect x="919.8" y="746.1" class="st10" width="0.7" height="38.8"/>
	</g>
	<g>
		<g>
			<rect x="913.1" y="748.3" class="st24" width="1.6" height="36.2"/>
			<rect x="914.2" y="748.3" class="st10" width="0.4" height="36.2"/>
		</g>
		<g>
			<g>
				<rect x="907.4" y="781.4" class="st10" width="5.7" height="1"/>
				<rect x="907.4" y="777" class="st10" width="5.7" height="1"/>
				<rect x="907.4" y="772.6" class="st10" width="5.7" height="1"/>
				<rect x="907.4" y="768.1" class="st10" width="5.7" height="1"/>
				<rect x="907.4" y="763.7" class="st10" width="5.7" height="1"/>
				<rect x="907.4" y="759.3" class="st10" width="5.7" height="1"/>
				<rect x="907.4" y="754.8" class="st10" width="5.7" height="1"/>
				<rect x="907.4" y="750.4" class="st10" width="5.7" height="1"/>
			</g>
		</g>
		<g>
			<rect x="906.4" y="748.3" class="st24" width="1.6" height="36.2"/>
			<rect x="907.5" y="748.3" class="st10" width="0.4" height="36.2"/>
		</g>
	</g>
	<rect x="895.5" y="731.5" class="st10" width="30" height="17.1"/>
	<path class="st25" d="M910.5,738.2L910.5,738.2c-2.3,0-4.1,1.9-4.1,4.1v6.2h8.3v-6.2C914.6,740.1,912.8,738.2,910.5,738.2z"/>
	<g>
		<rect x="921.4" y="727.3" class="st10" width="4.1" height="5.2"/>
		<rect x="912.7" y="727.3" class="st10" width="4.1" height="5.2"/>
		<rect x="904.1" y="727.3" class="st10" width="4.1" height="5.2"/>
		<rect x="895.5" y="727.3" class="st10" width="4.1" height="5.2"/>
	</g>
</g>
<rect x="1696.1" y="517.2" class="st22" width="0.6" height="37.3"/>
<g>
	<rect x="499.7" y="491.9" class="st12" width="1" height="14.9"/>
	<rect x="422.5" y="491.9" class="st12" width="1" height="14.9"/>
	<rect x="423.2" y="491.9" class="st13" width="0.2" height="14.9"/>
	<rect x="500.5" y="491.9" class="st13" width="0.2" height="14.9"/>
	<g class="st3">
		<path class="st14" d="M511.4,536.7l-5.5,17.3c-0.4,1.1,0.5,2.2,1.6,2.2h7.7c1.2,0,2-1.1,1.6-2.2L511.4,536.7z"/>
		<path class="st14" d="M506.4,548.1v-3.3c0-1.7,1.4-3.1,3.1-3.1l0,0c1.7,0,3.1,1.4,3.1,3.1v3.3c0,1.7-1.4,3.1-3.1,3.1l0,0
			C507.8,551.2,506.4,549.9,506.4,548.1z"/>
		<path class="st14" d="M406.8,550.7v-2.2c0-1.1,0.9-2,2-2l0,0c1.1,0,2,0.9,2,2v2.2c0,1.1-0.9,2-2,2l0,0
			C407.7,552.7,406.8,551.8,406.8,550.7z"/>
		<path class="st14" d="M408.8,548.2V545c0-1.7,1.3-3,3-3l0,0c1.7,0,3,1.3,3,3v3.2c0,1.7-1.3,3-3,3l0,0
			C410.2,551.2,408.8,549.8,408.8,548.2z"/>
		<rect x="432.2" y="527.9" class="st15" width="58.9" height="28.4"/>
		<g>
			<rect x="432.2" y="524.3" class="st15" width="5.5" height="5"/>
			<rect x="443" y="524.3" class="st15" width="5.5" height="5"/>
			<rect x="453.7" y="524.3" class="st15" width="5.5" height="5"/>
			<rect x="464.2" y="524.3" class="st15" width="5.5" height="5"/>
			<rect x="474.9" y="524.3" class="st15" width="5.5" height="5"/>
			<rect x="485.7" y="524.3" class="st15" width="5.5" height="5"/>
		</g>
		<rect x="491.2" y="522.4" class="st0" width="18.4" height="33.9"/>
		<rect x="491.2" y="522.4" class="st16" width="3.1" height="33.9"/>
		<rect x="413.9" y="522.4" class="st0" width="18.4" height="33.9"/>
		<g>
			<rect x="410.8" y="506.7" class="st0" width="5.5" height="4.5"/>
			<rect x="420.3" y="506.7" class="st0" width="5.5" height="4.5"/>
			<rect x="429.9" y="506.7" class="st0" width="5.5" height="4.5"/>
		</g>
		<rect x="413.9" y="522.4" class="st16" width="3.1" height="33.9"/>
		<polygon class="st17" points="432.2,517.9 423.2,517.9 422.9,517.9 413.9,517.9 410.8,517.9 413.9,523.4 432.2,523.4 435.3,517.9 
					"/>
		<rect x="410.8" y="510.3" class="st0" width="24.6" height="7.6"/>
		<polygon class="st17" points="509.5,517.9 500.5,517.9 500.2,517.9 491.2,517.9 488.1,517.9 491.2,523.4 509.5,523.4 512.6,517.9 
					"/>
		<rect x="488.1" y="510.3" class="st0" width="24.6" height="7.6"/>
		<path class="st18" d="M461,537.9L461,537.9c3.3,0,6,2.7,6,6v12.3H455v-12.3C455,540.6,457.7,537.9,461,537.9z"/>
		<g>
			<path class="st19" d="M413.4,554c0.1-0.3,0.2-0.6,0.4-0.8V545c-2.4,0.8-4.3,2.9-4.8,5.5c-0.1,0-0.1,0-0.2,0
				c-2.9,0-5.2,2.3-5.2,5.2c0,0.2,0,0.3,0,0.5h7.5C411.2,555,412.2,554,413.4,554z"/>
			<path class="st19" d="M421,553.1C421,553,421,553,421,553.1c0-3.1-2.4-5.5-5.4-5.5c-0.6,0-1.2,0.1-1.8,0.3v6.1
				c0.3-0.4,0.8-0.6,1.3-0.6c0.8,0,1.4,0.5,1.6,1.2c0.9,0,1.7,0.8,1.7,1.7h5.5C423.9,554.6,422.7,553.3,421,553.1z"/>
			<path class="st14" d="M413.4,553.8c-1.3,0-2.4,1.1-2.4,2.5h2.9v-3.3C413.7,553.2,413.5,553.5,413.4,553.8z"/>
			<path class="st14" d="M418.1,553.8c-0.3-1-1.2-1.8-2.4-1.8c-0.8,0-1.4,0.4-1.9,0.9v3.3h6.7C420.6,554.9,419.5,553.8,418.1,553.8z
				"/>
		</g>
		<path class="st19" d="M507.9,556.3c0.1-0.4,0.2-0.8,0.2-1.2c0-1.9-1.5-3.4-3.4-3.4s-3.4,1.5-3.4,3.4c0,0.4,0.1,0.8,0.2,1.2H507.9z
			"/>
		<circle class="st19" cx="508.4" cy="552.8" r="3.5"/>
		<path class="st19" d="M515.9,555.3c0.1-0.4,0.2-0.8,0.2-1.2c0-1.9-1.5-3.4-3.4-3.4c-1.9,0-3.4,1.5-3.4,3.4c0,0.4,0.1,0.8,0.2,1.2
			H515.9z"/>
		<circle class="st19" cx="515.4" cy="552.8" r="3.5"/>
		<g>
			<path class="st14" d="M511.3,552.2c0.1,0,0.3,0,0.4,0v4h-4.5C507.3,554,509.1,552.2,511.3,552.2z"/>
			<path class="st14" d="M514.5,553.8c0.3-0.1,0.6-0.1,0.9-0.1c1.5,0,2.6,1.2,2.6,2.6h-6.3v-4C512.8,552.3,513.8,552.9,514.5,553.8z
				"/>
		</g>
		<path class="st14" d="M483.9,581.1c-0.2-0.7-0.9-1.3-1.7-1.3c0,0.9,0.7,1.7,1.6,1.7c0,0,0,0,0.1,0c0,0,0,0,0.1,0
			c0.9-0.1,1.6-0.8,1.6-1.7C484.8,579.8,484.1,580.3,483.9,581.1z"/>
		<path class="st19" d="M432.4,555.9c-0.2-0.7-0.8-1.2-1.6-1.2c0,0.9,0.7,1.5,1.5,1.6c0,0,0,0,0.1,0c0,0,0,0,0.1,0
			c0.8-0.1,1.5-0.7,1.5-1.6C433.2,554.7,432.5,555.2,432.4,555.9z"/>
		<g>
			<rect x="488.1" y="506.7" class="st0" width="5.5" height="4.5"/>
			<rect x="497.6" y="506.7" class="st0" width="5.5" height="4.5"/>
			<rect x="507.2" y="506.7" class="st0" width="5.5" height="4.5"/>
		</g>
		<rect x="439.8" y="547.2" class="st20" width="4.5" height="1.7"/>
		<rect x="419.5" y="527.4" class="st20" width="4.5" height="1.7"/>
		<rect x="422.5" y="545.4" class="st20" width="4.5" height="1.7"/>
		<rect x="444.3" y="534.4" class="st20" width="4.5" height="1.7"/>
		<rect x="478.3" y="533.8" class="st20" width="4.5" height="1.7"/>
		<rect x="499" y="540.2" class="st20" width="4.5" height="1.7"/>
		<rect x="507.9" y="529.2" class="st20" width="1.7" height="1.7"/>
		<rect x="430.6" y="537.1" class="st20" width="1.7" height="1.7"/>
		<rect x="433.7" y="511.7" class="st20" width="1.7" height="1.7"/>
		<rect x="410.8" y="507" class="st16" width="3.1" height="10.9"/>
		<rect x="488.1" y="507" class="st16" width="3.1" height="10.9"/>
		<rect x="467.1" y="539.3" class="st15" width="9.1" height="16.9"/>
	</g>
	<g class="st3">
		<path class="st26" d="M431.4,494.5c-2.7-0.1-5.3,2.5-8,2.6c0-1.7,0-3.5,0-5.2C426.1,493.6,428.8,492.7,431.4,494.5z"/>
	</g>
	<g class="st3">
		<path class="st26" d="M508.7,494.5c-2.7-0.1-5.3,2.5-8,2.6c0-1.7,0-3.5,0-5.2C503.4,493.6,506,492.7,508.7,494.5z"/>
	</g>
</g>
<path class="st27" d="M0,681h151.3c40.1,0,78.6-15.9,107-44.3l36.4-36.4c28.4-28.4,66.9-44.3,107-44.3h131.6
	c40.1,0,78.6,15.9,107,44.3l137.4,137.4c28.4,28.4,66.9,44.3,107,44.3h207.6c40.1,0,78.6-15.9,107-44.3l42.9-42.9
	c28.4-28.4,66.9-44.3,107-44.3H1920V1080H0V681z"/>
<path class="st19" d="M1920,789h-95.1c-19.1,0-37.5,7.6-51,21.1l-104.2,104.2c-13.5,13.5-31.9,21.1-51,21.1h-200.1
	c-19.1,0-37.5,7.6-51,21.1l-123.1,123.1h674.7L1920,789z"/>
<g>
	<path class="st14" d="M1475.9,631.1l-13.7,43.3c-0.9,2.8,1.2,5.6,4.1,5.6h19.3c2.9,0,5-2.8,4.1-5.6L1475.9,631.1z"/>
	<path class="st14" d="M1465.1,643.6l-10.2,32.3c-0.7,2.1,0.9,4.2,3.1,4.2h14.4c2.2,0,3.7-2.1,3.1-4.2L1465.1,643.6z"/>
	<path class="st14" d="M1713.4,659.8v-8.4c0-4.3,3.5-7.8,7.8-7.8l0,0c4.3,0,7.8,3.5,7.8,7.8v8.4c0,4.3-3.5,7.8-7.8,7.8l0,0
		C1716.9,667.5,1713.4,664.1,1713.4,659.8z"/>
	<path class="st14" d="M1721.8,667.5v-8.4c0-4.3,3.5-7.8,7.8-7.8l0,0c4.3,0,7.8,3.5,7.8,7.8v8.4c0,4.3-3.5,7.8-7.8,7.8l0,0
		C1725.2,675.3,1721.8,671.8,1721.8,667.5z"/>
	<rect x="1525.5" y="609.1" class="st15" width="147.3" height="71"/>
	<g>
		<rect x="1525.5" y="598.7" class="st15" width="13.7" height="12.5"/>
		<rect x="1552.4" y="598.7" class="st15" width="13.7" height="12.5"/>
		<rect x="1579.2" y="598.7" class="st15" width="13.7" height="12.5"/>
		<rect x="1605.5" y="598.7" class="st15" width="13.7" height="12.5"/>
		<rect x="1632.3" y="598.7" class="st15" width="13.7" height="12.5"/>
		<rect x="1659.1" y="598.7" class="st15" width="13.7" height="12.5"/>
	</g>
	<rect x="1672.9" y="595.4" class="st0" width="45.9" height="84.7"/>
	<rect x="1672.9" y="595.4" class="st16" width="7.8" height="84.7"/>
	<rect x="1479.6" y="595.4" class="st0" width="45.9" height="84.7"/>
	<g>
		<rect x="1471.9" y="554.2" class="st0" width="13.7" height="11.3"/>
		<rect x="1495.7" y="554.2" class="st0" width="13.7" height="11.3"/>
		<rect x="1519.6" y="554.2" class="st0" width="13.7" height="11.3"/>
	</g>
	<rect x="1479.6" y="595.4" class="st16" width="7.8" height="84.7"/>
	<polygon class="st17" points="1525.5,582.6 1502.9,582.6 1502.3,582.6 1479.6,582.6 1471.9,582.6 1479.6,596.4 1525.5,596.4 
		1533.3,582.6 	"/>
	<rect x="1471.9" y="564.5" class="st0" width="61.4" height="19.1"/>
	<polygon class="st17" points="1718.8,582.6 1696.1,582.6 1695.5,582.6 1672.9,582.6 1665.1,582.6 1672.9,596.4 1718.8,596.4 
		1726.5,582.6 	"/>
	<rect x="1665.1" y="564.5" class="st0" width="61.4" height="19.1"/>
	<path class="st18" d="M1597.5,634.1L1597.5,634.1c8.3,0,15.1,6.8,15.1,15.1v30.8h-30.2v-30.8
		C1582.5,640.9,1589.2,634.1,1597.5,634.1z"/>
	<g>
		<path class="st19" d="M1478.4,673.9c0.2-0.8,0.6-1.6,1.2-2.2v-22.4c-6.7,2.3-11.8,8-13.1,15.1c-0.2,0-0.4,0-0.6,0
			c-7.9,0-14.2,6.4-14.2,14.2c0,0.5,0,0.9,0.1,1.4h20.6C1472.4,676.7,1475.1,673.9,1478.4,673.9z"/>
		<path class="st19" d="M1497.5,672.1c0-0.1,0-0.2,0-0.2c0-7.5-6.1-13.6-13.6-13.6c-1.5,0-3,0.3-4.4,0.7v15.3
			c0.8-0.9,1.9-1.5,3.2-1.5c1.9,0,3.5,1.3,4,3.1c2.3,0,4.2,1.9,4.2,4.2h13.7C1504.7,675.9,1501.6,672.6,1497.5,672.1z"/>
		<path class="st14" d="M1478.4,673.9c-3.4,0-6.1,2.8-6.1,6.1h7.3v-8.4C1479.1,672.3,1478.7,673.1,1478.4,673.9z"/>
		<path class="st14" d="M1490.3,673.9c-0.7-2.6-3.1-4.5-5.9-4.5c-1.9,0-3.6,0.9-4.7,2.3v8.4h16.7
			C1496.3,676.7,1493.6,673.9,1490.3,673.9z"/>
	</g>
	<path class="st19" d="M1714.6,680.1c0.4-0.9,0.6-2,0.6-3c0-4.8-3.9-8.6-8.6-8.6s-8.6,3.9-8.6,8.6c0,1.1,0.2,2.1,0.6,3H1714.6z"/>
	<circle class="st19" cx="1718.5" cy="670.2" r="8.6"/>
	<g>
		<path class="st19" d="M1735,663.3c-0.6,0-1.2,0-1.8,0.1c-2-6.3-7.6-11.1-14.4-11.7V670c0.3,0,0.7-0.1,1-0.1
			c5.6,0,10.1,4.5,10.1,10.1h21.8C1751.7,670.8,1744.2,663.3,1735,663.3z"/>
		<path class="st14" d="M1719.8,669.9c-0.3,0-0.7,0-1,0.1v10.1h11.1C1729.9,674.5,1725.4,669.9,1719.8,669.9z"/>
		<path class="st14" d="M1711.8,673.8c-0.7-0.2-1.4-0.4-2.1-0.4c-3.6,0-6.6,2.9-6.6,6.6h15.7V670
			C1716,670.3,1713.5,671.7,1711.8,673.8z"/>
	</g>
	<path class="st19" d="M1525.8,679.3c-0.4-1.7-2-3-3.9-3c0,2.1,1.7,3.9,3.7,4c0,0,0.1,0,0.1,0c0,0,0.1,0,0.1,0
		c2.1-0.1,3.7-1.9,3.7-4C1527.8,676.3,1526.3,677.5,1525.8,679.3z"/>
	<g>
		<rect x="1665.1" y="554.2" class="st0" width="13.7" height="11.3"/>
		<rect x="1689" y="554.2" class="st0" width="13.7" height="11.3"/>
		<rect x="1712.8" y="554.2" class="st0" width="13.7" height="11.3"/>
	</g>
	<rect x="1547" y="632.3" class="st20" width="11.3" height="4.2"/>
	<rect x="1498.7" y="618" class="st20" width="11.3" height="4.2"/>
	<rect x="1628.1" y="618" class="st20" width="11.3" height="4.2"/>
	<rect x="1639.5" y="625.2" class="st20" width="11.3" height="4.2"/>
	<rect x="1697.3" y="615" class="st20" width="11.3" height="4.2"/>
	<rect x="1714.6" y="604.9" class="st20" width="4.2" height="4.2"/>
	<rect x="1521.4" y="634.7" class="st20" width="4.2" height="4.2"/>
	<rect x="1529.1" y="566.1" class="st20" width="4.2" height="4.2"/>
	<rect x="1471.9" y="554" class="st16" width="7.8" height="29.6"/>
	<rect x="1665.1" y="554" class="st16" width="7.8" height="29.6"/>
	<path class="st28" d="M1615.3,677.9c-0.7-1.4-1.6-2.2-2.4-2.7v-5c0-0.5-0.4-0.9-0.9-0.9h-10c-0.5,0-0.9,0.4-0.9,0.9v5.1
		c-0.8,0.5-1.6,1.3-2.4,2.7c-0.1,0.1,0,0.3,0.1,0.4c0,0,0.1,0,0.1,0c0.1,0,0.2-0.1,0.2-0.1c0.6-1.1,1.2-1.8,1.9-2.3v0.9
		c0,0.5,0.4,0.9,0.9,0.9h1.7c0,0.6,0.1,1.2,0.3,2c0,0.1,0.1,0.2,0.3,0.2c0,0,0.1,0,0.1,0c0.1-0.1,0.2-0.2,0.2-0.4
		c-0.3-0.7-0.3-1.3-0.3-1.8h5c0,0.6,0.1,1.2,0.3,2c0,0.1,0.1,0.2,0.3,0.2c0,0,0.1,0,0.1,0c0.1-0.1,0.2-0.2,0.2-0.4
		c-0.3-0.7-0.3-1.3-0.3-1.8h2.2c0.5,0,0.9-0.4,0.9-0.9v-1c0.6,0.5,1.3,1.2,1.9,2.3c0,0.1,0.1,0.1,0.2,0.1c0,0,0.1,0,0.1,0
		C1615.3,678.2,1615.3,678.1,1615.3,677.9z"/>
	<rect x="1612.6" y="637.7" class="st15" width="22.7" height="42.3"/>
</g>
<path class="st19" d="M1538.1,855c-0.6-2.2-2.6-3.9-5-3.9c0,2.7,2.1,5,4.8,5.2c0.1,0,0.1,0,0.2,0c0.1,0,0.1,0,0.2,0
	c2.7-0.2,4.8-2.4,4.8-5.2C1540.7,851.2,1538.7,852.8,1538.1,855z"/>
<path class="st19" d="M1772.1,753c-0.6-2.2-2.6-3.9-5-3.9c0,2.7,2.1,5,4.8,5.2c0.1,0,0.1,0,0.2,0c0.1,0,0.1,0,0.2,0
	c2.7-0.2,4.8-2.4,4.8-5.2C1774.7,749.2,1772.7,750.8,1772.1,753z"/>
<path class="st19" d="M1432.7,902.8c-0.7-2.7-3.1-4.6-6-4.6c0,3.3,2.6,6,5.8,6.2c0.1,0,0.1,0,0.2,0c0.1,0,0.1,0,0.2,0
	c3.2-0.2,5.8-2.9,5.8-6.2C1435.8,898.1,1433.4,900.1,1432.7,902.8z"/>
<path class="st19" d="M1432.7,841.8c-0.6-2.2-2.6-3.9-5-3.9c0,2.7,2.1,5,4.8,5.2c0.1,0,0.1,0,0.2,0c0.1,0,0.1,0,0.2,0
	c2.7-0.2,4.8-2.4,4.8-5.2C1435.3,837.9,1433.3,839.6,1432.7,841.8z"/>
<path class="st19" d="M683.4,797c-0.6-2.2-2.6-3.9-5-3.9c0,2.7,2.1,5,4.8,5.2c0.1,0,0.1,0,0.2,0c0.1,0,0.1,0,0.2,0
	c2.7-0.2,4.8-2.4,4.8-5.2C686,793.2,684,794.8,683.4,797z"/>
<path class="st19" d="M311.4,636.8c-0.5-1.8-2.1-3.1-4-3.1c0,2.2,1.7,4,3.9,4.1c0,0,0.1,0,0.1,0c0,0,0.1,0,0.1,0
	c2.2-0.1,3.9-1.9,3.9-4.1C313.5,633.7,311.9,635,311.4,636.8z"/>
<path class="st19" d="M25.4,697.8c-0.5-1.8-2.1-3.1-4-3.1c0,2.2,1.7,4,3.9,4.1c0,0,0.1,0,0.1,0c0,0,0.1,0,0.1,0
	c2.2-0.1,3.9-1.9,3.9-4.1C27.5,694.7,25.9,696,25.4,697.8z"/>
<path class="st19" d="M1219.7,978c-0.7-2.7-3.1-4.6-6-4.6c0,3.3,2.6,6,5.8,6.2c0.1,0,0.1,0,0.2,0c0.1,0,0.1,0,0.2,0
	c3.2-0.2,5.8-2.9,5.8-6.2C1222.8,973.4,1220.4,975.3,1219.7,978z"/>
<path class="st19" d="M1103.7,813.8c-0.6-2.2-2.6-3.9-5-3.9c0,2.7,2.1,5,4.8,5.2c0.1,0,0.1,0,0.2,0c0.1,0,0.1,0,0.2,0
	c2.7-0.2,4.8-2.4,4.8-5.2C1106.3,809.9,1104.3,811.5,1103.7,813.8z"/>
<path class="st19" d="M839.7,844.8c-0.6-2.2-2.6-3.9-5-3.9c0,2.7,2.1,5,4.8,5.2c0.1,0,0.1,0,0.2,0c0.1,0,0.1,0,0.2,0
	c2.7-0.2,4.8-2.4,4.8-5.2C842.3,840.9,840.3,842.5,839.7,844.8z"/>
<path class="st19" d="M511.7,883.8c-0.6-2.2-2.6-3.9-5-3.9c0,2.7,2.1,5,4.8,5.2c0.1,0,0.1,0,0.2,0c0.1,0,0.1,0,0.2,0
	c2.7-0.2,4.8-2.4,4.8-5.2C514.3,879.9,512.3,881.5,511.7,883.8z"/>
<path class="st19" d="M725.7,879.8c-0.6-2.2-2.6-3.9-5-3.9c0,2.7,2.1,5,4.8,5.2c0.1,0,0.1,0,0.2,0c0.1,0,0.1,0,0.2,0
	c2.7-0.2,4.8-2.4,4.8-5.2C728.3,875.9,726.3,877.5,725.7,879.8z"/>
<polygon class="st29" points="975.9,935 953.9,913 937.9,913 922.9,898 884.9,898 848.9,935 "/>
<polygon class="st30" points="958.7,935 942.7,918.9 931,918.9 920,908 892.3,908 866,935 "/>
<polygon class="st31" points="945,935 933.7,923.7 925.5,923.7 917.8,916 898.3,916 879.8,935 "/>
<g>
	<rect x="555" y="684" class="st24" width="5" height="75"/>
	<rect x="559" y="684" class="st10" width="1" height="75"/>
</g>
<g>
	<rect x="589" y="684.3" class="st24" width="5" height="75"/>
	<rect x="592.5" y="684.3" class="st10" width="1.4" height="75"/>
</g>
<g>
	<g>
		<rect x="579.5" y="688.5" class="st24" width="3" height="70"/>
		<rect x="581.6" y="688.5" class="st10" width="0.9" height="70"/>
	</g>
	<g>
		<g>
			<rect x="568.5" y="752.5" class="st10" width="11" height="2"/>
			<rect x="568.5" y="743.9" class="st10" width="11" height="2"/>
			<rect x="568.5" y="735.4" class="st10" width="11" height="2"/>
			<rect x="568.5" y="726.8" class="st10" width="11" height="2"/>
			<rect x="568.5" y="718.2" class="st10" width="11" height="2"/>
			<rect x="568.5" y="709.6" class="st10" width="11" height="2"/>
			<rect x="568.5" y="701.1" class="st10" width="11" height="2"/>
			<rect x="568.5" y="692.5" class="st10" width="11" height="2"/>
		</g>
	</g>
	<g>
		<rect x="566.5" y="688.5" class="st24" width="3" height="70"/>
		<rect x="568.6" y="688.5" class="st10" width="0.9" height="70"/>
	</g>
</g>
<rect x="545.5" y="656" class="st10" width="58" height="33"/>
<path class="st25" d="M574.5,669L574.5,669c-4.4,0-8,3.6-8,8v12h16v-12C582.5,672.6,578.9,669,574.5,669z"/>
<path class="st32" d="M1784.9,337c0.1-1,0.2-1.9,0.2-2.9c0-14.3-11.6-25.9-25.9-25.9c-3.6,0-7.1,0.7-10.2,2.1
	c-5.7-11-17.1-18.5-30.3-18.5c-15.1,0-28,9.9-32.4,23.5c-2.5-0.9-5.2-1.5-8.1-1.5c-12.8,0-23.1,10.3-23.1,23.1c0,0,0,0.1,0,0.1
	H1784.9z"/>
<path class="st32" d="M140.3,292c-0.1-0.8-0.1-1.6-0.1-2.5c0-12.1,9.8-21.9,21.9-21.9c3.1,0,6,0.6,8.6,1.8
	c4.8-9.3,14.5-15.6,25.7-15.6c12.8,0,23.7,8.3,27.4,19.9c2.1-0.8,4.4-1.2,6.8-1.2c10.8,0,19.5,8.8,19.5,19.5c0,0,0,0.1,0,0.1H140.3z
	"/>
<path class="st32" d="M529.3,197c-0.1-0.7-0.1-1.5-0.1-2.3c0-11,8.9-19.9,19.9-19.9c2.8,0,5.4,0.6,7.8,1.6
	c4.4-8.4,13.2-14.2,23.3-14.2c11.6,0,21.5,7.6,24.9,18.1c1.9-0.7,4-1.1,6.2-1.1c9.8,0,17.8,8,17.8,17.8c0,0,0,0.1,0,0.1H529.3z"/>
<circle class="st33" cx="960" cy="219" r="53.5"/>
<path class="st32" d="M1068.2,258c-3.1,0-6,0.6-8.7,1.6c-4.8-14.7-18.6-25.3-34.9-25.3c-2.9,0-5.7,0.3-8.4,1
	c-4.3-4.4-10.3-7.2-17-7.2c-13.1,0-23.7,10.6-23.7,23.7c0,0.2,0,0.5,0,0.7c-12.8,2.5-22.5,13.8-22.5,27.4c0,1.1,0.1,2.1,0.2,3.2
	h139.8c0,0,0-0.1,0-0.1C1093.1,269.2,1082,258,1068.2,258z"/>
<g>
	<ellipse class="st34" cx="1543.1" cy="774.1" rx="9.8" ry="1"/>
	<g>
		<path class="st5" d="M1555.3,768.8h-24.6c-1.2,0-2.3-1-2.3-2.3v-16.4c0-1.2,1-2.3,2.3-2.3h24.6c1.2,0,2.3,1,2.3,2.3v16.4
			C1557.6,767.8,1556.6,768.8,1555.3,768.8z"/>
	</g>
	<path class="st35" d="M1551.3,762.9c0,0,6.3,0.1,10.7-8"/>
	<path class="st35" d="M1534.7,762.9c0,0-6.3,0.1-10.7-8"/>
	<path class="st35" d="M1535.5,764.2c0,0,2.5,3.8,0.5,9.3"/>
	<path class="st35" d="M1549.3,764.2c0,0,2.5,3.8,0.5,9.3"/>
	<g>
		<path class="st7" d="M1535.5,762.8L1535.5,762.8c-0.5,0-0.8-0.4-0.8-0.8v-2.4c0-0.5,0.4-0.8,0.8-0.8l0,0c0.5,0,0.8,0.4,0.8,0.8
			v2.4C1536.3,762.4,1535.9,762.8,1535.5,762.8z"/>
	</g>
	<g>
		<path class="st7" d="M1550.6,762.8L1550.6,762.8c-0.5,0-0.8-0.4-0.8-0.8v-2.4c0-0.5,0.4-0.8,0.8-0.8l0,0c0.5,0,0.8,0.4,0.8,0.8
			v2.4C1551.5,762.4,1551.1,762.8,1550.6,762.8z"/>
	</g>
	<g>
		<path class="st7" d="M1543.1,766.7c-2.5,0-4.6-1.1-5-2.5c0-0.1-0.1-0.3-0.1-0.5c0-1.6,2.3-0.8,5.1-0.8c0,0,0,0,0.1,0
			c2.8,0,5-0.8,5,0.8C1548.1,765.4,1545.9,766.7,1543.1,766.7z"/>
	</g>
</g>
<g>
	<ellipse class="st34" cx="1620" cy="736.1" rx="8.2" ry="0.9"/>
	<g>
		<path class="st5" d="M1609.6,731.7h20.7c1,0,1.9-0.9,1.9-1.9v-13.8c0-1-0.9-1.9-1.9-1.9h-20.7c-1,0-1.9,0.9-1.9,1.9v13.8
			C1607.7,730.8,1608.6,731.7,1609.6,731.7z"/>
	</g>
	<path class="st36" d="M1613,726.7c0,0-5.3,0.1-9-6.8"/>
	<path class="st36" d="M1627,724.9c0,0,5.3-0.1,9,6.8"/>
	<path class="st36" d="M1626.3,727.8c0,0-2.1,3.2-0.4,7.8"/>
	<path class="st36" d="M1614.7,727.8c0,0-2.1,3.2-0.4,7.8"/>
	<g>
		<path class="st7" d="M1626.3,726.6L1626.3,726.6c0.4,0,0.7-0.3,0.7-0.7v-2c0-0.4-0.3-0.7-0.7-0.7l0,0c-0.4,0-0.7,0.3-0.7,0.7v2
			C1625.7,726.2,1626,726.6,1626.3,726.6z"/>
	</g>
	<g>
		<path class="st7" d="M1613.6,726.6L1613.6,726.6c0.4,0,0.7-0.3,0.7-0.7v-2c0-0.4-0.3-0.7-0.7-0.7l0,0c-0.4,0-0.7,0.3-0.7,0.7v2
			C1612.9,726.2,1613.2,726.6,1613.6,726.6z"/>
	</g>
	<g>
		<path class="st7" d="M1620,729.9c2.1,0,3.9-0.9,4.2-2.1c0-0.1,0-0.3,0-0.4c0-1.4-1.9-0.7-4.3-0.7c0,0,0,0,0,0
			c-2.3,0-4.2-0.7-4.2,0.7C1615.7,728.8,1617.6,729.9,1620,729.9z"/>
	</g>
</g>
<g>
	<path class="st37" d="M1523.5,523.7c-6.6-0.2-13.3,6.4-19.9,6.5c0-4.3,0-8.6,0-13C1510.3,521.5,1516.9,519.2,1523.5,523.7z"/>
</g>
<g>
	<path class="st37" d="M1716.7,523.7c-6.6-0.2-13.3,6.4-19.9,6.5c0-4.3,0-8.6,0-13C1703.4,521.5,1710,519.2,1716.7,523.7z"/>
</g>
<polygon class="st29" points="461.9,727 447.1,712.2 427.6,712.2 417.5,702.1 406.1,702.1 381.9,727 "/>
<polygon class="st31" points="438.7,727.2 432.5,721 424.3,721 420,716.7 415.2,716.7 405.1,727.2 "/>
<path class="st38" d="M997,782l-58.5,58.5c-11.8,11.8-3.4,32,13.2,32h89.1c16.7,0,25,20.2,13.2,32l-91.9,92l-82.4,82.5H1011
	l83.2-83.3l117.2-117.3c11.8-11.8,3.4-32-13.2-32h-132.3c-16.5,0-24.9-19.8-13.5-31.7l31.3-32.7H997z"/>
<path class="st19" d="M0,759.1h289.1c21.1,0,41.3,8.4,56.2,23.3l114.9,114.9c14.9,14.9,35.1,23.3,56.2,23.3h220.7
	c21.1,0,41.3,8.4,56.2,23.3L929,1079.6H0V759.1z"/>
<path class="st39" d="M1166.6,877h-19.2c-2.2,0-4-1.8-4-4l0,0c0-2.2,1.8-4,4-4h19.2c2.2,0,4,1.8,4,4l0,0
	C1170.6,875.2,1168.8,877,1166.6,877z"/>
<path class="st39" d="M1082.6,923h-19.2c-2.2,0-4-1.8-4-4l0,0c0-2.2,1.8-4,4-4h19.2c2.2,0,4,1.8,4,4l0,0
	C1086.6,921.2,1084.8,923,1082.6,923z"/>
<path class="st39" d="M1085.8,981.5h-21.6c-2.5,0-4.5-2-4.5-4.5l0,0c0-2.5,2-4.5,4.5-4.5h21.6c2.5,0,4.5,2,4.5,4.5l0,0
	C1090.3,979.5,1088.3,981.5,1085.8,981.5z"/>
<path class="st39" d="M990.8,1027.5h-21.6c-2.5,0-4.5-2-4.5-4.5l0,0c0-2.5,2-4.5,4.5-4.5h21.6c2.5,0,4.5,2,4.5,4.5l0,0
	C995.3,1025.5,993.3,1027.5,990.8,1027.5z"/>
<path class="st39" d="M1002.7,855.8h-14.4c-1.7,0-3-1.3-3-3l0,0c0-1.7,1.3-3,3-3h14.4c1.7,0,3,1.3,3,3l0,0
	C1005.7,854.5,1004.4,855.8,1002.7,855.8z"/>
<path class="st39" d="M1038.5,802.7h-12c-1.4,0-2.5-1.1-2.5-2.5l0,0c0-1.4,1.1-2.5,2.5-2.5h12c1.4,0,2.5,1.1,2.5,2.5l0,0
	C1041,801.6,1039.8,802.7,1038.5,802.7z"/>
<g>
	<ellipse class="st34" cx="1216.9" cy="902.1" rx="9.8" ry="1"/>
	<g>
		<path class="st5" d="M1204.7,896.8h24.6c1.2,0,2.3-1,2.3-2.3v-16.4c0-1.2-1-2.3-2.3-2.3h-24.6c-1.2,0-2.3,1-2.3,2.3v16.4
			C1202.4,895.8,1203.4,896.8,1204.7,896.8z"/>
	</g>
	<path class="st35" d="M1208.7,888.9c0,0-6.3-0.1-10.7,8"/>
	<path class="st35" d="M1225.3,890.9c0,0,6.3,0.1,10.7-8"/>
	<path class="st35" d="M1224.5,892.2c0,0-2.5,3.8-0.5,9.3"/>
	<path class="st35" d="M1210.7,892.2c0,0-2.5,3.8-0.5,9.3"/>
	<g>
		<path class="st7" d="M1224.5,890.8L1224.5,890.8c0.5,0,0.8-0.4,0.8-0.8v-2.4c0-0.5-0.4-0.8-0.8-0.8l0,0c-0.5,0-0.8,0.4-0.8,0.8
			v2.4C1223.7,890.4,1224.1,890.8,1224.5,890.8z"/>
	</g>
	<g>
		<path class="st7" d="M1209.4,890.8L1209.4,890.8c0.5,0,0.8-0.4,0.8-0.8v-2.4c0-0.5-0.4-0.8-0.8-0.8l0,0c-0.5,0-0.8,0.4-0.8,0.8
			v2.4C1208.5,890.4,1208.9,890.8,1209.4,890.8z"/>
	</g>
	<g>
		<path class="st7" d="M1216.9,894.7c2.5,0,4.6-1.1,5-2.5c0-0.1,0.1-0.3,0.1-0.5c0-1.6-2.3-0.8-5.1-0.8c0,0,0,0-0.1,0
			c-2.8,0-5-0.8-5,0.8C1211.9,893.4,1214.1,894.7,1216.9,894.7z"/>
	</g>
</g>
<path class="st40" d="M332.9,691.3L332.9,691.3c-3.9,4-1.6,7.3,5.1,7.3h0c6.7,0,15.3-3.3,19.1-7.3l0,0c5.9-0.9,12.3-3.7,15.4-7
	c3.9-4,1.5-7.3-5.1-7.3h-6.3l13.4-14h-3.9h-1l-13.4,14H350c-6.7,0-15.3,3.3-19.1,7.3C327.7,687.6,328.7,690.4,332.9,691.3z"/>
<g>
	<rect x="369.7" y="627" class="st24" width="5" height="36"/>
	<rect x="373.7" y="627" class="st10" width="1" height="36"/>
</g>
<path class="st14" d="M381.2,639h-18c-6.9,0-12.5-5.6-12.5-12.5l0,0c0-6.9,5.6-12.5,12.5-12.5h18c6.9,0,12.5,5.6,12.5,12.5l0,0
	C393.7,633.4,388,639,381.2,639z"/>
<path class="st14" d="M384.7,614.5v12c0,6.9-5.6,12.5-12.5,12.5h0c-6.9,0-12.5-5.6-12.5-12.5v-12c0-6.9,5.6-12.5,12.5-12.5h0
	C379,602,384.7,607.6,384.7,614.5z"/>
<circle class="st37" cx="362.9" cy="628.9" r="1.9"/>
<circle class="st37" cx="370.3" cy="613.1" r="1.9"/>
<circle class="st37" cx="386.1" cy="622.7" r="1.9"/>
<path class="st41" d="M361,619h3c1.7,0,3,1.3,3,3l0,0h-3C362.3,622,361,620.7,361,619L361,619z"/>
<path class="st41" d="M382,628h-3c-1.7,0-3,1.3-3,3l0,0h3C380.7,631,382,629.7,382,628L382,628z"/>
<path class="st40" d="M405.5,1008.1L405.5,1008.1c-6.7,6-2.7,10.9,8.9,10.9h0c11.6,0,26.6-4.9,33.2-10.9l0,0
	c10.2-1.3,21.3-5.5,26.8-10.5c6.7-6,2.7-10.9-8.9-10.9h-11l23.4-21h-6.7h-1.7l-23.4,21h-11c-11.6,0-26.6,4.9-33.2,10.9
	C396.5,1002.5,398.2,1006.7,405.5,1008.1z"/>
<g>
	<rect x="469.4" y="903.1" class="st24" width="8.7" height="62.6"/>
	<rect x="476.4" y="903.1" class="st10" width="1.7" height="62.6"/>
</g>
<path class="st14" d="M489.4,924h-31.3c-11.9,0-21.7-9.8-21.7-21.7v0c0-11.9,9.8-21.7,21.7-21.7h31.3c11.9,0,21.7,9.8,21.7,21.7v0
	C511.1,914.2,501.3,924,489.4,924z"/>
<path class="st14" d="M495.5,881.4v20.9c0,11.9-9.8,21.7-21.7,21.7h0c-11.9,0-21.7-9.8-21.7-21.7v-20.9c0-11.9,9.8-21.7,21.7-21.7h0
	C485.7,859.7,495.5,869.4,495.5,881.4z"/>
<circle class="st37" cx="457.7" cy="906.4" r="3.3"/>
<circle class="st37" cx="470.5" cy="879" r="3.3"/>
<circle class="st37" cx="497.9" cy="895.7" r="3.3"/>
<path class="st41" d="M454.4,889.2h5.2c2.9,0,5.2,2.3,5.2,5.2l0,0h-5.2C456.7,894.4,454.4,892.1,454.4,889.2L454.4,889.2z"/>
<path class="st41" d="M490.8,904.8h-5.2c-2.9,0-5.2,2.3-5.2,5.2l0,0h5.2C488.5,910.1,490.8,907.7,490.8,904.8L490.8,904.8z"/>
<path class="st40" d="M440.3,623.3L427.4,646l44.5-22.7c2.8-1.5,2.3-2.9-1-2.9h-8.8l9.8-7.7h-3.3h-1.3l-9.8,7.7h-8.8
	C445.4,620.4,441.1,621.9,440.3,623.3z"/>
<g>
	<rect x="467.2" y="576.8" class="st24" width="4.6" height="35.9"/>
	<rect x="470.4" y="576.8" class="st10" width="1.3" height="35.9"/>
</g>
<path class="st14" d="M469.5,539.7l-15.8,49.7c-1,3.2,1.4,6.4,4.7,6.4h22.1c3.3,0,5.7-3.2,4.7-6.4L469.5,539.7z"/>
<path class="st40" d="M172.8,730.3l-13.4,23.4l45.9-23.4c2.9-1.5,2.4-3-1-3h-9.1l10.1-8H202h-1.3l-10.1,8h-9.1
	C178,727.3,173.6,728.8,172.8,730.3z"/>
<g>
	<rect x="200.5" y="682.3" class="st24" width="4.7" height="37.1"/>
	<rect x="203.9" y="682.3" class="st10" width="1.3" height="37.1"/>
</g>
<path class="st14" d="M202.9,643.9l-16.3,51.3c-1,3.3,1.4,6.6,4.9,6.6h22.9c3.4,0,5.9-3.4,4.9-6.6L202.9,643.9z"/>
<path class="st40" d="M516.9,570.4l-10,17.6l34.4-17.6c2.2-1.1,1.8-2.3-0.8-2.3h-6.8l7.6-6h-2.5h-1l-7.6,6h-6.8
	C520.9,568.2,517.6,569.3,516.9,570.4z"/>
<g>
	<rect x="537.8" y="534.4" class="st24" width="3.5" height="27.8"/>
	<rect x="540.3" y="534.4" class="st10" width="1" height="27.8"/>
</g>
<path class="st14" d="M539.5,505.6l-12.2,38.5c-0.8,2.5,1.1,5,3.6,5h17.1c2.6,0,4.4-2.5,3.6-5L539.5,505.6z"/>
<path class="st40" d="M1888.3,684L1888.3,684c3,3.1,1.2,5.6-4,5.6l0,0c-5.2,0-11.8-2.5-14.8-5.6l0,0c-4.5-0.7-9.5-2.9-11.9-5.4
	c-3-3.1-1.2-5.6,4-5.6h4.9l-10.4-10.8h3h0.8l10.4,10.8h4.9c5.2,0,11.8,2.5,14.8,5.6C1892.3,681.1,1891.6,683.3,1888.3,684z"/>
<g>
	
		<rect x="1856" y="634.3" transform="matrix(-1 -1.224647e-16 1.224647e-16 -1 3715.9141 1296.4004)" class="st24" width="3.9" height="27.8"/>
	
		<rect x="1856" y="634.3" transform="matrix(-1 -1.224647e-16 1.224647e-16 -1 3712.8213 1296.4004)" class="st10" width="0.8" height="27.8"/>
</g>
<path class="st14" d="M1851,643.6h13.9c5.3,0,9.7-4.3,9.7-9.7l0,0c0-5.3-4.3-9.7-9.7-9.7H1851c-5.3,0-9.7,4.3-9.7,9.7l0,0
	C1841.3,639.2,1845.7,643.6,1851,643.6z"/>
<path class="st14" d="M1848.3,624.6v9.3c0,5.3,4.3,9.7,9.7,9.7l0,0c5.3,0,9.7-4.3,9.7-9.7v-9.3c0-5.3-4.3-9.7-9.7-9.7l0,0
	C1852.6,615,1848.3,619.3,1848.3,624.6z"/>
<circle class="st37" cx="1858.3" cy="622.7" r="1.2"/>
<circle class="st37" cx="1866.2" cy="637.4" r="1.2"/>
<circle class="st37" cx="1850.5" cy="629.4" r="1.2"/>
<path class="st41" d="M1868.5,628.5h-2c-1.1,0-2,0.9-2,2l0,0h2C1867.6,630.6,1868.5,629.7,1868.5,628.5L1868.5,628.5z"/>
<path class="st41" d="M1848.5,635.9h2c1.1,0,2,0.9,2,2l0,0h-2C1849.4,637.9,1848.5,637,1848.5,635.9L1848.5,635.9z"/>
<polygon class="st29" points="1579.9,836.1 1595.5,820.5 1610.3,820.5 1625.7,805.2 1639.3,805.2 1659.9,825.8 1659.9,836.1 "/>
<polygon class="st30" points="1616.8,836.1 1616.8,828.8 1621.9,823.7 1630.6,823.7 1630.6,817.4 1638.5,817.4 1648.8,827.6 
	1648.8,836.1 "/>
<polygon class="st40" points="1579.9,836.2 1607.5,845.7 1622.3,845.7 1641.7,854 1655.3,854 1659.9,841.8 1659.9,836.2 "/>
<polygon class="st29" points="1471,1022.1 1471,1011.7 1478.3,1004.4 1497.9,1004.4 1497.9,995.3 1509.1,995.3 1523.8,1010 
	1523.8,1022.1 "/>
<polygon class="st40" points="975.9,935 934.9,945 918.9,945 903.9,953 865.9,953 848.9,935 "/>
<polygon class="st40" points="461.9,727.1 433.1,733.9 413.6,733.9 388.5,744 377.1,744 381.9,727.1 "/>
<path class="st40" d="M1262.3,760.5l15.1,26.6l-52-26.6c-3.3-1.7-2.7-3.4,1.2-3.4h10.3l-11.4-9h3.8h1.5l11.4,9h10.3
	C1256.3,757.1,1261.3,758.8,1262.3,760.5z"/>
<g>
	
		<rect x="1225.5" y="706.1" transform="matrix(-1 -1.224647e-16 1.224647e-16 -1 2456.291 1454.1765)" class="st24" width="5.4" height="42"/>
	
		<rect x="1225.5" y="706.1" transform="matrix(-1 -1.224647e-16 1.224647e-16 -1 2452.4688 1454.1765)" class="st10" width="1.5" height="42"/>
</g>
<path class="st14" d="M1228.1,662.6l18.5,58.2c1.2,3.7-1.6,7.5-5.5,7.5h-25.9c-3.9,0-6.7-3.8-5.5-7.5L1228.1,662.6z"/>
<path class="st14" d="M1247,743.4c-0.2-0.6-0.5-1.2-0.9-1.7c-0.8-1-2.1-1.7-3.6-1.7c-2.1,0-3.9,1.4-4.4,3.4c-2.5,0-4.6,2.1-4.6,4.6
	h12.6h5.4C1251.6,745.5,1249.5,743.4,1247,743.4z"/>
<path class="st14" d="M1645.5,967.2c-0.2-0.8-0.6-1.6-1.2-2.2c-1.1-1.4-2.8-2.3-4.7-2.3c-2.8,0-5.2,1.9-5.9,4.5
	c-3.4,0-6.1,2.8-6.1,6.1h16.7h7.3C1651.6,969.9,1648.8,967.2,1645.5,967.2z"/>
<path class="st40" d="M1338.7,691.7l12.2,21.5l-42.1-21.5c-2.7-1.4-2.2-2.8,0.9-2.8h8.3l-9.3-7.3h3.1h1.2l9.3,7.3h8.3
	C1333.9,688.9,1337.9,690.3,1338.7,691.7z"/>
<g>
	
		<rect x="1308.9" y="647.7" transform="matrix(-1 -1.224647e-16 1.224647e-16 -1 2622.1299 1329.312)" class="st24" width="4.3" height="34"/>
	
		<rect x="1308.9" y="647.7" transform="matrix(-1 -1.224647e-16 1.224647e-16 -1 2619.0383 1329.312)" class="st10" width="1.2" height="34"/>
</g>
<path class="st14" d="M1311.1,612.5l14.9,47.1c1,3-1.3,6.1-4.5,6.1h-20.9c-3.2,0-5.4-3.1-4.5-6.1L1311.1,612.5z"/>
<path class="st40" d="M1395.7,830l-2.9-30.9c-0.2-2.3-2.2-4.1-4.5-4.1h-26.7c-4.3,0-6.2,5.6-2.7,8.1L1395.7,830z"/>
<path class="st14" d="M1375.7,725.2l-19.7,62.1c-1.3,4,1.7,8,5.9,8h27.7c4.2,0,7.1-4.1,5.9-8L1375.7,725.2z"/>
<path class="st42" d="M1483.1,883.3l-39.4,124.2c-2.5,8,3.4,16.1,11.8,16.1h55.3c8.3,0,14.3-8.1,11.8-16.1L1483.1,883.3z"/>
<path class="st40" d="M618.4,903.3l3.1-33.2c0.2-2.5,2.3-4.4,4.8-4.4h28.6c4.7,0,6.6,6,2.8,8.7L618.4,903.3z"/>
<path class="st14" d="M638.7,794.6l20.7,65.2c1.3,4.2-1.8,8.4-6.2,8.4h-29c-4.4,0-7.5-4.3-6.2-8.4L638.7,794.6z"/>
<path class="st40" d="M698.2,781.8l2.2-23.7c0.2-1.8,1.6-3.1,3.4-3.1h20.4c3.3,0,4.7,4.2,2,6.2L698.2,781.8z"/>
<path class="st14" d="M712.7,704.2l14.8,46.5c0.9,3-1.3,6-4.4,6h-20.7c-3.1,0-5.3-3-4.4-6L712.7,704.2z"/>
<path class="st40" d="M221.7,983.3l5.1-54.1c0.4-4,3.8-7.1,7.8-7.1h46.7c7.6,0,10.8,9.7,4.6,14.2L221.7,983.3z"/>
<path class="st14" d="M256.7,800l34.5,108.7c2.2,7-3,14.1-10.3,14.1h-48.4c-7.3,0-12.5-7.1-10.3-14.1L256.7,800z"/>
<path class="st40" d="M71.2,915.6l4-42.5c0.3-3.2,3-5.6,6.2-5.6H118c6,0,8.5,7.6,3.7,11.2L71.2,915.6z"/>
<path class="st14" d="M98.7,771.6l27.1,85.4c1.7,5.5-2.3,11-8.1,11h-38c-5.7,0-9.8-5.6-8.1-11L98.7,771.6z"/>
<path class="st14" d="M778.8,654.5l4.9,15.5c0.3,1-0.4,2-1.5,2h-6.9c-1,0-1.8-1-1.5-2L778.8,654.5z"/>
<path class="st14" d="M839.8,707.5l4.9,15.5c0.3,1-0.4,2-1.5,2h-6.9c-1,0-1.8-1-1.5-2L839.8,707.5z"/>
<path class="st27" d="M757.8,669.5l4.9,15.5c0.3,1-0.4,2-1.5,2h-6.9c-1,0-1.8-1-1.5-2L757.8,669.5z"/>
<path class="st27" d="M800.8,698.5l4.9,15.5c0.3,1-0.4,2-1.5,2h-6.9c-1,0-1.8-1-1.5-2L800.8,698.5z"/>
<path class="st14" d="M261.8,494.5l4.9,15.5c0.3,1-0.4,2-1.5,2h-6.9c-1,0-1.8-1-1.5-2L261.8,494.5z"/>
<path class="st14" d="M174.8,539.5l4.9,15.5c0.3,1-0.4,2-1.5,2h-6.9c-1,0-1.8-1-1.5-2L174.8,539.5z"/>
<path class="st14" d="M103.8,543.5l4.9,15.5c0.3,1-0.4,2-1.5,2h-6.9c-1,0-1.8-1-1.5-2L103.8,543.5z"/>
<path class="st14" d="M287.8,544.5l4.9,15.5c0.3,1-0.4,2-1.5,2h-6.9c-1,0-1.8-1-1.5-2L287.8,544.5z"/>
<path class="st14" d="M61.8,520.5l4.9,15.5c0.3,1-0.4,2-1.5,2h-6.9c-1,0-1.8-1-1.5-2L61.8,520.5z"/>
<path class="st14" d="M136.8,479.5l4.9,15.5c0.3,1-0.4,2-1.5,2h-6.9c-1,0-1.8-1-1.5-2L136.8,479.5z"/>
<path class="st27" d="M222.8,525.5l4.9,15.5c0.3,1-0.4,2-1.5,2h-6.9c-1,0-1.8-1-1.5-2L222.8,525.5z"/>
<path class="st27" d="M345.8,525.5l4.9,15.5c0.3,1-0.4,2-1.5,2h-6.9c-1,0-1.8-1-1.5-2L345.8,525.5z"/>
<path class="st27" d="M149.8,602.5l4.9,15.5c0.3,1-0.4,2-1.5,2h-6.9c-1,0-1.8-1-1.5-2L149.8,602.5z"/>
<path class="st27" d="M229.8,584.5l4.9,15.5c0.3,1-0.4,2-1.5,2h-6.9c-1,0-1.8-1-1.5-2L229.8,584.5z"/>
<rect x="2553.5" y="514" class="st43" width="128.9" height="237.6"/>
<polygon class="st44" points="2682.3,475.5 2618.8,475.5 2617.1,475.5 2553.5,475.5 2531.7,475.5 2553.5,514 2682.3,514 
	2704.1,475.5 "/>
<rect x="2531.7" y="422" class="st43" width="172.4" height="53.6"/>
<g class="st23">
	<rect x="2531.7" y="390.2" class="st0" width="38.5" height="31.8"/>
	<rect x="2598.7" y="390.2" class="st0" width="38.5" height="31.8"/>
	<rect x="2665.6" y="390.2" class="st0" width="38.5" height="31.8"/>
</g>
<rect x="2904.5" y="514" class="st43" width="128.9" height="237.6"/>
<polygon class="st44" points="3033.3,475.5 2969.8,475.5 2968.1,475.5 2904.5,475.5 2882.7,475.5 2904.5,514 3033.3,514 
	3055.1,475.5 "/>
<rect x="2882.7" y="422" class="st43" width="172.4" height="53.6"/>
<g class="st23">
	<rect x="2882.7" y="390.2" class="st0" width="38.5" height="31.8"/>
	<rect x="2949.7" y="390.2" class="st0" width="38.5" height="31.8"/>
	<rect x="3016.6" y="390.2" class="st0" width="38.5" height="31.8"/>
</g>
<path class="st27" d="M42.8,584.5l4.9,15.5c0.3,1-0.4,2-1.5,2h-6.9c-1,0-1.8-1-1.5-2L42.8,584.5z"/>
<path class="st27" d="M194.8,500.5l4.9,15.5c0.3,1-0.4,2-1.5,2h-6.9c-1,0-1.8-1-1.5-2L194.8,500.5z"/>
<path class="st27" d="M28.8,476.5l4.9,15.5c0.3,1-0.4,2-1.5,2h-6.9c-1,0-1.8-1-1.5-2L28.8,476.5z"/>
<path class="st19" d="M1323.7,828.6c-0.3-1-0.8-1.9-1.4-2.7c-1.4-1.7-3.4-2.7-5.7-2.7c-3.4,0-6.2,2.3-7.1,5.4
	c-4.1,0-7.3,3.3-7.3,7.4h20.1h8.7C1331,831.9,1327.7,828.6,1323.7,828.6z"/>
<path class="st14" d="M773.5,780.9c-0.2-0.7-0.5-1.3-1-1.8c-0.9-1.1-2.4-1.9-4-1.9c-2.3,0-4.3,1.6-4.9,3.7c-2.8,0-5.1,2.3-5.1,5.1
	h14h6C778.6,783.2,776.3,780.9,773.5,780.9z"/>
<g>
	<rect x="595.5" y="647" class="st10" width="8" height="10"/>
	<rect x="578.8" y="647" class="st10" width="8" height="10"/>
	<rect x="562.2" y="647" class="st10" width="8" height="10"/>
	<rect x="545.5" y="647" class="st10" width="8" height="10"/>
</g>
<path class="st40" d="M529.7,794l25.6-36h1.4h3.6l-25.6,36h6.5l25.3-35.6h0.9h2.1l-1.5,2h10l1.5-2h0.9h2.1L557.1,794h6.5l25.5-35.8
	h1h4L568.6,794h9.5l-12,16.9l-3.6,5.1h-8l3.6-5.1h-8.7l-3.6,5.1h-8l3.6-5.1h-8.7l-3.6,5.1h-8l3.6-5.1h-8.7l-3.6,5.1h-8l3.6-5.1
	l12-16.9H529.7z M546.1,791.2h10l2.4-3.4h-10L546.1,791.2z M549.3,786.8h10l2.4-3.4h-10L549.3,786.8z M552.4,782.4h10l2.4-3.4h-10
	L552.4,782.4z M555.5,778h10l2.4-3.4h-10L555.5,778z M558.6,773.6h10l2.4-3.4h-10L558.6,773.6z M561.7,769.2h10l2.4-3.4h-10
	L561.7,769.2z M567.2,761.5l-2.4,3.4h10l2.4-3.4H567.2z M554.1,794l1.3-1.8h-10l-1.3,1.8H554.1z"/>
<path class="st19" d="M605.7,753.6c-0.2-0.9-0.7-1.6-1.2-2.3c-1.2-1.4-2.9-2.3-4.9-2.3c-2.9,0-5.4,2-6.1,4.6c-3.5,0-6.3,2.9-6.3,6.4
	h17.4h7.5C612,756.5,609.2,753.7,605.7,753.6z"/>
<path class="st14" d="M557.4,754.4c-0.2-0.7-0.6-1.4-1.1-2c-1-1.3-2.6-2.1-4.3-2.1c-2.6,0-4.7,1.7-5.4,4.1c-3.1,0-5.6,2.5-5.6,5.6
	h15.3h6.6C563,756.9,560.5,754.4,557.4,754.4z"/>
<path class="st14" d="M433.4,769.4c-0.2-0.7-0.6-1.4-1.1-2c-1-1.3-2.6-2.1-4.3-2.1c-2.6,0-4.7,1.7-5.4,4.1c-3.1,0-5.6,2.5-5.6,5.6
	h15.3h6.6C439,771.9,436.5,769.4,433.4,769.4z"/>
<path class="st42" d="M189.8,980.1c-0.6-2.1-1.6-3.9-2.9-5.5c-2.8-3.4-7.1-5.6-11.9-5.6c-7,0-12.9,4.7-14.8,11.2
	c-8.4,0.1-15.2,6.9-15.2,15.3h41.9h18.1C205.1,987,198.2,980.1,189.8,980.1z"/>
<path class="st19" d="M738.9,839.8c-0.3-1-0.7-1.8-1.4-2.6c-1.3-1.6-3.3-2.6-5.5-2.6c-3.3,0-6,2.2-6.9,5.2c-3.9,0-7.1,3.2-7.1,7.2
	h19.5h8.5C746.1,843.1,742.9,839.9,738.9,839.8z"/>
<path class="st41" d="M553.5,754.8H552c-0.8,0-1.5,0.7-1.5,1.5l0,0h1.5C552.8,756.2,553.5,755.6,553.5,754.8L553.5,754.8z"/>
<path class="st14" d="M604.5,756.8H603c-0.8,0-1.5,0.7-1.5,1.5l0,0h1.5C603.8,758.2,604.5,757.6,604.5,756.8L604.5,756.8z"/>
<path class="st14" d="M600.5,752.8H599c-0.8,0-1.5,0.7-1.5,1.5l0,0h1.5C599.8,754.2,600.5,753.6,600.5,752.8L600.5,752.8z"/>
<path class="st40" d="M900,795l1.8-1h-4.4l-1.8,1h-4l1.8-1H889l-1.8,1h-4l1.8-1h-4.4l-1.8,1h-4.1l1.9-1.2l6.2-3.8h4.7l12.9-8h2h0.5
	l-12.9,8h3.2l12.9-8h1h0.4l-0.7,0.7h5l0.7-0.7h1.1h0.4l-12.9,8h3.3l12.9-8h1.8h0.7l-12.9,8h4.9l-6.2,3.8l-1.9,1.2H900z M903.6,784.7
	h5l1.2-0.7h-5L903.6,784.7z M903.3,785l-1.2,0.7h5l1.2-0.7H903.3z M901.7,786l-1.2,0.7h5l1.2-0.7H901.7z M900.1,786.7l-1.2,0.7h5
	l1.2-0.7H900.1z M898.5,787.7l-1.2,0.7h5l1.2-0.7H898.5z M897,788.7l-1.2,0.7h5l1.2-0.7H897z M895.4,789.7l-0.6,0.3h5l0.6-0.3H895.4
	z M906.4,783l-1.2,0.7h5l1.2-0.7H906.4z"/>
<g>
	<ellipse class="st34" cx="475.1" cy="833.1" rx="9" ry="1"/>
	<g>
		<path class="st5" d="M486.4,828.2h-22.6c-1.1,0-2.1-0.9-2.1-2.1V811c0-1.1,0.9-2.1,2.1-2.1h22.6c1.1,0,2.1,0.9,2.1,2.1v15.1
			C488.5,827.3,487.5,828.2,486.4,828.2z"/>
	</g>
	<path class="st45" d="M467.3,820.9c0,0-5.8-0.1-9.8,7.4"/>
	<path class="st45" d="M482.7,820.9c0,0,5.8-0.1,9.8,7.4"/>
	<path class="st45" d="M468.1,824c0,0,2.3,3.5,0.4,8.5"/>
	<path class="st45" d="M480.8,824c0,0,2.3,3.5,0.4,8.5"/>
	<g>
		<path class="st7" d="M468.1,822.7L468.1,822.7c-0.4,0-0.8-0.3-0.8-0.8v-2.2c0-0.4,0.3-0.8,0.8-0.8l0,0c0.4,0,0.8,0.3,0.8,0.8v2.2
			C468.8,822.3,468.5,822.7,468.1,822.7z"/>
	</g>
	<g>
		<path class="st7" d="M482,822.7L482,822.7c-0.4,0-0.8-0.3-0.8-0.8v-2.2c0-0.4,0.3-0.8,0.8-0.8h0c0.4,0,0.8,0.3,0.8,0.8v2.2
			C482.8,822.3,482.5,822.7,482,822.7z"/>
	</g>
	<circle class="st7" cx="473.6" cy="824.3" r="2.3"/>
</g>
<g>
	<ellipse class="st34" cx="392" cy="669.1" rx="4" ry="0.5"/>
	<g>
		<path class="st5" d="M385.5,663.1l12.3,4.1c0.6,0.2,1.3-0.1,1.5-0.8l2.7-8.2c0.2-0.6-0.1-1.3-0.8-1.5l-12.3-4.1
			c-0.6-0.2-1.3,0.1-1.5,0.8l-2.7,8.2C384.5,662.2,384.9,662.9,385.5,663.1z"/>
	</g>
	<path class="st46" d="M397.1,662.6c0,0,3.2,1,4,5.8"/>
	<path class="st46" d="M388.8,659.8c0,0-3.1-1.1-6.7,2.2"/>
	<path class="st46" d="M396.1,664.1c0,0-1.9,1.5-1.8,4.5"/>
	<path class="st46" d="M391.3,663.8c0,0-1.9,1.5-1.8,4.5"/>
	<g>
		<path class="st7" d="M396.4,663.4L396.4,663.4c0.2,0.1,0.5,0,0.5-0.3l0.4-1.2c0.1-0.2,0-0.5-0.3-0.5l0,0c-0.2-0.1-0.5,0-0.5,0.3
			l-0.4,1.2C396.1,663,396.2,663.3,396.4,663.4z"/>
	</g>
	<g>
		<path class="st7" d="M388.8,660.8L388.8,660.8c0.2,0.1,0.5,0,0.5-0.3l0.4-1.2c0.1-0.2,0-0.5-0.3-0.5l0,0c-0.2-0.1-0.5,0-0.5,0.3
			l-0.4,1.2C388.5,660.5,388.6,660.8,388.8,660.8z"/>
	</g>
	<path class="st7" d="M392,662.2c-0.2,0.7,0.1,1.4,0.8,1.7c0.7,0.2,1.4-0.1,1.7-0.8"/>
</g>
<g>
	<g>
		<path class="st5" d="M581.1,731.2l-14.5,2.7c-0.7,0.1-1.4-0.4-1.6-1.1l-1.8-9.7c-0.1-0.7,0.4-1.4,1.1-1.6l14.5-2.7
			c0.7-0.1,1.4,0.4,1.6,1.1l1.8,9.7C582.3,730.4,581.8,731.1,581.1,731.2z"/>
	</g>
	<path class="st47" d="M577.3,729.7c0,0,4.3-1.9,4.8-8.7"/>
	<path class="st47" d="M568.6,729.6c0,0,2.4,2.5,1.6,6.7"/>
	<path class="st47" d="M575.7,728.7c0,0,2.4,2.5,1.6,6.7"/>
</g>
<path class="st48" d="M574.9,678.3c-0.5,0-0.9,0.4-0.9,0.9v5.1c-0.8,0.5-1.6,1.3-2.4,2.7c-0.1,0.1,0,0.3,0.1,0.4c0,0,0.1,0,0.1,0
	c0.1,0,0.2-0.1,0.2-0.1c0.6-1.1,1.2-1.8,1.9-2.3v0.9c0,0.5,0.4,0.9,0.9,0.9h1.7c0,0.6,0.1,1.2,0.3,2c0,0.1,0.1,0.2,0.3,0.2
	c0,0,0.1,0,0.1,0c0.1-0.1,0.2-0.2,0.2-0.4c-0.3-0.7-0.3-1.3-0.3-1.8h5c0,0.5,0.1,1.2,0.3,1.9v-10.4H574.9z"/>
<path class="st19" d="M1825,717h-4c-2.2,0-4,1.8-4,4l0,0h4C1823.2,721,1825,719.2,1825,717L1825,717z"/>
<path class="st19" d="M1868,764h-4c-2.2,0-4,1.8-4,4l0,0h4C1866.2,768,1868,766.2,1868,764L1868,764z"/>
<path class="st19" d="M1678,784h4c2.2,0,4,1.8,4,4l0,0h-4C1679.8,788,1678,786.2,1678,784L1678,784z"/>
<path class="st19" d="M1526,718h4c2.2,0,4,1.8,4,4l0,0h-4C1527.8,722,1526,720.2,1526,718L1526,718z"/>
<path class="st19" d="M1325,910h4c2.2,0,4,1.8,4,4l0,0h-4C1326.8,914,1325,912.2,1325,910L1325,910z"/>
<path class="st19" d="M1136,1015.5h-5c-2.8,0-5,2.2-5,5l0,0h5C1133.8,1020.5,1136,1018.3,1136,1015.5L1136,1015.5z"/>
<path class="st19" d="M786.5,895.8h4.5c2.5,0,4.5,2,4.5,4.5l0,0H791C788.5,900.2,786.5,898.2,786.5,895.8L786.5,895.8z"/>
<path class="st19" d="M136.7,711.8c-0.6-2.2-2.6-3.9-5-3.9c0,2.7,2.1,5,4.8,5.2c0.1,0,0.1,0,0.2,0c0.1,0,0.1,0,0.2,0
	c2.7-0.2,4.8-2.4,4.8-5.2C139.3,707.9,137.3,709.5,136.7,711.8z"/>
<path class="st19" d="M244.5,696.8h4.5c2.5,0,4.5,2,4.5,4.5l0,0H249C246.5,701.2,244.5,699.2,244.5,696.8L244.5,696.8z"/>
<path class="st19" d="M74.5,733.8H79c2.5,0,4.5,2,4.5,4.5l0,0H79C76.5,738.2,74.5,736.2,74.5,733.8L74.5,733.8z"/>
<path class="st19" d="M509.5,850.2h4.5c2.5,0,4.5-2,4.5-4.5l0,0H514C511.5,845.8,509.5,847.8,509.5,850.2L509.5,850.2z"/>
<path class="st19" d="M661,716.5h3c1.7,0,3-1.3,3-3l0,0h-3C662.3,713.5,661,714.8,661,716.5L661,716.5z"/>
<path class="st19" d="M481,646h-3c-1.7,0-3-1.3-3-3l0,0h3C479.7,643,481,644.3,481,646L481,646z"/>
<path class="st19" d="M502,696h-3c-1.7,0-3-1.3-3-3l0,0h3C500.7,693,502,694.3,502,696L502,696z"/>
<path class="st19" d="M569,599h-3c-1.7,0-3-1.3-3-3l0,0h3C567.7,596,569,597.3,569,599L569,599z"/>
<path class="st19" d="M1329,758.5h-3c-1.7,0-3,1.3-3,3l0,0h3C1327.7,761.5,1329,760.2,1329,758.5L1329,758.5z"/>
<path class="st27" d="M395.7,912.3c-0.8-3.1-3.6-5.4-7-5.4c0,3.8,3,7,6.8,7.2c0.1,0,0.2,0,0.2,0c0.1,0,0.2,0,0.2,0
	c3.8-0.2,6.8-3.4,6.8-7.2C399.3,906.9,396.5,909.2,395.7,912.3z"/>
<path class="st27" d="M700.7,1007.3c-0.8-3.1-3.6-5.4-7-5.4c0,3.8,3,7,6.8,7.2c0.1,0,0.2,0,0.2,0c0.1,0,0.2,0,0.2,0
	c3.8-0.2,6.8-3.4,6.8-7.2C704.3,1001.9,701.5,1004.2,700.7,1007.3z"/>
<path class="st27" d="M320.7,859.3c-0.8-3.1-3.6-5.4-7-5.4c0,3.8,3,7,6.8,7.2c0.1,0,0.2,0,0.2,0c0.1,0,0.2,0,0.2,0
	c3.8-0.2,6.8-3.4,6.8-7.2C324.3,853.9,321.5,856.2,320.7,859.3z"/>
<path class="st27" d="M151.7,906.3c-0.8-3.1-3.6-5.4-7-5.4c0,3.8,3,7,6.8,7.2c0.1,0,0.2,0,0.2,0c0.1,0,0.2,0,0.2,0
	c3.8-0.2,6.8-3.4,6.8-7.2C155.3,900.9,152.5,903.2,151.7,906.3z"/>
<path class="st27" d="M315,1030h6c3.3,0,6-2.7,6-6l0,0h-6C317.7,1024,315,1026.7,315,1030L315,1030z"/>
<path class="st27" d="M43,869h6c3.3,0,6-2.7,6-6l0,0h-6C45.7,863,43,865.7,43,869L43,869z"/>
<path class="st27" d="M191,812h-6c-3.3,0-6-2.7-6-6l0,0h6C188.3,806,191,808.7,191,812L191,812z"/>
<polygon class="st30" points="1489.6,1022.1 1489.6,1013 1503,1013 1503,1007 1512,1016 1512,1022.1 "/>
<polygon class="st40" points="1471,1022.3 1471,1029.2 1478.3,1034 1497.9,1034 1497.9,1040 1509.1,1040 1523.8,1030.3 
	1523.8,1022.3 "/>
<g>
	<path class="st4" d="M2581.1,497.7C2581.1,497.7,2581.1,497.7,2581.1,497.7c-0.3-0.6-3,0-5.9,1.4c-3,1.4-5.2,3-4.9,3.7c0,0,0,0,0,0
		c0.3,0.6,3,0,5.9-1.4C2579.2,499.9,2581.4,498.3,2581.1,497.7z"/>
	<g>
		<path class="st5" d="M2604.2,523.8H2574c-1.5,0-2.8-1.3-2.8-2.8v-20.2c0-1.5,1.3-2.8,2.8-2.8h30.2c1.5,0,2.8,1.3,2.8,2.8V521
			C2607,522.5,2605.8,523.8,2604.2,523.8z"/>
	</g>
	<path class="st49" d="M2599.3,516.5c0,0,7.8,0.1,13.1-9.9"/>
	<path class="st49" d="M2578.8,516.5c0,0-7.8,0.1-13.1-9.9"/>
	<path class="st49" d="M2579.8,518.1c0,0,3.1,4.7,0.6,11.4"/>
	<path class="st49" d="M2596.8,518.1c0,0,3.1,4.7,0.6,11.4"/>
	<g>
		<path class="st7" d="M2579.8,516.3L2579.8,516.3c-0.6,0-1-0.5-1-1v-3c0-0.6,0.5-1,1-1l0,0c0.6,0,1,0.5,1,1v3
			C2580.8,515.9,2580.3,516.3,2579.8,516.3z"/>
	</g>
	<g>
		<path class="st7" d="M2598.4,516.3L2598.4,516.3c-0.6,0-1-0.5-1-1v-3c0-0.6,0.5-1,1-1l0,0c0.6,0,1,0.5,1,1v3
			C2599.5,515.9,2599,516.3,2598.4,516.3z"/>
	</g>
	<g>
		<path class="st7" d="M2589.1,521.2c-3.1,0-5.7-1.3-6.2-3.1c0-0.2-0.1-0.4-0.1-0.6c0-2,2.8-1,6.2-1c0,0,0,0,0.1,0
			c3.4,0,6.2-1,6.2,1C2595.3,519.6,2592.5,521.2,2589.1,521.2z"/>
	</g>
	<g>
		<path class="st4" d="M2568.6,498.6l-0.1-0.7c0-0.1,0.1-0.2,0.2-0.2l0.7,0.4c0.1,0,0.2,0,0.2-0.1l0.6-2.9c0-0.1,0.1-0.2,0.2-0.1
			l2.1,1.1c0.1,0.1,0.1,0.2,0,0.3l-3.7,2.3C2568.7,498.7,2568.6,498.7,2568.6,498.6z"/>
		<path class="st4" d="M2579,493.7l-0.5-0.5c-0.1-0.1-0.3-0.1-0.3,0.1l-0.2,0.8c0,0.1-0.2,0.2-0.2,0.1l-2.6-1.4
			c-0.1-0.1-0.2,0-0.2,0.1l-0.5,2.3c0,0.1,0.1,0.2,0.2,0.2l4.2-1.4C2579,493.9,2579,493.8,2579,493.7z"/>
	</g>
	<path class="st8" d="M2575.1,499.1c3-1.4,5.7-2,5.9-1.4c0,0,0,0,0,0c0,0,0,0,0-0.1l-1.7-5c-0.1-0.2-0.3-0.1-0.3,0l-0.3,1.2
		c0,0.1-0.2,0.2-0.3,0.1l-1.7-1.9c-0.1-0.1-0.2-0.1-0.3,0l-0.8,2c0,0.1-0.1,0.1-0.2,0.1l-3.3-1.7c-0.1-0.1-0.2,0-0.2,0.1l-0.8,3.6
		c0,0.1-0.1,0.2-0.2,0.1l-2-0.6c-0.1,0-0.2,0.1-0.2,0.2l0.4,2.5c0,0.1-0.1,0.2-0.2,0.2l-1.1-0.5c-0.1-0.1-0.3,0.1-0.2,0.2l2.8,4.5
		c0,0,0,0,0,0c0,0,0,0,0,0C2570,502.1,2572.2,500.5,2575.1,499.1z"/>
</g>
<rect x="3059.5" y="427.3" class="st10" width="7" height="104.7"/>
<rect x="2517.7" y="425.5" class="st10" width="7" height="104.7"/>
<rect x="2522.9" y="425.5" class="st22" width="1.7" height="104.7"/>
<rect x="3064.8" y="427.3" class="st22" width="1.7" height="104.7"/>
<path class="st14" d="M2446.8,753.4L2408.2,875c-2.5,7.8,3.3,15.7,11.5,15.7h54.1c8.2,0,14-7.9,11.5-15.7L2446.8,753.4z"/>
<path class="st14" d="M2416.7,788.4l-28.7,90.6c-1.8,5.8,2.5,11.7,8.6,11.7h40.3c6.1,0,10.4-5.9,8.6-11.7L2416.7,788.4z"/>
<path class="st14" d="M3113.3,833.8v-23.4c0-12,9.7-21.8,21.8-21.8l0,0c12,0,21.8,9.7,21.8,21.8v23.4c0,12-9.7,21.8-21.8,21.8l0,0
	C3123,855.5,3113.3,845.8,3113.3,833.8z"/>
<path class="st14" d="M3136.7,855.5v-23.4c0-12,9.7-21.8,21.8-21.8l0,0c12,0,21.8,9.7,21.8,21.8v23.4c0,12-9.7,21.8-21.8,21.8l0,0
	C3146.5,877.3,3136.7,867.5,3136.7,855.5z"/>
<rect x="2586.1" y="691.5" class="st15" width="413.4" height="199.1"/>
<g>
	<rect x="2586.1" y="659.7" class="st15" width="38.5" height="35.1"/>
	<rect x="2661.4" y="659.7" class="st15" width="38.5" height="35.1"/>
	<rect x="2736.7" y="659.7" class="st15" width="38.5" height="35.1"/>
	<rect x="2810.4" y="659.7" class="st15" width="38.5" height="35.1"/>
	<rect x="2885.7" y="659.7" class="st15" width="38.5" height="35.1"/>
	<rect x="2961" y="659.7" class="st15" width="38.5" height="35.1"/>
</g>
<rect x="2999.5" y="653" class="st0" width="128.9" height="237.6"/>
<rect x="2999.5" y="653" class="st16" width="21.8" height="237.6"/>
<rect x="2457.3" y="653" class="st0" width="128.9" height="237.6"/>
<g>
	<rect x="2435.5" y="529.2" class="st0" width="38.5" height="31.8"/>
	<rect x="2502.5" y="529.2" class="st0" width="38.5" height="31.8"/>
	<rect x="2569.4" y="529.2" class="st0" width="38.5" height="31.8"/>
</g>
<rect x="2457.3" y="653" class="st16" width="21.8" height="237.6"/>
<polygon class="st17" points="2586.1,614.5 2522.5,614.5 2520.9,614.5 2457.3,614.5 2435.5,614.5 2457.3,653 2586.1,653 
	2607.9,614.5 "/>
<rect x="2435.5" y="561" class="st0" width="172.4" height="53.6"/>
<polygon class="st17" points="3128.3,614.5 3064.8,614.5 3063.1,614.5 2999.5,614.5 2977.7,614.5 2999.5,653 3128.3,653 
	3150.1,614.5 "/>
<rect x="2977.7" y="561" class="st0" width="172.4" height="53.6"/>
<path class="st18" d="M2788.2,761.8L2788.2,761.8c23.4,0,42.3,18.9,42.3,42.3v86.6h-84.6v-86.6
	C2745.9,780.7,2764.8,761.8,2788.2,761.8z"/>
<g>
	<path class="st19" d="M2454,873.4c0.7-2.3,1.8-4.4,3.2-6.2v-62.8c-18.7,6.4-33,22.6-36.6,42.4c-0.6,0-1.1,0-1.7,0
		c-22,0-39.9,17.9-39.9,39.9c0,1.3,0.1,2.6,0.2,3.9h57.7C2436.9,881.2,2444.6,873.5,2454,873.4z"/>
	<path class="st19" d="M2507.6,868.3c0-0.2,0-0.5,0-0.7c0-21-17-38-38-38c-4.3,0-8.5,0.7-12.3,2v43c2.2-2.6,5.4-4.3,9.1-4.3
		c5.4,0,9.9,3.6,11.3,8.6c6.5,0,11.7,5.3,11.7,11.8h38.5C2527.7,879.1,2518.9,869.6,2507.6,868.3z"/>
	<path class="st14" d="M2454,873.4c-9.5,0.1-17.1,7.7-17.1,17.2h20.4v-23.4C2455.8,869,2454.7,871.1,2454,873.4z"/>
	<path class="st14" d="M2487.1,873.4c-2-7.2-8.7-12.5-16.6-12.5c-5.4,0-10.2,2.5-13.3,6.3v23.4h47
		C2504.2,881.2,2496.6,873.5,2487.1,873.4z"/>
</g>
<path class="st19" d="M3116.5,890.7c1-2.7,1.6-5.5,1.6-8.5c0-13.3-10.8-24.2-24.2-24.2c-13.3,0-24.2,10.8-24.2,24.2
	c0,3,0.6,5.9,1.6,8.5H3116.5z"/>
<circle class="st19" cx="3127.5" cy="863.1" r="24.3"/>
<g>
	<path class="st19" d="M3173.8,843.8c-1.7,0-3.3,0.1-5,0.3c-5.5-17.8-21.4-31-40.5-32.7v51.1c0.9-0.1,1.9-0.2,2.8-0.2
		c15.7,0,28.4,12.7,28.4,28.4h61.1C3220.7,864.8,3199.7,843.8,3173.8,843.8z"/>
	<path class="st14" d="M3131.2,862.2c-1,0-1.9,0.1-2.8,0.2v28.3h31.3C3159.6,875,3146.9,862.2,3131.2,862.2z"/>
	<path class="st14" d="M3108.8,873.2c-1.9-0.7-3.9-1-6-1c-10.2,0-18.5,8.3-18.5,18.5h44v-28.3
		C3120.4,863.2,3113.4,867.3,3108.8,873.2z"/>
</g>
<path class="st19" d="M2587,888.4c-1.3-4.8-5.6-8.4-10.9-8.4c0,6,4.6,10.8,10.5,11.2c0.1,0,0.2,0,0.4,0c0.1,0,0.2,0,0.4,0
	c5.9-0.4,10.5-5.3,10.5-11.2C2592.6,880,2588.2,883.6,2587,888.4z"/>
<g>
	<rect x="2977.7" y="529.2" class="st0" width="38.5" height="31.8"/>
	<rect x="3044.7" y="529.2" class="st0" width="38.5" height="31.8"/>
	<rect x="3111.6" y="529.2" class="st0" width="38.5" height="31.8"/>
</g>
<rect x="2646.4" y="756.8" class="st20" width="31.8" height="11.7"/>
<rect x="2510.8" y="716.6" class="st20" width="31.8" height="11.7"/>
<rect x="2874" y="716.6" class="st20" width="31.8" height="11.7"/>
<rect x="2905.8" y="736.7" class="st20" width="31.8" height="11.7"/>
<rect x="3068.1" y="708.3" class="st20" width="31.8" height="11.7"/>
<rect x="3116.6" y="679.8" class="st20" width="11.7" height="11.7"/>
<rect x="2574.4" y="763.5" class="st20" width="11.7" height="11.7"/>
<rect x="2596.2" y="571" class="st20" width="11.7" height="11.7"/>
<rect x="2435.5" y="529.2" class="st16" width="21.8" height="85.3"/>
<rect x="2977.7" y="529.2" class="st16" width="21.8" height="85.3"/>
<path class="st28" d="M2837.9,884.7c-2.1-3.9-4.6-6.2-6.8-7.6V863c0-1.4-1.2-2.6-2.6-2.6h-28c-1.4,0-2.6,1.2-2.6,2.6v14.2
	c-2.2,1.4-4.6,3.7-6.6,7.5c-0.2,0.4-0.1,0.8,0.3,1c0.1,0.1,0.2,0.1,0.4,0.1c0.3,0,0.5-0.1,0.7-0.4c1.6-3,3.5-5,5.2-6.3v2.6
	c0,1.4,1.2,2.6,2.6,2.6h4.7c-0.1,1.6,0.2,3.5,1,5.6c0.1,0.3,0.4,0.5,0.7,0.5c0.1,0,0.2,0,0.3,0c0.4-0.2,0.6-0.6,0.5-1
	c-0.7-1.9-0.9-3.6-0.9-5h14.2c-0.1,1.6,0.2,3.5,1,5.6c0.1,0.3,0.4,0.5,0.7,0.5c0.1,0,0.2,0,0.3,0c0.4-0.2,0.6-0.6,0.5-1
	c-0.7-1.9-0.9-3.6-0.9-5h6.1c1.4,0,2.6-1.2,2.6-2.6V879c1.8,1.3,3.8,3.3,5.4,6.4c0.1,0.3,0.4,0.4,0.7,0.4c0.1,0,0.2,0,0.4-0.1
	C2837.9,885.5,2838.1,885.1,2837.9,884.7z"/>
<rect x="2830.5" y="771.8" class="st15" width="63.6" height="118.8"/>
<g>
	<path class="st37" d="M2580.6,443.6c-9.3-2.1-18.6,4.8-27.9,9.1c-9.3,4.9-18.6,7.2-27.9,9.1c0-12.1,0-24.2,0-36.4
		c9.3,4.1,18.6,7.9,27.9,9.1C2561.9,436.3,2571.2,435.5,2580.6,443.6z"/>
</g>
<g>
	<path class="st37" d="M3122.4,445.5c-9.3-2.1-18.6,4.8-27.9,9.1c-9.3,4.9-18.6,7.2-27.9,9.1c0-12.1,0-24.2,0-36.4
		c9.3,4.1,18.6,7.9,27.9,9.1C3103.7,438.2,3113.1,437.4,3122.4,445.5z"/>
</g>
<g>
	<path class="st4" d="M563.7,636C563.7,636,563.7,636,563.7,636c-0.1-0.2-1.1,0-2.1,0.5c-1.1,0.5-1.8,1.1-1.7,1.3c0,0,0,0,0,0
		c0.1,0.2,1.1,0,2.1-0.5S563.8,636.2,563.7,636z"/>
	<g>
		<path class="st5" d="M572,645.3h-10.8c-0.5,0-1-0.4-1-1v-7.2c0-0.5,0.4-1,1-1H572c0.5,0,1,0.4,1,1v7.2
			C573,644.8,572.5,645.3,572,645.3z"/>
	</g>
	<path class="st9" d="M570.2,642.7c0,0,2.8,0,4.7-3.5"/>
	<path class="st9" d="M558.8,645.3c0,0,0-2.8,3.5-4.7"/>
	<path class="st9" d="M563.3,643.3c0,0,1.1,1.7,0.2,4.1"/>
	<path class="st9" d="M569.3,643.3c0,0,1.1,1.7,0.2,4.1"/>
	<g>
		<path class="st7" d="M563.3,642.6L563.3,642.6c-0.2,0-0.4-0.2-0.4-0.4v-1.1c0-0.2,0.2-0.4,0.4-0.4l0,0c0.2,0,0.4,0.2,0.4,0.4v1.1
			C563.6,642.5,563.5,642.6,563.3,642.6z"/>
	</g>
	<g>
		<path class="st7" d="M569.9,642.6L569.9,642.6c-0.2,0-0.4-0.2-0.4-0.4v-1.1c0-0.2,0.2-0.4,0.4-0.4l0,0c0.2,0,0.4,0.2,0.4,0.4v1.1
			C570.3,642.5,570.1,642.6,569.9,642.6z"/>
	</g>
	<g>
		<path class="st7" d="M566.6,644.4c-1.1,0-2-0.5-2.2-1.1c0-0.1,0-0.1,0-0.2c0-0.7,1-0.3,2.2-0.3c0,0,0,0,0,0c1.2,0,2.2-0.4,2.2,0.3
			C568.8,643.8,567.8,644.4,566.6,644.4z"/>
	</g>
	<g>
		<path class="st4" d="M559.3,636.3l0-0.2c0,0,0-0.1,0.1-0.1l0.2,0.1c0,0,0.1,0,0.1,0l0.2-1c0,0,0.1-0.1,0.1,0l0.8,0.4
			c0,0,0,0.1,0,0.1L559.3,636.3C559.3,636.4,559.3,636.3,559.3,636.3z"/>
		<path class="st4" d="M563,634.6l-0.2-0.2c0,0-0.1,0-0.1,0l-0.1,0.3c0,0-0.1,0.1-0.1,0l-0.9-0.5c0,0-0.1,0-0.1,0l-0.2,0.8
			c0,0,0,0.1,0.1,0.1L563,634.6C563,634.6,563,634.6,563,634.6z"/>
	</g>
	<path class="st8" d="M561.6,636.5c1.1-0.5,2-0.7,2.1-0.5c0,0,0,0,0,0c0,0,0,0,0,0l-0.6-1.8c0-0.1-0.1-0.1-0.1,0l-0.1,0.4
		c0,0-0.1,0.1-0.1,0l-0.6-0.7c0,0-0.1,0-0.1,0l-0.3,0.7c0,0-0.1,0-0.1,0l-1.2-0.6c0,0-0.1,0-0.1,0l-0.3,1.3c0,0,0,0.1-0.1,0
		l-0.7-0.2c0,0-0.1,0-0.1,0.1l0.1,0.9c0,0,0,0.1-0.1,0.1l-0.4-0.2c-0.1,0-0.1,0-0.1,0.1l1,1.6c0,0,0,0,0,0c0,0,0,0,0,0
		C559.8,637.6,560.6,637,561.6,636.5z"/>
</g>
<rect x="545.5" y="646" class="st16" width="2.5" height="43"/>
<polygon class="st16" points="895.5,726.3 895.5,731.5 895.5,748.6 897,748.6 897,731.5 897,726.3 "/>
<g>
	
		<rect x="574.7" y="638.1" transform="matrix(1 1.300716e-03 -1.300716e-03 1 0.832 -0.7473)" class="st7" width="0.5" height="2.2"/>
	<path class="st50" d="M576.1,638.7l-2.4,0c-0.2,0-0.3-0.1-0.3-0.3l0,0c0-0.2,0.1-0.3,0.3-0.3l2.4,0c0.2,0,0.3,0.1,0.3,0.3l0,0
		C576.4,638.6,576.3,638.7,576.1,638.7z"/>
	<polygon class="st7" points="574.9,631.2 574.7,631.7 574.2,632.3 574.2,638.1 574.2,638.1 575.6,638.1 575.6,632.3 	"/>
	<g>
		<path class="st4" d="M573.9,638.4C573.9,638.3,573.9,638.3,573.9,638.4C573.9,638.3,573.9,638.3,573.9,638.4c-0.1,0.1,0,0.1,0,0.2
			c0,0,0.1,0,0.1,0c0,0,0,0,0,0C573.9,638.5,573.9,638.4,573.9,638.4z"/>
		<path class="st51" d="M574.1,638.4c0-0.1,0-0.1-0.1-0.1c0,0,0,0,0,0c0,0-0.1,0-0.1,0.1c0,0.1,0,0.1,0.1,0.1
			C574,638.5,574,638.5,574.1,638.4C574.1,638.5,574.1,638.5,574.1,638.4z"/>
	</g>
	<g>
		<path class="st4" d="M574.9,638.4C574.9,638.4,574.9,638.3,574.9,638.4C574.9,638.3,574.8,638.3,574.9,638.4c-0.1,0.1,0,0.1,0,0.2
			c0,0,0.1,0,0.1,0c0,0,0,0,0,0C574.9,638.5,574.9,638.5,574.9,638.4z"/>
		<path class="st51" d="M575.1,638.5c0-0.1,0-0.1-0.1-0.1c0,0,0,0,0,0c0,0-0.1,0-0.1,0.1c0,0.1,0,0.1,0.1,0.1
			C575,638.5,575,638.5,575.1,638.5C575,638.5,575,638.5,575.1,638.5z"/>
	</g>
	<g>
		<path class="st4" d="M575.8,638.4C575.8,638.3,575.8,638.3,575.8,638.4C575.8,638.3,575.7,638.3,575.8,638.4c-0.1,0.1,0,0.1,0,0.2
			c0,0,0.1,0,0.1,0c0,0,0,0,0,0C575.8,638.5,575.7,638.4,575.8,638.4z"/>
		<path class="st51" d="M575.9,638.5c0-0.1,0-0.1-0.1-0.1c0,0,0,0,0,0c0,0-0.1,0-0.1,0.1c0,0.1,0,0.1,0.1,0.1
			C575.9,638.5,575.9,638.5,575.9,638.5C575.9,638.5,575.9,638.5,575.9,638.5z"/>
	</g>
	<path class="st50" d="M575.3,640.5l-0.7,0l0-0.3c0,0,0-0.1,0.1-0.1l0.5,0c0,0,0.1,0,0.1,0.1L575.3,640.5z"/>
</g>
<polygon class="st52" points="574.7,631.7 574.7,631.7 574.2,632.3 574.2,638.1 574.7,638.1 "/>
<path class="st40" d="M1819,751.2l12.5,21.9l-42.9-21.9c-2.7-1.4-2.3-2.8,1-2.8h8.5l-9.4-7.5h3.1h1.3l9.4,7.5h8.5
	C1814.1,748.4,1818.2,749.8,1819,751.2z"/>
<g>
	
		<rect x="1788.6" y="706.4" transform="matrix(-1 -1.224647e-16 1.224647e-16 -1 3581.6807 1447.3785)" class="st24" width="4.4" height="34.6"/>
	
		<rect x="1788.6" y="706.4" transform="matrix(-1 -1.224647e-16 1.224647e-16 -1 3578.533 1447.3785)" class="st10" width="1.3" height="34.6"/>
</g>
<path class="st14" d="M1790.8,670.6l15.2,47.9c1,3.1-1.3,6.2-4.5,6.2h-21.3c-3.2,0-5.5-3.1-4.5-6.2L1790.8,670.6z"/>
<path class="st40" d="M1839.6,920.8l17.8,31.2l-61.2-31.2c-3.9-2-3.2-4,1.4-4h12.1l-13.5-10.6h4.5h1.8l13.5,10.6h12.1
	C1832.6,916.8,1838.5,918.8,1839.6,920.8z"/>
<g>
	
		<rect x="1796.3" y="856.8" transform="matrix(-1 -1.224647e-16 1.224647e-16 -1 3598.9011 1762.9746)" class="st24" width="6.3" height="49.5"/>
	
		<rect x="1796.3" y="856.8" transform="matrix(-1 -1.224647e-16 1.224647e-16 -1 3594.4045 1762.9746)" class="st10" width="1.8" height="49.5"/>
</g>
<path class="st14" d="M1799.5,805.6l21.7,68.4c1.4,4.4-1.9,8.8-6.5,8.8h-30.5c-4.6,0-7.9-4.5-6.5-8.8L1799.5,805.6z"/>
<path class="st42" d="M0,993.6h298.1c14.7,0,28.8,3,39.2,8.3l48.6,24.8c10.4,5.3,24.5,8.3,39.2,8.3h90.1c14.7,0,28.8-3,39.2-8.3
	l45.6-23.3c10.4-5.3,24.5-8.3,39.2-8.3h101.1c14.7,0,28.8,3,39.2,8.3l65.6,33.5c10.4,5.3,24.5,8.3,39.2,8.3h116.1
	c14.7,0,28.8-3,39.2-8.3l2.1-1.1c10.4-5.3,24.5-8.3,39.2-8.3h85.6c14.7,0,28.8-3,39.2-8.3l43.3-22.1c10.4-5.3,24.5-8.3,39.2-8.3
	h255.4c14.7,0,28.8,3,39.2,8.3l41.2,21c10.4,5.3,24.5,8.3,39.2,8.3h66.5c14.7,0,28.8-3,39.2-8.3l76.2-38.9
	c10.4-5.3,24.5-8.3,39.2-8.3h36.4v109H0V993.6z"/>
<polygon class="st42" points="760.4,1003.4 734.4,977.4 715.5,977.4 697.8,959.6 652.9,959.6 610.4,1003.4 "/>
<path class="st42" d="M492.7,1032c-1.2-4.4-5.2-7.7-10-7.7c0,5.5,4.3,10,9.7,10.3c0.1,0,0.2,0,0.3,0c0.1,0,0.2,0,0.3,0
	c5.4-0.4,9.7-4.8,9.7-10.3C497.9,1024.3,493.8,1027.6,492.7,1032z"/>
<path class="st42" d="M255.7,991c-1.2-4.4-5.2-7.7-10-7.7c0,5.5,4.3,10,9.7,10.3c0.1,0,0.2,0,0.3,0c0.1,0,0.2,0,0.3,0
	c5.4-0.4,9.7-4.8,9.7-10.3C260.9,983.3,256.8,986.6,255.7,991z"/>
<path class="st16" d="M1466.4,1015c-8.3,0-14.3-8.1-11.8-16.1l32.5-102.6l-4.1-13l-39.4,124.2c-2.5,8,3.4,16.1,11.8,16.1h55.3
	c5.7,0,10.3-3.8,11.8-8.7c-0.3,0-0.5,0-0.8,0H1466.4z"/>
<path class="st42" d="M1448.1,928.5l-32,100.9c-2,6.5,2.8,13.1,9.6,13.1h44.9c6.8,0,11.6-6.6,9.6-13.1L1448.1,928.5z"/>
<path class="st16" d="M1434.5,1035.5c-6.8,0-11.6-6.6-9.6-13.1l26.4-83.3l-3.4-10.6l-32,100.9c-2,6.5,2.8,13.1,9.6,13.1h44.9
	c4.6,0,8.3-3.1,9.6-7.1c-0.2,0-0.4,0-0.6,0H1434.5z"/>
<rect x="1361" y="989" class="st42" width="174" height="74"/>
<polygon class="st16" points="703.8,965.6 697.8,959.6 652.9,959.6 610.4,1003.4 622.2,1003.4 658.9,965.6 "/>
<g>
	<g>
		<path class="st5" d="M1273.8,967.4h97c4.9,0,8.9-4,8.9-8.9v-64.9c0-4.9-4-8.9-8.9-8.9h-97c-4.9,0-8.9,4-8.9,8.9v64.9
			C1264.9,963.4,1268.9,967.4,1273.8,967.4z"/>
	</g>
	<path class="st53" d="M1289.6,944c0,0-24.9,0.3-42.1-31.7"/>
	<path class="st53" d="M1355.4,935.8c0,0,24.9-0.3,42.1,31.7"/>
	<path class="st53" d="M1347,949.2c0,0,9.9,15.1,1.8,36.5"/>
	<path class="st53" d="M1297.6,949.3c0,0-9.9,15.1-1.8,36.5"/>
</g>
<path class="st27" d="M1870.7,927.3c-0.8-3.1-3.6-5.4-7-5.4c0,3.8,3,7,6.8,7.2c0.1,0,0.2,0,0.2,0c0.1,0,0.2,0,0.2,0
	c3.8-0.2,6.8-3.4,6.8-7.2C1874.3,921.9,1871.5,924.2,1870.7,927.3z"/>
<path class="st27" d="M1655.7,994.3c-0.8-3.1-3.6-5.4-7-5.4c0,3.8,3,7,6.8,7.2c0.1,0,0.2,0,0.2,0c0.1,0,0.2,0,0.2,0
	c3.8-0.2,6.8-3.4,6.8-7.2C1659.3,988.9,1656.5,991.2,1655.7,994.3z"/>
<path class="st27" d="M1720,922h6c3.3,0,6-2.7,6-6l0,0h-6C1722.7,916,1720,918.7,1720,922L1720,922z"/>
<path class="st27" d="M1570,964h-6c-3.3,0-6-2.7-6-6l0,0h6C1567.3,958,1570,960.7,1570,964L1570,964z"/>
<path class="st27" d="M1862,839h-6c-3.3,0-6-2.7-6-6l0,0h6C1859.3,833,1862,835.7,1862,839L1862,839z"/>
<polygon class="st29" points="1746,958.1 1746,947.7 1753.3,940.4 1772.9,940.4 1772.9,931.3 1784.1,931.3 1798.8,946 1798.8,958.1 
	"/>
<polygon class="st30" points="1764.6,958.1 1764.6,949 1778,949 1778,943 1787,952 1787,958.1 "/>
<polygon class="st40" points="1746,958.3 1746,965.2 1753.3,970 1772.9,970 1772.9,976 1784.1,976 1798.8,966.3 1798.8,958.3 "/>
</svg>
