<?xml version="1.0" encoding="UTF-8"?>
<svg width="375px" height="95px" viewBox="0 0 375 95" version="1.1" xmlns="http://www.w3.org/2000/svg" xmlns:xlink="http://www.w3.org/1999/xlink">
    <!-- Generator: Sketch 50.2 (55047) - http://www.bohemiancoding.com/sketch -->
    <title>Post</title>
    <desc>Created with Sketch.</desc>
    <defs>
        <path d="M9.22665161,3.35373235 L16.2762281,10.4033089 C16.7634783,10.890559 16.7634783,11.6784529 16.2762281,12.1605195 L15.1047544,13.3319932 C14.6175042,13.8192434 13.8296104,13.8192434 13.3475438,13.3319932 L8.34545455,8.34027103 L3.34854884,13.3371767 C2.8612987,13.8244269 2.07340486,13.8244269 1.59133823,13.3371767 L0.414680971,12.165703 C-0.07256917,11.6784529 -0.07256917,10.890559 0.414680971,10.4084924 L7.46425748,3.35891587 C7.95150762,2.86648221 8.73940147,2.86648221 9.22665161,3.35373235 Z" id="path-1"></path>
        <path d="M7.62616822,13.6 L0.423676012,6.39750779 C-0.0741433022,5.89968847 -0.0741433022,5.09470405 0.423676012,4.60218069 L1.62056075,3.40529595 C2.11838006,2.90747664 2.92336449,2.90747664 3.41588785,3.40529595 L8.5211838,8.5105919 L13.6264798,3.40529595 C14.1242991,2.90747664 14.9292835,2.90747664 15.4218069,3.40529595 L16.6186916,4.60218069 C17.1165109,5.1 17.1165109,5.90498442 16.6186916,6.39750779 L9.41619938,13.6 C8.92897196,14.0978193 8.12398754,14.0978193 7.62616822,13.6 Z" id="path-3"></path>
    </defs>
    <g id="Page-1" stroke="none" stroke-width="1" fill="none" fill-rule="evenodd">
        <g id="Desktop-HD" transform="translate(-856.000000, -220.000000)">
            <g id="Post" transform="translate(856.000000, 220.000000)">
                <rect id="Rectangle-3" fill="#FFFFFF" fill-rule="evenodd" x="0" y="0" width="375" height="95.25" rx="6"></rect>
                <g id="Group-3" stroke-width="1" fill-rule="evenodd" transform="translate(98.250000, 34.500000)" fill="#E0E4E9">
                    <rect id="Rectangle-Copy" x="0" y="0" width="157.5" height="10.5" rx="5.25"></rect>
                    <rect id="Rectangle-Copy-2" x="0" y="15.75" width="117.382075" height="10.5" rx="5.25"></rect>
                </g>
                <path d="" id="Path-2" stroke="#979797" stroke-width="0.75"></path>
                <g id="Group" stroke-width="1" fill-rule="evenodd" transform="translate(275.250000, 19.500000)">
                    <rect id="Rectangle" fill="#F7F3F9" x="0" y="0" width="81.75" height="56.25"></rect>
                    <path d="M0,39.3383804 C9.83680007,27.3903845 23.4649789,25.3207976 40.8845365,33.1296197 C58.3040941,40.9384418 71.9259153,42.3402485 81.75,37.3350396 L81.75,56.25 L0,56.25 L0,39.3383804 Z" id="Path-3" fill="#E0E4E9"></path>
                    <circle id="Oval-2" fill="#E0E4E9" cx="66.75" cy="15" r="5.25"></circle>
                </g>
                <rect id="Rectangle-6" fill="#42A3B8" fill-rule="evenodd" x="48.75" y="33" width="30" height="30" rx="6"></rect>
                <g id="Group-2" stroke-width="1" fill-rule="evenodd" transform="translate(15.750000, 21.750000)">
                    <g id="Upvoted">
                        <mask id="mask-2" fill="white">
                            <use xlink:href="#path-1"></use>
                        </mask>
                        <g id="Mask"></g>
                        <g id="Color/Orange" mask="url(#mask-2)" fill="#F45D01" fill-rule="evenodd">
                            <rect id="Rectangle-3" x="0" y="0" width="16.89375" height="16.89375"></rect>
                        </g>
                    </g>
                    <g id="Down" transform="translate(0.000000, 35.191499)">
                        <mask id="mask-4" fill="white">
                            <use xlink:href="#path-3"></use>
                        </mask>
                        <g id="Mask"></g>
                        <g id="Color/Gray" mask="url(#mask-4)" fill="#E0E4E9" fill-rule="evenodd">
                            <rect id="Rectangle-3-Copy" x="0" y="0" width="17.0357143" height="17.0357143"></rect>
                        </g>
                    </g>
                </g>
            </g>
        </g>
    </g>
</svg>