<?xml version="1.0" encoding="UTF-8"?>
<svg width="311px" height="95px" viewBox="0 0 311 95" version="1.1" xmlns="http://www.w3.org/2000/svg" xmlns:xlink="http://www.w3.org/1999/xlink">
    <!-- Generator: Sketch 50.2 (55047) - http://www.bohemiancoding.com/sketch -->
    <title>UI Card 2</title>
    <desc>Created with Sketch.</desc>
    <defs>
        <path d="M5.97018634,2.17006211 L10.531677,6.7315528 C10.8469565,7.0468323 10.8469565,7.55664596 10.531677,7.86857143 L9.7736646,8.62658385 C9.45838509,8.94186335 8.94857143,8.94186335 8.63664596,8.62658385 L5.4,5.39664596 L2.16670807,8.62993789 C1.85142857,8.94521739 1.34161491,8.94521739 1.02968944,8.62993789 L0.268322981,7.87192547 C-0.0469565217,7.55664596 -0.0469565217,7.0468323 0.268322981,6.73490683 L4.82981366,2.17341615 C5.14509317,1.85478261 5.65490683,1.85478261 5.97018634,2.17006211 Z" id="path-1"></path>
        <path d="M4.93457944,8.8 L0.274143302,4.13956386 C-0.0479750779,3.81744548 -0.0479750779,3.29657321 0.274143302,2.97788162 L1.04859813,2.20342679 C1.37071651,1.88130841 1.89158879,1.88130841 2.21028037,2.20342679 L5.51370717,5.50685358 L8.81713396,2.20342679 C9.13925234,1.88130841 9.66012461,1.88130841 9.9788162,2.20342679 L10.753271,2.97788162 C11.0753894,3.3 11.0753894,3.82087227 10.753271,4.13956386 L6.09283489,8.8 C5.77757009,9.12211838 5.25669782,9.12211838 4.93457944,8.8 Z" id="path-3"></path>
    </defs>
    <g id="Page-1" stroke="none" stroke-width="1" fill="none" fill-rule="evenodd">
        <g id="Desktop-HD" transform="translate(-920.000000, -440.000000)">
            <g id="UI-Card-2" transform="translate(920.000000, 440.000000)">
                <g id="Group" stroke-width="1">
                    <rect id="Rectangle-3" fill="#FFFFFF" x="0" y="0" width="310.5" height="95.25" rx="6"></rect>
                    <g id="Group-3" transform="translate(60.750000, 11.250000)" fill="#E0E4E9">
                        <rect id="Rectangle-Copy" x="0" y="0" width="232.5" height="10.5" rx="5.25"></rect>
                        <rect id="Rectangle-Copy-2" x="0" y="15.75" width="175.5" height="10.5" rx="5.25"></rect>
                        <rect id="Rectangle-Copy-4" x="0" y="31.5" width="144" height="10.5" rx="5.25"></rect>
                    </g>
                </g>
                <g id="Group-2" stroke-width="1" transform="translate(11.250000, 75.000000)">
                    <g id="Up">
                        <mask id="mask-2" fill="white">
                            <use xlink:href="#path-1"></use>
                        </mask>
                        <g id="Mask"></g>
                        <g id="Color/Gray" mask="url(#mask-2)" fill="#E0E4E9" fill-rule="evenodd">
                            <rect id="Rectangle-3-Copy" x="0" y="0" width="10.93125" height="10.93125"></rect>
                        </g>
                    </g>
                    <g id="Downvoted" transform="translate(16.500000, 0.000000)">
                        <mask id="mask-4" fill="white">
                            <use xlink:href="#path-3"></use>
                        </mask>
                        <g id="Mask"></g>
                        <g id="Color/Purple" mask="url(#mask-4)" fill="#6D3EB7" fill-rule="evenodd">
                            <rect id="Rectangle" x="0" y="0" width="11" height="11"></rect>
                        </g>
                    </g>
                </g>
                <rect id="Rectangle-6-Copy" fill="#29B1F3" x="11.25" y="17.25" width="30" height="30" rx="6"></rect>
            </g>
        </g>
    </g>
</svg>